<svg width="1040" height="402" viewBox="0 0 1040 402" fill="none" xmlns="http://www.w3.org/2000/svg">
<path d="M444.861 173.991L444.658 175.532L611.699 196.282L611.902 194.741L444.861 173.991Z" fill="#9BC1F9"/>
<path d="M446.055 191.928L446.814 190.562L215.223 69.4871L307.799 47.1276L307.412 45.623L210.821 68.9469L446.055 191.928Z" fill="#9BC1F9"/>
<path d="M67.1634 233.046L66.6537 234.52L369.697 333.283L370.206 331.809L67.1634 233.046Z" fill="#9BC1F9"/>
<path d="M954.394 339.901L955.538 338.814L804.773 189.172L804.629 189.112L546.837 81.0876L457.881 68.449L457.65 69.9839L546.502 82.6078L803.851 190.477L954.394 339.901Z" fill="#9BC1F9"/>
<path d="M473.924 375.457L485.423 295.195L484.835 294.973L353.713 245.004L236.625 196.524L235.997 197.95L353.107 246.439L483.664 296.196L472.34 375.244L473.924 375.457Z" fill="#9BC1F9"/>
<path d="M465.069 376.039L465.81 374.662L360.812 321.374V238.815L253.335 326.889L63.4038 236.349L258.431 184.58L258.584 184.24L317.581 54.6029L455.03 69.899L441.929 174.693L443.516 174.881L456.811 68.534L456.011 68.4468L316.594 52.9285L316.356 53.4535L257.275 183.275L58.9016 235.936L253.569 328.733L253.968 328.406L359.212 242.158V322.314L465.069 376.039Z" fill="#9BC1F9"/>
<path d="M796.472 199.467L796.504 197.913L617.89 194.379L668.642 48.2898L667.127 47.7922L615.678 195.89L796.472 199.467Z" fill="#9BC1F9"/>
<path d="M1023.49 293.526L1024.26 292.161L821.771 184.44L690.264 69.4231L689.193 70.5761L820.85 185.699L1023.49 293.526Z" fill="#9BC1F9"/>
<path d="M854.514 319.04L853.968 320.502L954.789 356.024L955.336 354.563L854.514 319.04Z" fill="#9BC1F9"/>
<path d="M853.999 316.999L757.324 341.723L757.732 343.228L854.407 318.504L853.999 316.999Z" fill="#9BC1F9"/>
<path d="M752.106 341.41L639.855 349.047L639.967 350.595L752.218 342.958L752.106 341.41Z" fill="#9BC1F9"/>
<path d="M536.562 231.601L536.815 231.579L781.539 212.327L781.411 210.779L536.941 230.011L461.928 186.764L461.112 188.099L536.562 231.601Z" fill="#9BC1F9"/>
<path d="M591.786 334.036L593.192 333.297L536.855 232.256L487.855 296.845L489.142 297.767L536.648 235.15L591.786 334.036Z" fill="#9BC1F9"/>
<path d="M445.319 181.965L542.434 85.9509L676.695 48.7873L676.257 47.2944L541.589 84.5677L541.442 84.7168L444.178 180.879L445.319 181.965Z" fill="#9BC1F9"/>
<path d="M122.509 164.694L122.195 166.217L219.64 185.169L219.954 183.646L122.509 164.694Z" fill="#9BC1F9"/>
<path d="M144.683 356.283L145.239 354.828L58.4716 323.634V228.242L128.983 175.075L128.829 174.569L99.4094 77.7661L97.8756 78.2029L127.14 174.499L56.8719 227.483V324.714L144.683 356.283Z" fill="#9BC1F9"/>
<path d="M230.731 215.219L60.7321 319.032L61.5852 320.349L231.584 216.536L230.731 215.219Z" fill="#9BC1F9"/>
<path d="M676.697 57.0716L676.237 58.5581L781.219 89.1686L781.679 87.6821L676.697 57.0716Z" fill="#9BC1F9"/>
<path d="M621.314 199.337L615.978 342.371L617.577 342.427L622.914 199.394L621.314 199.337Z" fill="#9BC1F9"/>
<path d="M365.765 340.553L429.537 163.801L428.027 163.285L364.255 340.037L365.765 340.553Z" fill="#9BC1F9"/>
<path d="M108.827 70.7877L107.746 71.9346L242.6 191.759L243.681 190.612L108.827 70.7877Z" fill="#9BC1F9"/>
<path d="M55.5982 235.739V325.574L145.435 357.872L146.877 354.097L59.7457 322.773V319.847L61.1793 322.06L138.119 275.076L253.757 330.201L254.792 329.35L282.873 306.337L365.348 333.27L362.633 340.794L366.545 342.131L369.279 334.553L370.49 334.949L371.809 331.129L370.652 330.751L371.028 329.707L465.61 377.709L467.529 374.139L372.414 325.866L394.852 263.677L482.264 296.991L470.903 376.301L475.011 376.851L486.402 297.34L489.413 299.497L536.485 237.452L591.273 335.714L594.92 333.794L538.543 232.684L619.035 226.351L614.666 343.525L618.812 343.667L623.198 226.023L782.912 213.459L782.579 209.446L623.349 221.972L624.238 198.154L620.092 198.014L619.186 222.299L537.243 228.745L461.483 185.068L459.368 188.53L535.253 232.282L486.519 296.521L486.824 294.396L485.297 293.82L396.223 259.875L424.331 181.974L446.572 193.601L448.542 190.06L425.718 178.127L431.16 163.044L427.248 161.707L422.021 176.195L294.079 109.307L318.368 55.9353L453.612 70.9859L440.512 175.77L443.293 176.099L443.223 176.626L446.308 177.008L442.378 180.894L445.337 183.712L451.472 177.647L612.805 197.608L613.331 193.614L455.121 174.039L543.107 87.05L549.601 85.2534L639.656 123L613.917 197.091L797.722 200.728L797.803 196.701L619.653 193.176L643.476 124.601L803.117 191.516L816.54 204.839L758.844 328.7L708.152 240.446L623.862 352.848L627.344 355.034L707.618 248.64L758.965 338.213L819.652 207.93L954.374 341.649L957.339 338.833L821.486 203.993L823.803 199.02L820.02 197.368L818.374 200.903L805.51 188.135L644.799 120.791L668.587 52.3176L678.268 49.6378L677.133 45.766L670.196 47.6864L670.256 47.5145L666.326 46.2245L665.353 49.0266L549.838 80.9991L547.188 79.8882L456.805 67.0466L456.769 67.2855L456.155 67.2176L315.805 51.5963L315.189 52.9568L290.416 107.393L218.729 69.9151L309.344 48.0288L308.339 44.1245L207.315 68.5187L288.735 111.085L256.355 182.237L240.794 186.368L108.755 69.0472L105.953 72.0187L236.062 187.624L68.5382 232.095L66.4051 231.398L65.925 232.789L59.7447 234.429V228.847L130.452 175.533L130.049 174.216L128.369 168.686L220.658 186.623L221.472 182.675L127.043 164.322L100.271 76.2319L96.2926 77.3646L122.448 163.429L121.525 163.25L120.71 167.198L123.775 167.794L125.673 174.039L55.5982 226.878V235.531L55.3171 235.605L55.5982 235.739ZM555.858 83.5211L663.745 53.6583L640.979 119.19L555.858 83.5211ZM457.755 71.2492L541.88 83.2015L540.913 83.4694L540.527 83.8554L449.956 173.401L445.06 172.795L457.755 71.2492ZM68.4065 236.303L150.122 262.987L137.87 270.469L66.9881 236.68L68.4065 236.303ZM392.36 258.403L362.086 246.866V236.153L353.19 243.443L235.954 194.902L234.325 198.602L349.643 246.349L281.982 301.795L159.736 261.876L233.335 216.932L231.126 213.521L154.657 260.217L75.5862 234.396L239.681 190.838L242.691 193.514L245.492 190.542L244.413 189.582L259.355 185.617L259.752 184.735L292.398 113L420.633 180.042L392.36 258.403ZM357.938 244.821V245.286L357.551 245.138L357.938 244.821ZM368.699 323.98L362.086 320.624V251.189L390.988 262.204L368.699 323.98ZM286.581 303.297L353.95 248.088L357.938 249.608V323.063L367.313 327.821L366.719 329.466L286.581 303.297ZM142.247 272.555L155.2 264.645L278.273 304.834L253.149 325.422L142.247 272.555ZM59.7457 237.715L133.742 272.989L59.7457 318.175V237.715Z" fill="#9BC1F9"/>
<path d="M1019.24 292.675L831.78 192.925L813.931 193.228L813.858 189.201L824.445 189.022L820.108 186.714L815.288 182.499L811.838 191.539L807.95 190.139L811.971 179.6L687.392 70.6661L690.172 67.6769L813.514 175.554L860.434 52.5791L864.322 53.9791L816.831 178.454L822.513 183.424L832.77 188.881L991.984 196.989L992.056 201.015L840.107 192.783L1018.2 287.526L987.358 199.388L991.427 198.616L1022.94 290.046L1025.99 291.67L1024 295.205L1023.98 295.195L1026.18 306.083L968.85 341.934L966.605 338.55L1021.57 304.178L1019.24 292.675Z" fill="#9BC1F9"/>
<path d="M855.592 318.038L956.937 353.765L955.521 357.552L852.309 321.167L852.634 320.299L756.83 344.794L755.779 340.897L854.921 315.548L855.592 318.038Z" fill="#9BC1F9"/>
<path d="M753.288 340.089L638.496 347.899L638.785 351.914L753.578 344.104L753.288 340.089Z" fill="#9BC1F9"/>
<path d="M675.827 55.4724L674.636 59.3284L782.08 90.6066L783.271 86.7506L675.827 55.4724Z" fill="#9BC1F9"/>
<path d="M861.197 54.1976L809.595 189.434L811.095 189.974L862.697 54.7372L861.197 54.1976Z" fill="#9BC1F9"/>
<path d="M347.239 77.9622C359.204 59.1649 353.209 34.5091 333.85 22.8917C314.49 11.2744 289.097 17.0949 277.132 35.8921C265.167 54.6893 271.161 79.3452 290.521 90.9625C309.881 102.58 335.274 96.7594 347.239 77.9622Z" fill="white"/>
<path d="M190.89 356.256C194.581 334.173 179.136 313.366 156.392 309.782C133.649 306.199 112.219 321.195 108.528 343.278C104.837 365.36 120.282 386.167 143.026 389.751C165.769 393.335 187.199 378.339 190.89 356.256Z" fill="white"/>
<path d="M647.34 195.135C647.34 211.519 633.659 224.802 616.784 224.802C599.909 224.802 586.229 211.519 586.229 195.135C586.229 178.749 599.909 165.467 616.784 165.467C633.659 165.467 647.34 178.749 647.34 195.135Z" fill="white"/>
<path d="M826.393 245.648C857.354 239.636 877.433 210.393 871.242 180.332C865.05 150.271 834.932 130.774 803.971 136.786C773.011 142.798 752.931 172.041 759.123 202.102C765.314 232.164 795.432 251.66 826.393 245.648Z" fill="white"/>
<path d="M555.568 106.397C569.528 101.642 576.875 86.7994 571.978 73.2448C567.081 59.6901 551.794 52.5564 537.834 57.3112C523.874 62.0659 516.527 76.9086 521.424 90.4632C526.321 104.018 541.608 111.152 555.568 106.397Z" fill="white"/>
<path d="M895.411 70.184C897.528 49.4156 881.905 30.913 860.515 28.8572C839.125 26.8014 820.068 41.971 817.951 62.7394C815.834 83.5077 831.457 102.01 852.847 104.066C874.237 106.122 893.294 90.9524 895.411 70.184Z" fill="white"/>
<path d="M112.696 117.439C131.787 117.439 147.263 102.412 147.263 83.8762C147.263 65.34 131.787 50.3135 112.696 50.3135C93.605 50.3135 78.1289 65.34 78.1289 83.8762C78.1289 102.412 93.605 117.439 112.696 117.439Z" fill="white"/>
<path d="M499.384 185.457C503.021 158.504 483.466 133.791 455.706 130.26C427.947 126.729 402.495 145.716 398.858 172.669C395.221 199.622 414.777 224.334 442.536 227.865C470.295 231.397 495.747 212.41 499.384 185.457Z" fill="white"/>
<path d="M103.701 241.387C109.705 216.701 93.9607 191.962 68.5352 186.133C43.1097 180.304 17.6313 195.591 11.6276 220.278C5.62396 244.965 21.3684 269.703 46.7939 275.532C72.2194 281.361 97.6978 266.074 103.701 241.387Z" fill="white"/>
<path d="M1022.59 201.353C1022.59 219.332 1007.58 233.907 989.065 233.907C970.548 233.907 955.538 219.332 955.538 201.353C955.538 183.374 970.548 168.799 989.065 168.799C1007.58 168.799 1022.59 183.374 1022.59 201.353Z" fill="white"/>
<path d="M510.951 302.504C513.877 290.47 506.202 278.411 493.808 275.569C481.414 272.728 468.994 280.18 466.068 292.214C463.141 304.248 470.816 316.307 483.21 319.148C495.604 321.99 508.024 314.538 510.951 302.504Z" fill="white"/>
<path d="M788.079 333.458C788.079 349.102 775.017 361.785 758.904 361.785C742.791 361.785 729.729 349.102 729.729 333.458C729.729 317.813 742.791 305.13 758.904 305.13C775.017 305.13 788.079 317.813 788.079 333.458Z" fill="white"/>
<path d="M722.11 64.3194C727.804 39.8535 711.992 15.5384 686.794 10.01C661.596 4.4817 636.553 19.8336 630.859 44.2995C625.166 68.7654 640.977 93.0805 666.175 98.6088C691.374 104.137 716.416 88.7852 722.11 64.3194Z" fill="white"/>
<mask id="mask0_56_54010" style="mask-type:luminance" maskUnits="userSpaceOnUse" x="631" y="8" width="91" height="89">
<path d="M721.465 53.6713C722.119 29.5555 702.514 9.49135 677.677 8.85692C652.84 8.22249 632.176 27.258 631.522 51.3739C630.869 75.4898 650.473 95.5539 675.311 96.1883C700.148 96.8227 720.812 77.7872 721.465 53.6713Z" fill="white"/>
</mask>
<g mask="url(#mask0_56_54010)">
<path d="M697.995 46.3389C698.256 40.2437 697.331 34.2247 694.523 28.5501C692.106 23.6678 686.128 20.8977 680.675 20.8906C663.361 20.8688 661.159 43.0803 650.138 51.6482C646.771 54.2657 643.006 56.3981 639.819 59.2215C628.053 69.6465 633.353 88.9438 644.157 98.0834C651.656 104.425 663.439 108.029 672.68 103.071C677.504 100.483 681.166 96.1812 683.775 91.4679C687.478 84.7778 689.864 77.0594 692.498 69.9295C695.3 62.3406 697.649 54.4401 697.995 46.3389Z" fill="#13375B"/>
<path d="M691.52 102.439C691.52 102.439 678.589 89.5653 675.262 83.9719C671.935 78.3789 677.528 82.02 683.241 80.5484C685.405 79.991 684.857 67.681 688.948 71.6822C695.658 78.2465 704.093 89.7266 704.093 89.7266L691.52 102.439Z" fill="#96D9C9"/>
<path d="M673.136 66.0354C673.136 66.0354 661.531 63.8111 656.235 68.107C650.94 72.4029 657.37 110.596 657.364 116.927C657.359 123.258 653.728 139.794 653.728 139.794C653.728 139.794 688.9 147.123 694.487 137.619C694.487 137.619 696.077 101.407 695.84 96.8539C695.603 92.3003 690.389 73.6776 688.948 71.6826C687.506 69.6886 673.136 66.0354 673.136 66.0354Z" fill="#50BFA5"/>
<path d="M673.063 48.6067C673.063 48.6067 673.002 48.9435 672.892 49.5167C672.366 52.2665 670.339 61.3894 668.97 63.8972C667.315 66.9286 674.635 76.5947 681.68 75.4154C683.777 75.0643 679.907 66.5334 680.093 65.63C680.449 63.8998 680.931 61.54 681.426 59.121C681.704 57.7559 681.987 56.3717 682.252 55.0716C683.005 51.3752 683.62 48.3521 683.62 48.3521L673.063 48.6067Z" fill="#F7A491"/>
<path d="M672.892 49.5167C673.002 48.9435 673.063 48.6067 673.063 48.6067L683.619 48.3516C683.619 48.3516 683.004 51.3748 682.251 55.0711C681.987 56.3646 681.707 57.7403 681.43 59.0977C679.8 58.8653 678.097 58.0974 676.39 56.6492C674.529 55.0701 673.309 53.1725 672.572 51.147C672.702 50.5003 672.81 49.9433 672.892 49.5167Z" fill="#F47458"/>
<path d="M680.168 25.3551C680.168 25.3551 675.192 24.7976 672.073 28.707C668.954 32.6159 665.592 44.7036 673.341 51.2761C681.089 57.848 688.743 50.4092 689.879 42.5214C691.014 34.6337 691.455 25.0705 680.168 25.3551Z" fill="#F7A491"/>
<path d="M687.925 23.37C687.925 23.37 678.225 36.8648 668.99 35.056L668.733 29.2987L669.585 27.1185L674.265 24.2013L681.869 22.5188L687.925 23.37Z" fill="#13375B"/>
<path d="M692.171 42.4045C691.246 44.1469 689.694 45.1112 688.704 44.5588C687.714 44.0069 687.661 42.1468 688.585 40.4049C689.51 38.663 691.062 37.6982 692.052 38.2506C693.043 38.8025 693.096 40.6626 692.171 42.4045Z" fill="#F7A491"/>
<path d="M670.569 38.9774C670.955 41.019 670.177 42.8908 668.831 43.1586C667.485 43.427 666.08 41.9889 665.693 39.9477C665.307 37.9066 666.084 36.0348 667.431 35.7665C668.777 35.4986 670.182 36.9362 670.569 38.9774Z" fill="#F7A491"/>
<path d="M683.162 46.9324L675.863 46.5652C675.863 46.5652 675.887 49.2658 679.093 49.5174C683.001 49.8243 683.162 46.9324 683.162 46.9324Z" fill="white"/>
<path d="M683.162 46.9324L675.863 46.5652C675.863 46.5652 675.887 49.2658 679.093 49.5174C683.001 49.8243 683.162 46.9324 683.162 46.9324Z" fill="white"/>
<path d="M660.61 101.988C660.61 101.988 652.994 85.5971 651.838 79.2362C650.682 72.8758 656.302 64.8902 662.189 65.405C668.076 65.9199 676.903 94.2199 676.903 94.2199L660.61 101.988Z" fill="#96D9C9"/>
</g>
<path d="M295.061 203.129C301.83 175.296 284.078 147.404 255.411 140.831C226.745 134.259 198.018 151.495 191.249 179.329C184.48 207.163 202.232 235.055 230.899 241.627C259.565 248.199 288.292 230.963 295.061 203.129Z" fill="white"/>
<path d="M393.119 325.332C393.119 340.81 380.197 353.357 364.255 353.357C348.315 353.357 335.392 340.81 335.392 325.332C335.392 309.854 348.315 297.307 364.255 297.307C380.197 297.307 393.119 309.855 393.119 325.332Z" fill="white"/>
<path d="M619.615 392.464C650.684 390.96 674.614 365.286 673.065 335.12C671.516 304.953 645.074 281.718 614.005 283.222C582.936 284.726 559.006 310.4 560.555 340.566C562.104 370.733 588.546 393.968 619.615 392.464Z" fill="white"/>
<path d="M992.178 335.028C992.178 354.716 975.74 370.678 955.462 370.678C935.184 370.678 918.745 354.717 918.745 335.028C918.745 315.339 935.184 299.377 955.462 299.377C975.74 299.377 992.178 315.339 992.178 335.028Z" fill="white"/>
<path d="M692.519 246.703C692.519 254.943 699.399 261.623 707.885 261.623C716.372 261.623 723.252 254.943 723.252 246.703C723.252 238.463 716.372 231.782 707.885 231.782C699.399 231.782 692.519 238.463 692.519 246.703Z" fill="white"/>
<path d="M772.33 88.3677C772.33 93.2718 776.424 97.2466 781.475 97.2466C786.525 97.2466 790.62 93.2718 790.62 88.3677C790.62 83.4641 786.525 79.4888 781.475 79.4888C776.424 79.4888 772.33 83.4641 772.33 88.3677Z" fill="white"/>
<path d="M866.423 324.584C869.21 318.051 866.015 310.562 859.287 307.857C852.559 305.151 844.846 308.253 842.06 314.785C839.273 321.317 842.468 328.806 849.195 331.512C855.923 334.218 863.636 331.116 866.423 324.584Z" fill="white"/>
<path d="M444.749 69.2163C444.749 76.1966 450.577 81.8549 457.766 81.8549C464.955 81.8549 470.783 76.1961 470.783 69.2163C470.783 62.2355 464.955 56.5771 457.766 56.5771C450.577 56.5771 444.749 62.2355 444.749 69.2163Z" fill="white"/>
<path d="M221.929 77.8701C226.851 73.0916 226.851 65.344 221.929 60.5654C217.007 55.7869 209.028 55.7869 204.107 60.5654C199.185 65.344 199.185 73.0916 204.107 77.8701C209.028 82.6487 217.007 82.6487 221.929 77.8701Z" fill="white"/>
<path d="M345.901 245.727C345.901 253.967 352.781 260.646 361.267 260.646C369.754 260.646 376.634 253.966 376.634 245.727C376.634 237.486 369.754 230.806 361.267 230.806C352.781 230.806 345.901 237.486 345.901 245.727Z" fill="white"/>
<path d="M457.766 375.349C457.766 383.589 464.646 390.269 473.132 390.269C481.619 390.269 488.499 383.589 488.499 375.349C488.499 367.108 481.619 360.429 473.132 360.429C464.646 360.429 457.766 367.109 457.766 375.349Z" fill="white"/>
<path d="M526.78 230.806C526.78 236.153 531.244 240.487 536.751 240.487C542.258 240.487 546.723 236.153 546.723 230.806C546.723 225.459 542.258 221.125 536.751 221.125C531.244 221.125 526.78 225.459 526.78 230.806Z" fill="white"/>
<path d="M243.151 327.812C243.151 333.336 247.763 337.814 253.452 337.814C259.141 337.814 263.752 333.336 263.752 327.812C263.752 322.288 259.141 317.811 253.452 317.811C247.763 317.811 243.151 322.288 243.151 327.812Z" fill="white"/>
<path d="M58.7704 339.063C67.236 338.478 73.6109 331.341 73.0092 323.122C72.4074 314.902 65.057 308.712 56.5914 309.297C48.1259 309.881 41.751 317.018 42.3527 325.237C42.9544 333.457 50.3049 339.647 58.7704 339.063Z" fill="white"/>
<path d="M112.695 165.467C112.695 173.707 119.575 180.387 128.062 180.387C136.549 180.387 143.429 173.707 143.429 165.467C143.429 157.227 136.549 150.547 128.062 150.547C119.576 150.547 112.695 157.227 112.695 165.467Z" fill="white"/>
<path d="M1008.51 297.308C1008.51 305.548 1015.39 312.228 1023.88 312.228C1032.36 312.228 1039.24 305.548 1039.24 297.308C1039.24 289.068 1032.36 282.388 1023.88 282.388C1015.39 282.388 1008.51 289.068 1008.51 297.308Z" fill="white"/>
<mask id="mask1_56_54010" style="mask-type:luminance" maskUnits="userSpaceOnUse" x="405" y="129" width="95" height="93">
<path d="M499.251 182.751C503.407 157.887 486.017 134.46 460.409 130.424C434.801 126.389 410.673 143.274 406.517 168.138C402.361 193.002 419.751 216.429 445.359 220.464C470.966 224.5 495.095 207.615 499.251 182.751Z" fill="white"/>
</mask>
<g mask="url(#mask1_56_54010)">
<path d="M436.602 147.256C449.468 140.621 464.464 146.565 465.586 163.994C466.708 181.424 454.042 187.567 441.877 186.414C429.713 185.26 417.754 154.571 436.602 147.256Z" fill="#13375B"/>
<path d="M444.366 193.567C444.366 200.43 450.097 205.995 457.166 205.995C464.234 205.995 469.965 200.43 469.965 193.567C469.965 186.703 464.234 181.139 457.166 181.139C450.096 181.139 444.366 186.703 444.366 193.567Z" fill="#13375B"/>
<path d="M429.694 200.699L385.986 199.239C385.986 199.239 351.923 188.902 350.869 188.617C349.815 188.33 344.595 175.091 343.213 176.222C341.83 177.354 346.231 182.851 344.455 183.842C342.678 184.832 326.052 179.539 326.081 180.85C326.135 183.302 336.13 184.481 335.942 185.633C335.753 186.785 325.63 183.433 324.629 185.243C323.628 187.052 334.514 187.516 334.809 188.433C335.104 189.352 324.502 189.37 325.286 191.309C325.712 192.362 334.716 191.064 334.47 192.375C334.225 193.687 327.484 195.749 328.092 196.914C328.699 198.078 333.516 194.427 337.167 194.917C340.818 195.408 343.723 193.872 349.289 196.355C354.853 198.838 373.422 209.888 385.92 211.144C398.417 212.399 426.024 215.249 426.024 215.249L429.694 200.699Z" fill="#F29383"/>
<path d="M438.015 198.76C461.949 199.842 440.905 219.303 440.905 219.303L405.54 214.429C404.476 207.581 406.292 199.41 406.38 197.587C413.722 197.147 432.121 198.493 438.015 198.76Z" fill="#C24C32"/>
<path d="M456.518 195.041C456.518 195.041 466.804 194.863 472.271 200.663C477.739 206.463 463.677 251.662 462.683 259.043C461.689 266.424 467.751 286.051 467.751 286.051C467.751 286.051 435.285 292.409 426.005 286.433C426.005 286.433 425.011 233.355 426.005 228.083C427 222.81 435.285 201.368 437.273 199.259C439.261 197.15 456.518 195.041 456.518 195.041Z" fill="#F47458"/>
<path d="M451.917 177.07C451.917 177.07 451.989 177.466 452.117 178.139C452.734 181.373 455.107 192.1 456.71 195.049C458.647 198.612 450.077 209.979 441.83 208.592C439.374 208.179 443.905 198.148 443.687 197.086C443.27 195.052 442.705 192.277 442.127 189.432C441.8 187.827 441.47 186.2 441.16 184.67C440.278 180.324 439.558 176.77 439.558 176.77L451.917 177.07Z" fill="#F7A491"/>
<path d="M452.117 178.14C451.989 177.466 451.917 177.07 451.917 177.07L439.557 176.77C439.557 176.77 440.277 180.324 441.159 184.67C441.468 186.191 441.796 187.809 442.121 189.405C444.028 189.132 446.023 188.23 448.021 186.526C450.201 184.669 451.63 182.439 452.492 180.056C452.34 179.296 452.213 178.641 452.117 178.14Z" fill="#F47458"/>
<path d="M443.598 149.73C443.598 149.73 449.424 149.075 453.075 153.671C456.727 158.267 460.663 172.48 451.592 180.208C442.521 187.935 433.558 179.188 432.229 169.914C430.9 160.64 430.383 149.395 443.598 149.73Z" fill="#F7A491"/>
<path d="M429.546 169.777C430.628 171.825 432.446 172.959 433.605 172.311C434.764 171.661 434.826 169.475 433.744 167.426C432.661 165.378 430.844 164.243 429.684 164.893C428.525 165.542 428.462 167.729 429.546 169.777Z" fill="#F7A491"/>
<path d="M442.947 148.21C442.947 148.21 450.73 161.726 456.298 162.351C461.865 162.976 462.596 170.158 462.596 170.158C462.596 170.158 460.606 153.609 455.094 150.417C449.581 147.225 442.947 148.21 442.947 148.21Z" fill="#13375B"/>
<path d="M454.837 165.747C454.384 168.147 455.295 170.349 456.871 170.663C458.448 170.979 460.093 169.288 460.546 166.888C460.998 164.487 460.088 162.286 458.511 161.971C456.935 161.656 455.29 163.347 454.837 165.747Z" fill="#F7A491"/>
<path d="M442.717 240.856C442.717 240.856 467.847 228.355 473.385 221.694C478.923 215.033 477.709 202.273 470.571 199.209C463.433 196.145 434.397 224.378 434.397 224.378L442.717 240.856Z" fill="#C24C32"/>
</g>
<mask id="mask2_56_54010" style="mask-type:luminance" maskUnits="userSpaceOnUse" x="521" y="56" width="52" height="50">
<path d="M521.378 80.8133C521.378 94.404 532.725 105.421 546.723 105.421C560.72 105.421 572.067 94.404 572.067 80.8133C572.067 67.2225 560.72 56.2056 546.723 56.2056C532.725 56.2056 521.378 67.2225 521.378 80.8133Z" fill="white"/>
</mask>
<g mask="url(#mask2_56_54010)">
<path d="M555.498 65.6034C548.557 62.0233 540.466 65.2301 539.86 74.6345C539.255 84.0389 546.089 87.3533 552.652 86.7309C559.217 86.1085 565.669 69.5499 555.498 65.6034Z" fill="#13375B"/>
<path d="M544.044 80.9853C544.044 82.7546 542.566 84.1886 540.744 84.1886C538.922 84.1886 537.445 82.7546 537.445 80.9853C537.445 79.216 538.922 77.7815 540.744 77.7815C542.566 77.7815 544.044 79.216 544.044 80.9853Z" fill="#13375B"/>
<path d="M547.34 84.017C547.34 85.7868 545.863 87.2208 544.042 87.2208C542.22 87.2208 540.742 85.7868 540.742 84.017C540.742 82.2477 542.22 80.8132 544.042 80.8132C545.863 80.8132 547.34 82.2477 547.34 84.017Z" fill="#13375B"/>
<path d="M551.668 86.3185C551.668 88.0878 550.191 89.5223 548.369 89.5223C546.547 89.5223 545.07 88.0878 545.07 86.3185C545.07 84.5492 546.547 83.1152 548.369 83.1152C550.191 83.1147 551.668 84.5492 551.668 86.3185Z" fill="#13375B"/>
<path d="M542.598 75.7057C542.598 77.475 541.121 78.9095 539.299 78.9095C537.477 78.9095 535.999 77.475 535.999 75.7057C535.999 73.9365 537.477 72.502 539.299 72.502C541.121 72.502 542.598 73.9365 542.598 75.7057Z" fill="#13375B"/>
<path d="M543.732 70.2028C543.732 71.9721 542.254 73.4061 540.432 73.4061C538.61 73.4061 537.133 71.9721 537.133 70.2028C537.133 68.4335 538.61 66.999 540.432 66.999C542.254 66.999 543.732 68.4335 543.732 70.2028Z" fill="#13375B"/>
<path d="M547.544 66.7011C547.544 68.4704 546.067 69.9049 544.245 69.9049C542.423 69.9049 540.946 68.4704 540.946 66.7011C540.946 64.9318 542.423 63.4978 544.245 63.4978C546.067 63.4973 547.544 64.9318 547.544 66.7011Z" fill="#13375B"/>
<path d="M552.594 65.2457C552.594 67.0155 551.117 68.4495 549.295 68.4495C547.472 68.4495 545.995 67.015 545.995 65.2457C545.995 63.477 547.472 62.043 549.295 62.043C551.117 62.043 552.594 63.4765 552.594 65.2457Z" fill="#13375B"/>
<path d="M557.849 65.6459C557.849 67.4157 556.371 68.8497 554.549 68.8497C552.728 68.8497 551.25 67.4157 551.25 65.6459C551.25 63.8766 552.728 62.4426 554.549 62.4426C556.371 62.4426 557.849 63.8766 557.849 65.6459Z" fill="#13375B"/>
<path d="M561.764 69.6481C561.764 71.4174 560.287 72.8514 558.465 72.8514C556.643 72.8514 555.166 71.4174 555.166 69.6481C555.166 67.8788 556.643 66.4443 558.465 66.4443C560.287 66.4443 561.764 67.8788 561.764 69.6481Z" fill="#13375B"/>
<path d="M561.662 79.8535C561.662 81.6227 560.185 83.0567 558.362 83.0567C556.54 83.0567 555.063 81.6227 555.063 79.8535C555.063 78.0837 556.54 76.6497 558.362 76.6497C560.185 76.6497 561.662 78.0842 561.662 79.8535Z" fill="#13375B"/>
<path d="M558.365 84.6559C558.365 86.4252 556.887 87.8597 555.065 87.8597C553.243 87.8597 551.766 86.4252 551.766 84.6559C551.766 82.8866 553.243 81.4526 555.065 81.4526C556.887 81.4526 558.365 82.8866 558.365 84.6559Z" fill="#13375B"/>
<path d="M563.001 74.4508C563.001 76.2206 561.524 77.6546 559.702 77.6546C557.88 77.6546 556.403 76.2206 556.403 74.4508C556.403 72.6816 557.88 71.2476 559.702 71.2476C561.524 71.2471 563.001 72.6816 563.001 74.4508Z" fill="#13375B"/>
<path d="M553.83 85.8571C553.83 87.6264 552.353 89.0609 550.531 89.0609C548.709 89.0609 547.232 87.6264 547.232 85.8571C547.232 84.0878 548.709 82.6533 550.531 82.6533C552.353 82.6533 553.83 84.0878 553.83 85.8571Z" fill="#13375B"/>
<path d="M559.226 94.4385L582.809 93.6508C582.809 93.6508 601.188 88.0741 601.757 87.9199C602.326 87.7652 605.142 80.6221 605.888 81.2323C606.634 81.843 604.259 84.8089 605.218 85.3441C606.177 85.8782 615.147 83.0224 615.131 83.7295C615.102 85.0524 609.71 85.6885 609.811 86.3099C609.912 86.9312 615.374 85.1229 615.915 86.0993C616.455 87.0753 610.582 87.3254 610.422 87.8205C610.262 88.316 615.984 88.3262 615.56 89.3726C615.33 89.9402 610.472 89.2397 610.604 89.9473C610.737 90.6555 614.375 91.7679 614.047 92.3963C613.719 93.0248 611.12 91.0542 609.15 91.319C607.18 91.5837 605.612 90.7554 602.61 92.095C599.607 93.4347 589.588 99.3969 582.845 100.074C576.102 100.752 561.207 102.289 561.207 102.289L559.226 94.4385Z" fill="#F29383"/>
<path d="M554.736 93.392C541.823 93.9764 553.177 104.476 553.177 104.476L572.258 101.847C572.833 98.152 571.852 93.743 571.805 92.7595C567.844 92.5221 557.917 93.248 554.736 93.392Z" fill="#C24C32"/>
<path d="M544.754 91.3858C544.754 91.3858 539.204 91.2899 536.253 94.4187C533.303 97.5474 540.89 121.935 541.426 125.918C541.962 129.901 538.692 140.49 538.692 140.49C538.692 140.49 556.209 143.92 561.216 140.696C561.216 140.696 561.752 112.058 561.216 109.213C560.679 106.368 556.209 94.7991 555.136 93.6614C554.064 92.5231 544.754 91.3858 544.754 91.3858Z" fill="#F47458"/>
<path d="M547.236 81.6887C547.236 81.6887 547.198 81.9027 547.128 82.2664C546.795 84.0108 545.515 89.7986 544.65 91.3898C543.605 93.3123 548.229 99.4454 552.679 98.6967C554.004 98.4741 551.559 93.0622 551.677 92.4885C551.902 91.3913 552.207 89.8944 552.519 88.3595C552.694 87.4936 552.873 86.6156 553.04 85.7903C553.516 83.4448 553.904 81.5273 553.904 81.5273L547.236 81.6887Z" fill="#BF7154"/>
<path d="M547.128 82.2664C547.198 81.9027 547.236 81.6887 547.236 81.6887L553.904 81.5273C553.904 81.5273 553.516 83.4448 553.04 85.7903C552.874 86.6105 552.697 87.4835 552.522 88.3448C551.492 88.1977 550.417 87.7107 549.338 86.7911C548.162 85.7898 547.391 84.5856 546.926 83.3007C547.007 82.8903 547.076 82.5368 547.128 82.2664Z" fill="#A85D42"/>
<path d="M551.724 66.9381C551.724 66.9381 548.581 66.5845 546.611 69.0645C544.641 71.5444 542.517 79.213 547.411 83.3826C552.305 87.5522 557.142 82.8327 557.859 77.8282C558.576 72.8247 558.854 66.7575 551.724 66.9381Z" fill="#BF7154"/>
<path d="M559.306 77.754C558.722 78.8593 557.742 79.4715 557.116 79.1205C556.491 78.7705 556.457 77.5907 557.041 76.4854C557.625 75.3801 558.606 74.7683 559.232 75.1183C559.857 75.4688 559.891 76.6492 559.306 77.754Z" fill="#BF7154"/>
<path d="M552.076 66.1178C552.076 66.1178 547.877 73.4106 544.873 73.7479C541.868 74.0847 541.474 77.9596 541.474 77.9596C541.474 77.9596 542.549 69.031 545.522 67.3084C548.496 65.5868 552.076 66.1178 552.076 66.1178Z" fill="#13375B"/>
<path d="M545.66 75.5798C545.904 76.8749 545.412 78.0628 544.562 78.2328C543.712 78.4022 542.825 77.4907 542.58 76.1951C542.336 74.9001 542.827 73.7122 543.678 73.5422C544.528 73.3728 545.416 74.2848 545.66 75.5798Z" fill="#BF7154"/>
<path d="M552.199 116.105C552.199 116.105 538.641 109.361 535.652 105.767C532.665 102.173 533.319 95.2876 537.171 93.635C541.022 91.9818 556.688 107.215 556.688 107.215L552.199 116.105Z" fill="#C24C32"/>
</g>
<mask id="mask3_56_54010" style="mask-type:luminance" maskUnits="userSpaceOnUse" x="764" y="141" width="103" height="100">
<path d="M832.132 237.669C858.551 228.671 872.454 200.583 863.187 174.932C853.92 149.281 824.991 135.781 798.573 144.779C772.155 153.777 758.251 181.865 767.518 207.516C776.785 233.167 805.714 246.667 832.132 237.669Z" fill="white"/>
</mask>
<g mask="url(#mask3_56_54010)">
<path d="M832.937 160.802C822.116 155.248 805.875 158.15 801.658 178.867C799.145 191.208 792.893 204.175 792.893 204.175C809.276 211.277 826.899 211.577 841.03 209.182C841.03 209.182 853.279 168.696 832.937 160.802Z" fill="#F47458"/>
<path d="M840.392 218.479L887.562 216.902C887.562 216.902 924.323 205.748 925.461 205.438C926.599 205.13 932.232 190.842 933.723 192.063C935.215 193.283 930.466 199.217 932.384 200.286C934.302 201.355 952.244 195.643 952.212 197.057C952.154 199.703 941.368 200.976 941.571 202.219C941.774 203.462 952.699 199.845 953.78 201.798C954.86 203.75 943.112 204.251 942.793 205.242C942.474 206.232 953.917 206.252 953.07 208.345C952.61 209.481 942.893 208.08 943.158 209.495C943.423 210.911 950.698 213.137 950.042 214.394C949.387 215.651 944.188 211.709 940.248 212.239C936.308 212.768 933.173 211.111 927.167 213.79C921.161 216.47 901.122 228.395 887.634 229.751C874.147 231.106 844.353 234.182 844.353 234.182L840.392 218.479Z" fill="#F29383"/>
<path d="M831.412 216.385C805.583 217.553 828.293 238.556 828.293 238.556L866.459 233.296C867.608 225.905 865.647 217.087 865.552 215.12C857.63 214.644 837.774 216.097 831.412 216.385Z" fill="#C5DBFC"/>
<path d="M811.444 212.372C811.444 212.372 800.343 212.18 794.443 218.438C788.542 224.697 803.717 273.477 804.79 281.443C805.863 289.409 799.321 310.59 799.321 310.59C799.321 310.59 834.359 317.451 844.372 311.002C844.372 311.002 845.446 253.72 844.372 248.03C843.299 242.34 834.359 219.199 832.212 216.923C830.067 214.647 811.444 212.372 811.444 212.372Z" fill="#9BC1F9"/>
<path d="M816.409 192.977C816.409 192.977 816.332 193.404 816.193 194.132C815.529 197.622 812.967 209.198 811.237 212.381C809.147 216.226 818.395 228.493 827.296 226.996C829.946 226.551 825.057 215.726 825.292 214.579C825.741 212.384 826.351 209.389 826.976 206.319C827.328 204.587 827.684 202.831 828.019 201.18C828.971 196.489 829.748 192.654 829.748 192.654L816.409 192.977Z" fill="#F7A491"/>
<path d="M816.193 194.131C816.332 193.404 816.409 192.976 816.409 192.976L829.748 192.653C829.748 192.653 828.971 196.489 828.019 201.18C827.686 202.821 827.331 204.567 826.981 206.29C824.923 205.995 822.77 205.021 820.613 203.182C818.261 201.179 816.719 198.771 815.789 196.2C815.953 195.379 816.09 194.672 816.193 194.131Z" fill="#F5866E"/>
<path d="M825.387 163.471C825.387 163.471 819.1 162.764 815.159 167.725C811.218 172.685 806.971 188.024 816.76 196.363C826.549 204.703 836.223 195.263 837.657 185.254C839.091 175.246 839.649 163.11 825.387 163.471Z" fill="#F7A491"/>
<path d="M840.553 185.107C839.384 187.317 837.423 188.541 836.172 187.841C834.921 187.14 834.854 184.78 836.023 182.569C837.191 180.359 839.152 179.135 840.404 179.835C841.654 180.536 841.721 182.895 840.553 185.107Z" fill="#F7A491"/>
<path d="M826.091 161.831C826.091 161.831 817.691 176.418 811.682 177.092C805.674 177.767 804.884 185.517 804.884 185.517C804.884 185.517 807.033 167.657 812.982 164.212C818.93 160.769 826.091 161.831 826.091 161.831Z" fill="#F47458"/>
<path d="M813.258 180.758C813.747 183.348 812.763 185.723 811.062 186.063C809.361 186.403 807.587 184.579 807.098 181.989C806.609 179.399 807.591 177.023 809.293 176.683C810.994 176.343 812.769 178.167 813.258 180.758Z" fill="#F7A491"/>
<path d="M826.337 261.816C826.337 261.816 799.218 248.325 793.241 241.136C787.265 233.947 788.574 220.175 796.277 216.869C803.981 213.563 835.317 244.032 835.317 244.032L826.337 261.816Z" fill="#C5DBFC"/>
</g>
<mask id="mask4_56_54010" style="mask-type:luminance" maskUnits="userSpaceOnUse" x="920" y="299" width="71" height="70">
<path d="M955.305 368.164C974.717 368.164 990.453 352.884 990.453 334.036C990.453 315.188 974.717 299.909 955.305 299.909C935.893 299.909 920.156 315.188 920.156 334.036C920.156 352.884 935.893 368.164 955.305 368.164Z" fill="white"/>
</mask>
<g mask="url(#mask4_56_54010)">
<path d="M943.134 312.943C952.761 307.978 963.982 312.426 964.822 325.468C965.661 338.51 956.183 343.107 947.081 342.244C937.978 341.381 929.03 318.417 943.134 312.943Z" fill="#F7CC7F"/>
<path d="M948.942 347.596C948.942 352.732 953.231 356.895 958.521 356.895C963.81 356.895 968.098 352.732 968.098 347.596C968.098 342.46 963.81 338.296 958.521 338.296C953.231 338.296 948.942 342.459 948.942 347.596Z" fill="#F7CC7F"/>
<path d="M937.964 352.933L905.258 351.84C905.258 351.84 879.77 344.106 878.981 343.892C878.192 343.677 874.287 333.771 873.252 334.618C872.218 335.464 875.51 339.578 874.181 340.319C872.851 341.06 860.411 337.1 860.432 338.08C860.473 339.915 867.952 340.798 867.811 341.659C867.67 342.521 860.095 340.013 859.346 341.367C858.597 342.721 866.742 343.068 866.964 343.755C867.185 344.442 859.251 344.456 859.838 345.907C860.157 346.694 866.894 345.722 866.71 346.705C866.526 347.686 861.482 349.229 861.937 350.101C862.391 350.972 865.996 348.239 868.728 348.606C871.46 348.973 873.634 347.825 877.798 349.682C881.962 351.54 895.856 359.809 905.208 360.748C914.559 361.689 935.217 363.821 935.217 363.821L937.964 352.933Z" fill="#F29383"/>
<path d="M944.19 351.481C962.099 352.291 946.354 366.853 946.354 366.853L919.891 363.206C919.095 358.082 920.453 351.968 920.52 350.603C926.013 350.275 939.78 351.282 944.19 351.481Z" fill="#96D9C9"/>
<path d="M958.036 348.699C958.036 348.699 965.732 348.566 969.823 352.905C973.914 357.245 963.392 391.067 962.649 396.59C961.905 402.113 966.441 416.799 966.441 416.799C966.441 416.799 942.148 421.556 935.204 417.085C935.204 417.085 934.46 377.368 935.204 373.423C935.949 369.477 942.148 353.433 943.636 351.855C945.123 350.277 958.036 348.699 958.036 348.699Z" fill="#50BFA5"/>
<path d="M954.593 335.251C954.593 335.251 954.646 335.548 954.742 336.052C955.204 338.471 956.979 346.498 958.178 348.705C959.628 351.372 953.216 359.876 947.044 358.839C945.207 358.53 948.597 351.024 948.434 350.229C948.122 348.707 947.699 346.631 947.266 344.502C947.022 343.301 946.775 342.083 946.542 340.939C945.883 337.687 945.344 335.027 945.344 335.027L954.593 335.251Z" fill="#F7A491"/>
<path d="M954.742 336.052C954.646 335.547 954.593 335.25 954.593 335.25L945.344 335.026C945.344 335.026 945.883 337.686 946.543 340.938C946.774 342.076 947.02 343.286 947.263 344.481C948.69 344.277 950.183 343.601 951.678 342.327C953.309 340.937 954.378 339.268 955.023 337.486C954.909 336.917 954.814 336.426 954.742 336.052Z" fill="#F47458"/>
<path d="M948.368 314.793C948.368 314.793 952.727 314.303 955.46 317.742C958.192 321.181 961.137 331.817 954.35 337.599C947.562 343.381 940.855 336.836 939.861 329.896C938.866 322.957 938.48 314.543 948.368 314.793Z" fill="#F7A491"/>
<path d="M937.853 329.794C938.663 331.327 940.022 332.176 940.89 331.69C941.757 331.204 941.803 329.567 940.994 328.035C940.183 326.502 938.823 325.653 937.956 326.139C937.089 326.625 937.042 328.261 937.853 329.794Z" fill="#F7A491"/>
<path d="M947.881 313.656C947.881 313.656 953.704 323.77 957.871 324.237C962.037 324.704 962.583 330.079 962.583 330.079C962.583 330.079 961.094 317.696 956.969 315.308C952.845 312.919 947.881 313.656 947.881 313.656Z" fill="#F7CC7F"/>
<path d="M956.778 326.779C956.439 328.575 957.121 330.222 958.3 330.458C959.48 330.694 960.71 329.429 961.049 327.633C961.388 325.836 960.707 324.189 959.527 323.953C958.348 323.718 957.116 324.983 956.778 326.779Z" fill="#F7A491"/>
<path d="M947.709 382.981C947.709 382.981 966.513 373.627 970.657 368.643C974.801 363.659 973.892 354.111 968.551 351.818C963.21 349.526 941.483 370.651 941.483 370.651L947.709 382.981Z" fill="#96D9C9"/>
</g>
<mask id="mask5_56_54010" style="mask-type:luminance" maskUnits="userSpaceOnUse" x="587" y="165" width="60" height="58">
<path d="M645.73 198.875C648.498 183.36 637.788 168.604 621.81 165.916C605.831 163.228 590.633 173.627 587.865 189.141C585.096 204.656 595.806 219.412 611.785 222.1C627.764 224.788 642.961 214.39 645.73 198.875Z" fill="white"/>
</mask>
<g mask="url(#mask5_56_54010)">
<path d="M565.247 212.495C565.247 212.495 575.613 209.805 575.735 210.616C578.408 228.378 579.566 234.797 579.943 234.973C581.224 235.572 597.581 220.266 600.542 219.182C601.958 218.663 603.516 218.704 605.008 218.709C608.565 218.72 609.267 218.715 609.267 218.715C609.368 218.718 609.397 218.72 609.397 218.72L609.465 221.967C605.556 225.567 601.715 295.098 600.942 295.083C600.078 295.065 583.827 294.981 584.599 293.664C584.599 293.664 588.528 272.252 591.619 258.136C592.656 253.397 595.554 243.491 595.554 243.491C591.582 245.554 576.059 253.468 573.54 252.539C565.704 249.647 565.247 212.495 565.247 212.495Z" fill="#F47458"/>
<path d="M595.953 254.778C597.736 246.26 602.297 232.284 603.631 229.115C606.697 221.837 609.279 218.752 609.279 218.752L621.416 219.1C621.416 219.1 621.697 219.176 621.782 219.189C622.773 219.342 622.803 253.66 622.269 266.492C621.734 279.323 618.801 296.023 618.801 296.023L615.338 295.704C615.281 297.435 615.241 298.575 615.241 298.575C597.68 301.581 587.876 293.175 587.876 293.175C587.876 293.175 593.642 265.821 595.953 254.778Z" fill="#466EB6"/>
<path d="M621.416 219.1C621.416 219.1 633.418 218.251 636.482 216.81C638.34 215.936 653.453 203.463 653.453 203.463L652.406 171.122L663.244 170.043C663.244 170.043 669.841 205.651 667.996 209.615C666.091 213.707 643.939 230.921 639.614 238.255C637.122 242.48 639.486 299.848 638.678 300.378C632.909 303.482 608.663 306.23 609.04 304.427C619.458 254.587 621.416 219.1 621.416 219.1Z" fill="#F47458"/>
<path d="M620.791 208.718L621.416 219.1C621.416 219.1 613.925 232.427 609.847 230.7C606.425 229.251 609.156 219.19 609.156 219.19C609.156 219.19 609.679 216.886 610.42 214.234C610.937 212.382 611.355 210.379 611.281 208.919C611.1 205.37 620.791 208.718 620.791 208.718Z" fill="#F7A491"/>
<path d="M611.281 208.919C611.1 205.37 620.791 208.718 620.791 208.718L620.852 209.733C620.541 210.214 620.196 210.623 619.813 210.943C617.289 213.041 613.583 214.052 610.541 213.792C611.001 212.068 611.35 210.264 611.281 208.919Z" fill="#F47458"/>
<path d="M610.777 185.257C610.777 185.257 606.937 191.211 606.772 196.144C606.606 201.077 607.771 204.41 607.771 204.41L620.199 189.192L610.777 185.257Z" fill="#184655"/>
<path d="M605.416 195.17C605.282 196.899 606.012 198.362 607.047 198.438C608.082 198.514 609.03 197.174 609.164 195.445C609.299 193.716 608.568 192.252 607.533 192.177C606.498 192.101 605.55 193.441 605.416 195.17Z" fill="#F48C7F"/>
<path d="M624.415 191.472C624.707 191.404 625.066 205.741 620.877 209.223C616.689 212.706 609.248 213.192 606.981 209.849C604.473 206.152 606.354 190.987 612.632 187.617C618.912 184.246 624.415 191.472 624.415 191.472Z" fill="#F7A491"/>
<path d="M625.261 182.555C628.603 185.253 630.239 187.245 632.584 192.134C635.467 198.144 630.244 204.581 625.789 207.199C621.335 209.818 621.041 212.854 621.041 212.854L620.804 210.993C620.696 210.313 620.707 209.758 620.815 209.276C620.943 208.707 621.196 208.236 621.417 207.745C621.78 206.936 622.943 204.167 623.406 203.432C624.627 201.495 624.867 201.076 624.19 199.281C623.668 197.899 624.145 194.812 623.335 192.534L617.214 191.414C617.214 191.414 613.381 190.622 611.399 188.516C605.709 182.47 616.442 175.294 625.261 182.555Z" fill="#184655"/>
<path d="M622.784 200.887C622.076 202.479 622.276 204.094 623.229 204.493C624.182 204.892 625.528 203.925 626.235 202.333C626.943 200.741 626.744 199.126 625.79 198.727C624.837 198.327 623.491 199.295 622.784 200.887Z" fill="#F7A491"/>
</g>
<mask id="mask6_56_54010" style="mask-type:luminance" maskUnits="userSpaceOnUse" x="12" y="186" width="90" height="87">
<path d="M68.161 270.935C91.7918 264.841 105.86 241.3 99.5842 218.356C93.3079 195.412 69.0634 181.752 45.4326 187.846C21.8018 193.94 7.73314 217.48 14.0094 240.424C20.2857 263.369 44.5302 277.029 68.161 270.935Z" fill="white"/>
</mask>
<g mask="url(#mask6_56_54010)">
<path d="M-20.9142 257.314C-20.9142 257.314 -5.28586 253.258 -5.10196 254.481C-1.07249 281.26 0.674507 290.937 1.24134 291.202C3.17327 292.105 27.8339 269.03 32.2975 267.394C34.4327 266.612 36.781 266.674 39.03 266.681C44.3927 266.698 45.4512 266.691 45.4512 266.691C45.6048 266.696 45.6476 266.698 45.6476 266.698L45.751 271.593C39.8555 277.021 34.0654 381.848 32.8999 381.824C31.5975 381.799 7.09669 381.671 8.26118 379.686C8.26118 379.686 14.1839 347.404 18.8429 326.122C20.4071 318.978 24.7766 304.043 24.7766 304.043C18.787 307.153 -4.61506 319.086 -8.41258 317.684C-20.2257 313.326 -20.9142 257.314 -20.9142 257.314Z" fill="#F7CC7F"/>
<path d="M25.3795 321.061C28.0669 308.22 34.9431 287.148 36.9554 282.371C41.5774 271.399 45.4689 266.747 45.4689 266.747L63.7679 267.273C63.7679 267.273 64.1911 267.386 64.3191 267.406C65.8148 267.636 65.8597 319.376 65.0536 338.721C64.2475 358.067 59.8257 383.243 59.8257 383.243L54.6046 382.762C54.5184 385.371 54.4588 387.09 54.4588 387.09C27.9833 391.623 13.2023 378.95 13.2023 378.95C13.2023 378.95 21.8949 337.71 25.3795 321.061Z" fill="#F7CC7F"/>
<path d="M63.7685 267.272C63.7685 267.272 81.8638 265.991 86.4821 263.819C89.2828 262.502 112.069 243.696 112.069 243.696L110.491 194.938L126.83 193.312C126.83 193.312 136.775 246.996 133.994 252.972C131.122 259.142 97.7247 285.093 91.2038 296.15C87.447 302.521 91.0115 389.01 89.7927 389.809C81.0964 394.49 44.5417 398.633 45.1101 395.914C60.8163 320.773 63.7685 267.272 63.7685 267.272Z" fill="#F7CC7F"/>
<path d="M62.8259 251.62L63.7684 267.272C63.7684 267.272 52.474 287.364 46.3261 284.761C41.1677 282.576 45.2844 267.407 45.2844 267.407C45.2844 267.407 46.0733 263.932 47.1902 259.936C47.9707 257.144 48.6003 254.124 48.4885 251.923C48.2157 246.572 62.8259 251.62 62.8259 251.62Z" fill="#BF7154"/>
<path d="M48.4886 251.923C48.2164 246.572 62.826 251.62 62.826 251.62L62.9185 253.149C62.4499 253.875 61.9296 254.493 61.3517 254.973C57.5459 258.138 51.9596 259.661 47.3732 259.268C48.0659 256.67 48.5915 253.949 48.4886 251.923Z" fill="#A3573C"/>
<path d="M47.7284 216.25C47.7284 216.25 41.9389 225.226 41.6892 232.663C41.44 240.099 43.1964 245.125 43.1964 245.125L61.9337 222.182L47.7284 216.25Z" fill="#184655"/>
<path d="M39.6459 231.194C39.4438 233.802 40.5445 236.008 42.105 236.122C43.6655 236.236 45.0949 234.216 45.297 231.609C45.4992 229.002 44.3985 226.796 42.838 226.681C41.277 226.567 39.8481 228.588 39.6459 231.194Z" fill="#A3573C"/>
<path d="M68.2896 225.619C68.7305 225.516 69.2712 247.131 62.9567 252.382C56.6416 257.632 45.424 258.365 42.0063 253.325C38.226 247.751 41.0612 224.888 50.5266 219.807C59.9924 214.726 68.2896 225.619 68.2896 225.619Z" fill="#BF7154"/>
<path d="M69.5637 212.175C74.6026 216.243 77.07 219.245 80.6042 226.615C84.9497 235.677 77.0762 245.382 70.3604 249.329C63.6452 253.277 63.2011 257.854 63.2011 257.854L62.8438 255.049C62.6818 254.023 62.6975 253.188 62.8615 252.459C63.0543 251.603 63.4367 250.892 63.7695 250.152C64.317 248.933 66.0698 244.758 66.7677 243.65C68.6082 240.729 68.9697 240.098 67.9489 237.392C67.1632 235.309 67.8821 230.654 66.6611 227.219L57.432 225.531C57.432 225.531 51.6534 224.336 48.6656 221.163C40.0879 212.047 56.269 201.227 69.5637 212.175Z" fill="#184655"/>
<path d="M65.8305 239.813C64.7643 242.213 65.0652 244.648 66.5018 245.25C67.9385 245.852 69.9681 244.394 71.0344 241.993C72.1002 239.593 71.7998 237.159 70.3631 236.557C68.9259 235.954 66.8968 237.412 65.8305 239.813Z" fill="#BF7154"/>
</g>
<mask id="mask7_56_54010" style="mask-type:luminance" maskUnits="userSpaceOnUse" x="275" y="21" width="74" height="72">
<path d="M275.668 57.1344C275.668 76.7294 292.028 92.6145 312.21 92.6145C332.391 92.6145 348.751 76.7294 348.751 57.1344C348.751 37.5398 332.391 21.6548 312.21 21.6548C292.028 21.6548 275.668 37.5393 275.668 57.1344Z" fill="white"/>
</mask>
<g mask="url(#mask7_56_54010)">
<path d="M376.345 80.1776C376.345 80.1776 363.445 76.8303 363.293 77.8392C359.967 99.9426 358.525 107.931 358.057 108.149C356.462 108.895 336.107 89.8478 332.423 88.4981C330.661 87.8523 328.722 87.9036 326.866 87.9091C322.439 87.9233 321.566 87.9167 321.566 87.9167C321.439 87.9213 321.403 87.9233 321.403 87.9233L321.318 91.9636C326.185 96.4441 330.964 182.97 331.925 182.952C333.001 182.93 353.224 182.825 352.263 181.187C352.263 181.187 347.374 154.54 343.529 136.974C342.237 131.077 338.63 118.749 338.63 118.749C343.574 121.316 362.891 131.165 366.026 130.009C375.777 126.411 376.345 80.1776 376.345 80.1776Z" fill="#13375B"/>
<path d="M338.133 132.796C335.915 122.196 330.239 104.803 328.578 100.86C324.763 91.8033 321.551 87.9634 321.551 87.9634L306.446 88.3971C306.446 88.3971 306.097 88.4914 305.991 88.5077C304.757 88.6974 304.719 131.405 305.385 147.374C306.05 163.342 309.7 184.122 309.7 184.122L314.01 183.725C314.081 185.879 314.13 187.298 314.13 187.298C335.984 191.039 348.184 180.578 348.184 180.578C348.184 180.578 341.009 146.539 338.133 132.796Z" fill="#466EB6"/>
<path d="M306.446 88.3974C306.446 88.3974 291.51 87.3403 287.698 85.5477C285.386 84.4601 266.577 68.9378 266.577 68.9378L267.88 28.6921L254.394 27.3499C254.394 27.3499 246.185 71.6622 248.48 76.5942C250.851 81.687 278.418 103.108 283.8 112.235C286.901 117.493 283.959 188.883 284.964 189.543C292.143 193.406 322.316 196.826 321.847 194.582C308.882 132.558 306.446 88.3974 306.446 88.3974Z" fill="#13375B"/>
<path d="M307.224 75.4774L306.446 88.3971C306.446 88.3971 315.769 104.981 320.844 102.832C325.102 101.029 321.704 88.5082 321.704 88.5082C321.704 88.5082 321.052 85.6407 320.131 82.342C319.486 80.0366 318.966 77.5444 319.059 75.7275C319.283 71.3114 307.224 75.4774 307.224 75.4774Z" fill="#F7A491"/>
<path d="M319.058 75.7281C319.283 71.3115 307.224 75.4775 307.224 75.4775L307.148 76.74C307.534 77.3391 307.964 77.8489 308.441 78.2456C311.583 80.8579 316.194 82.1149 319.98 81.7912C319.407 79.6466 318.973 77.4005 319.058 75.7281Z" fill="#F47458"/>
<path d="M319.685 46.282C319.685 46.282 324.464 53.6914 324.67 59.8301C324.875 65.9689 323.426 70.1166 323.426 70.1166L307.96 51.179L319.685 46.282Z" fill="#F47458"/>
<path d="M326.357 58.6185C326.524 60.7702 325.615 62.5913 324.327 62.6856C323.039 62.78 321.859 61.1121 321.692 58.9604C321.525 56.8086 322.433 54.9876 323.722 54.8927C325.011 54.7984 326.19 56.4662 326.357 58.6185Z" fill="#F48C7F"/>
<path d="M302.714 54.0162C302.35 53.9315 301.904 71.772 307.116 76.1065C312.328 80.4404 321.588 81.045 324.409 76.8851C327.529 72.2838 325.189 53.4126 317.376 49.2186C309.562 45.0242 302.714 54.0162 302.714 54.0162Z" fill="#F7A491"/>
<path d="M301.662 42.9193C297.503 46.2768 295.466 48.7552 292.549 54.8391C288.962 62.3191 295.461 70.3296 301.005 73.5881C306.548 76.8467 306.914 80.6252 306.914 80.6252L307.209 78.3091C307.343 77.4625 307.33 76.7726 307.194 76.1721C307.036 75.4655 306.719 74.8786 306.445 74.2673C305.993 73.2609 304.547 69.8152 303.97 68.9006C302.451 66.4892 302.153 65.9682 302.996 63.7348C303.644 62.0157 303.051 58.1733 304.058 55.3378L311.676 53.9444C311.676 53.9444 316.446 52.9593 318.912 50.3388C325.993 42.8138 312.636 33.8826 301.662 42.9193Z" fill="#F47458"/>
<path d="M304.744 65.7318C305.623 67.7132 305.376 69.7224 304.189 70.2195C303.003 70.7161 301.328 69.5129 300.448 67.5316C299.568 65.5503 299.817 63.5405 301.003 63.0439C302.189 62.5468 303.864 63.7505 304.744 65.7318Z" fill="#F7A491"/>
</g>
<mask id="mask8_56_54010" style="mask-type:luminance" maskUnits="userSpaceOnUse" x="467" y="276" width="43" height="43">
<path d="M496.729 316.547C507.674 312.145 512.871 299.961 508.337 289.334C503.804 278.708 491.256 273.661 480.311 278.063C469.366 282.465 464.169 294.648 468.702 305.275C473.236 315.902 485.784 320.948 496.729 316.547Z" fill="white"/>
</mask>
<g mask="url(#mask8_56_54010)">
<path d="M450.852 310.833C450.852 310.833 458.425 308.869 458.514 309.461C460.466 322.435 461.312 327.124 461.587 327.252C462.523 327.69 474.472 316.51 476.634 315.717C477.668 315.339 478.806 315.368 479.896 315.372C482.495 315.38 483.008 315.376 483.008 315.376C483.082 315.379 483.103 315.38 483.103 315.38L483.153 317.752C480.296 320.382 477.491 371.172 476.927 371.16C476.295 371.148 464.424 371.086 464.988 370.125C464.988 370.125 467.858 354.483 470.115 344.172C470.873 340.71 472.991 333.474 472.991 333.474C470.088 334.981 458.749 340.762 456.91 340.083C451.185 337.973 450.852 310.833 450.852 310.833Z" fill="#F7CC7F"/>
<path d="M473.283 341.72C474.585 335.498 477.917 325.289 478.891 322.974C481.131 317.658 483.016 315.404 483.016 315.404L491.883 315.659C491.883 315.659 492.088 315.714 492.15 315.723C492.875 315.835 492.897 340.904 492.506 350.277C492.115 359.65 489.973 371.848 489.973 371.848L487.443 371.615C487.401 372.88 487.372 373.712 487.372 373.712C474.545 375.909 467.383 369.769 467.383 369.769C467.383 369.769 471.594 349.787 473.283 341.72Z" fill="#466EB6"/>
<path d="M491.882 315.659C491.882 315.659 500.65 315.038 502.887 313.986C504.245 313.348 515.285 304.236 515.285 304.236L514.52 280.612L522.437 279.823C522.437 279.823 527.255 305.835 525.908 308.73C524.516 311.719 508.334 324.293 505.175 329.651C503.355 332.737 505.082 374.642 504.491 375.03C500.278 377.297 482.566 379.305 482.841 377.987C490.453 341.581 491.882 315.659 491.882 315.659Z" fill="#F7CC7F"/>
<path d="M491.426 308.075L491.883 315.658C491.883 315.658 486.41 325.393 483.431 324.132C480.932 323.073 482.927 315.724 482.927 315.724C482.927 315.724 483.309 314.04 483.85 312.104C484.229 310.751 484.534 309.288 484.479 308.222C484.347 305.629 491.426 308.075 491.426 308.075Z" fill="#F7A491"/>
<path d="M484.479 308.221C484.347 305.629 491.426 308.074 491.426 308.074L491.47 308.815C491.243 309.167 490.991 309.466 490.711 309.699C488.868 311.232 486.161 311.971 483.938 311.781C484.274 310.522 484.529 309.203 484.479 308.221Z" fill="#F47458"/>
<path d="M484.111 290.937C484.111 290.937 481.306 295.286 481.185 298.89C481.065 302.493 481.915 304.928 481.915 304.928L490.993 293.812L484.111 290.937Z" fill="#13375B"/>
<path d="M480.195 298.179C480.096 299.442 480.63 300.511 481.386 300.566C482.142 300.621 482.834 299.642 482.933 298.379C483.031 297.116 482.497 296.048 481.742 295.992C480.985 295.936 480.293 296.915 480.195 298.179Z" fill="#F48C7F"/>
<path d="M494.073 295.477C494.287 295.427 494.549 305.9 491.489 308.444C488.429 310.988 482.994 311.343 481.338 308.901C479.507 306.201 480.881 295.123 485.466 292.661C490.052 290.199 494.073 295.477 494.073 295.477Z" fill="#F7A491"/>
<path d="M494.691 288.963C497.132 290.934 498.328 292.389 500.04 295.96C502.146 300.35 498.331 305.052 495.077 306.965C491.823 308.878 491.608 311.096 491.608 311.096L491.435 309.737C491.357 309.239 491.364 308.835 491.444 308.482C491.537 308.067 491.723 307.723 491.884 307.364C492.149 306.773 492.998 304.751 493.336 304.214C494.228 302.798 494.403 302.492 493.909 301.182C493.528 300.172 493.876 297.917 493.285 296.252L488.813 295.435C488.813 295.435 486.013 294.856 484.565 293.318C480.409 288.901 488.249 283.659 494.691 288.963Z" fill="#13375B"/>
<path d="M492.882 302.354C492.365 303.517 492.511 304.697 493.207 304.988C493.904 305.28 494.886 304.574 495.404 303.411C495.92 302.248 495.775 301.068 495.078 300.777C494.381 300.484 493.398 301.191 492.882 302.354Z" fill="#F7A491"/>
</g>
<mask id="mask9_56_54010" style="mask-type:luminance" maskUnits="userSpaceOnUse" x="732" y="307" width="53" height="52">
<path d="M732.496 333.08C732.496 346.957 744.081 358.207 758.374 358.207C772.665 358.207 784.251 346.957 784.251 333.08C784.251 319.203 772.665 307.954 758.374 307.954C744.081 307.954 732.496 319.203 732.496 333.08Z" fill="white"/>
</mask>
<g mask="url(#mask9_56_54010)">
<path d="M803.792 349.399C803.792 349.399 794.657 347.028 794.549 347.743C792.194 363.396 791.172 369.053 790.841 369.208C789.712 369.736 775.297 356.247 772.688 355.291C771.439 354.834 770.067 354.87 768.752 354.874C765.617 354.884 764.999 354.879 764.999 354.879C764.909 354.883 764.884 354.884 764.884 354.884L764.823 357.745C768.27 360.918 771.654 422.193 772.335 422.18C773.096 422.165 787.418 422.09 786.737 420.93C786.737 420.93 783.275 402.06 780.551 389.62C779.637 385.444 777.083 376.714 777.083 376.714C780.584 378.531 794.264 385.506 796.483 384.687C803.389 382.139 803.792 349.399 803.792 349.399Z" fill="#F47458"/>
<path d="M776.732 386.661C775.161 379.155 771.142 366.838 769.965 364.045C767.263 357.631 764.988 354.912 764.988 354.912L754.292 355.219C754.292 355.219 754.044 355.285 753.969 355.298C753.095 355.432 753.069 385.676 753.541 396.984C754.012 408.293 756.597 423.009 756.597 423.009L759.649 422.728C759.699 424.254 759.734 425.258 759.734 425.258C775.21 427.907 783.85 420.5 783.85 420.5C783.85 420.5 778.768 396.393 776.732 386.661Z" fill="#466EB6"/>
<path d="M754.292 355.219C754.292 355.219 743.715 354.471 741.015 353.201C739.377 352.431 726.058 341.438 726.058 341.438L726.981 312.937L717.43 311.987C717.43 311.987 711.616 343.368 713.242 346.86C714.921 350.467 734.443 365.637 738.254 372.1C740.451 375.824 738.367 426.38 739.079 426.847C744.162 429.583 765.531 432.005 765.198 430.415C756.017 386.493 754.292 355.219 754.292 355.219Z" fill="#F47458"/>
<path d="M754.843 346.07L754.292 355.219C754.292 355.219 760.894 366.964 764.487 365.443C767.503 364.165 765.097 355.298 765.097 355.298C765.097 355.298 764.635 353.268 763.982 350.932C763.526 349.299 763.158 347.534 763.224 346.247C763.382 343.12 754.843 346.07 754.843 346.07Z" fill="#F7A491"/>
<path d="M763.224 346.247C763.383 343.119 754.843 346.069 754.843 346.069L754.788 346.964C755.062 347.388 755.366 347.749 755.704 348.03C757.929 349.88 761.194 350.77 763.876 350.541C763.47 349.022 763.163 347.432 763.224 346.247Z" fill="#F47458"/>
<path d="M763.668 325.395C763.668 325.395 767.052 330.643 767.197 334.989C767.343 339.336 766.316 342.274 766.316 342.274L755.364 328.863L763.668 325.395Z" fill="#184655"/>
<path d="M768.392 334.131C768.511 335.655 767.866 336.944 766.954 337.011C766.042 337.078 765.207 335.897 765.089 334.373C764.971 332.849 765.614 331.56 766.526 331.493C767.439 331.426 768.274 332.607 768.392 334.131Z" fill="#F48C7F"/>
<path d="M751.648 330.872C751.391 330.811 751.074 343.446 754.766 346.515C758.457 349.585 765.015 350.013 767.012 347.067C769.222 343.808 767.564 330.444 762.031 327.474C756.499 324.504 751.648 330.872 751.648 330.872Z" fill="#F7A491"/>
<path d="M750.904 323.013C747.958 325.391 746.517 327.146 744.45 331.454C741.91 336.751 746.512 342.424 750.438 344.732C754.364 347.039 754.624 349.715 754.624 349.715L754.831 348.075C754.927 347.475 754.917 346.987 754.821 346.562C754.709 346.061 754.485 345.645 754.29 345.213C753.971 344.5 752.946 342.06 752.538 341.412C751.462 339.705 751.251 339.336 751.848 337.754C752.307 336.536 751.887 333.815 752.6 331.808L757.995 330.821C757.995 330.821 761.373 330.123 763.119 328.268C768.134 322.938 758.676 316.614 750.904 323.013Z" fill="#184655"/>
<path d="M753.086 339.168C753.709 340.572 753.533 341.995 752.694 342.347C751.854 342.699 750.667 341.846 750.044 340.443C749.422 339.039 749.597 337.617 750.437 337.265C751.277 336.913 752.463 337.765 753.086 339.168Z" fill="#F7A491"/>
</g>
<mask id="mask10_56_54010" style="mask-type:luminance" maskUnits="userSpaceOnUse" x="564" y="283" width="106" height="103">
<path d="M665.464 353.824C676.595 327.732 663.834 297.819 636.962 287.011C610.089 276.203 579.281 288.593 568.15 314.685C557.019 340.777 569.78 370.69 596.652 381.498C623.525 392.306 654.333 379.915 665.464 353.824Z" fill="white"/>
</mask>
<g mask="url(#mask10_56_54010)">
<path d="M603.767 395.019C603.767 395.019 615.633 379.628 619.966 372.345C624.299 365.062 617.016 369.803 609.575 367.887C606.758 367.162 609.093 352.226 603.767 357.436C595.029 365.985 586.27 384.505 586.27 384.505L603.767 395.019Z" fill="#13375B"/>
<path d="M605.049 356.415C612.723 354.156 627.102 352.975 627.102 352.975C627.102 352.975 636.115 351.552 639.043 352.168C643.354 353.074 651.446 353.489 652.2 371.655C652.739 384.655 654.263 416.818 655.792 438.538L600.913 441.772C603.396 408.356 597.783 358.553 605.049 356.415Z" fill="#47637F"/>
<path d="M619.599 337.45L628.218 352.84C628.218 352.84 621.725 364.076 615.584 364.376C610.431 364.627 611.241 357.23 611.241 357.23C611.241 357.23 610.43 347.667 607.957 343.383C605.484 339.098 619.599 337.45 619.599 337.45Z" fill="#F7A491"/>
<path d="M618.813 343.614C616.879 345.617 613.646 348.258 610.143 349.938C609.633 347.537 608.923 345.057 607.956 343.383C606.815 341.406 609.208 339.991 612.115 339.04C616.01 338.035 619.599 337.45 619.599 337.45L621.255 340.408C620.834 341.446 619.457 342.947 618.813 343.614Z" fill="#F47458"/>
<path d="M615.171 311.525C615.526 311.279 624.028 330.518 620.34 337.44C616.652 344.362 606.913 348.932 601.992 345.594C596.551 341.903 590.599 320.365 597.162 312.496C603.724 304.628 615.171 311.525 615.171 311.525Z" fill="#F7A491"/>
<path d="M597.213 300.962C603.898 300.506 609.071 303.152 611.034 304.345C614.001 303.899 618.346 304.385 624.235 309.777C631.475 316.406 630.344 326.223 625.815 332.114C621.287 338.005 622.801 342.986 622.801 342.986L621.147 340.645C619.912 338.866 619.042 336.862 618.677 334.744C618.459 333.473 618.348 332.066 618.561 330.827C619.119 327.559 614.199 326.817 612.285 324.742C610.81 323.144 609.55 318.916 607.185 316.254L604.74 314.396C604.74 314.396 599.759 312.408 596.003 314.363C592.248 316.319 588.636 301.548 597.213 300.962Z" fill="#F7CC7F"/>
<path d="M613.573 328.227C614.23 330.677 615.944 332.365 617.401 331.997C618.858 331.629 619.507 329.345 618.849 326.895C618.192 324.445 616.479 322.756 615.022 323.125C613.565 323.492 612.916 325.777 613.573 328.227Z" fill="#F7A491"/>
<path d="M606.64 336.171L598.592 337.916C598.592 337.916 599.46 340.844 603.021 340.176C607.365 339.361 606.64 336.171 606.64 336.171Z" fill="white"/>
<path d="M632.77 397.715C632.77 397.715 647.181 379.935 650.7 372.953C654.219 365.971 650.458 354.918 643.473 353.61C636.488 352.302 616.261 384.199 616.261 384.199L632.77 397.715Z" fill="#13375B"/>
</g>
<mask id="mask11_56_54010" style="mask-type:luminance" maskUnits="userSpaceOnUse" x="81" y="54" width="63" height="61">
<path d="M81.6669 84.6293C81.6669 101.268 95.5593 114.757 112.696 114.757C129.833 114.757 143.725 101.269 143.725 84.6293C143.725 67.99 129.833 54.5012 112.696 54.5012C95.5588 54.5012 81.6669 67.99 81.6669 84.6293Z" fill="white"/>
</mask>
<g mask="url(#mask11_56_54010)">
<path d="M120.365 120.426C120.365 120.426 113.374 111.358 110.821 107.066C108.268 102.776 112.56 105.569 116.943 104.44C118.602 104.013 117.226 95.2125 120.365 98.2829C125.513 103.319 130.674 114.231 130.674 114.231L120.365 120.426Z" fill="#96D9C9"/>
<path d="M119.61 97.6807C115.088 96.3502 106.616 95.6537 106.616 95.6537C106.616 95.6537 101.306 94.8152 99.5808 95.1779C97.0413 95.7121 92.2731 95.956 91.829 106.66C91.5119 114.319 90.6133 133.269 89.7132 146.066L122.047 147.971C120.584 128.283 123.891 98.9407 119.61 97.6807Z" fill="#50BFA5"/>
<path d="M111.037 86.5073L105.959 95.5744C105.959 95.5744 109.784 102.195 113.403 102.371C116.439 102.52 115.962 98.1614 115.962 98.1614C115.962 98.1614 116.439 92.5263 117.897 90.0028C119.354 87.4787 111.037 86.5073 111.037 86.5073Z" fill="#F7A491"/>
<path d="M111.5 90.1382C112.64 91.3191 114.545 92.8748 116.609 93.8645C116.909 92.4498 117.327 90.9889 117.897 90.0028C118.569 88.8376 117.159 88.0042 115.446 87.4437C113.152 86.8512 111.037 86.5073 111.037 86.5073L110.061 88.2497C110.309 88.8615 111.121 89.7451 111.5 90.1382Z" fill="#F47458"/>
<path d="M113.646 71.2329C113.437 71.0878 108.428 82.4234 110.601 86.5011C112.774 90.5789 118.512 93.2724 121.411 91.3053C124.617 89.1307 128.124 76.4403 124.257 71.8051C120.391 67.1688 113.646 71.2329 113.646 71.2329Z" fill="#F7A491"/>
<path d="M124.227 65.0096C120.288 64.7407 117.24 66.3 116.084 67.0031C114.336 66.7403 111.775 67.0264 108.306 70.2038C104.041 74.1097 104.707 79.8938 107.375 83.3644C110.043 86.835 109.151 89.77 109.151 89.77L110.125 88.3903C110.853 87.3428 111.366 86.1609 111.581 84.9141C111.709 84.1654 111.775 83.3365 111.649 82.6061C111.32 80.6806 114.219 80.2438 115.347 79.0208C116.216 78.0789 116.959 75.5883 118.351 74.0204L119.791 72.9252C119.791 72.9252 122.726 71.754 124.939 72.9059C127.152 74.0574 129.28 65.3545 124.227 65.0096Z" fill="#184655"/>
<path d="M114.587 81.0731C114.2 82.5162 113.19 83.5104 112.332 83.2943C111.474 83.0772 111.091 81.7315 111.479 80.2883C111.866 78.8447 112.876 77.85 113.734 78.0671C114.593 78.2832 114.974 79.6289 114.587 81.0731Z" fill="#F7A491"/>
<path d="M118.672 85.7539L123.414 86.7816C123.414 86.7816 122.903 88.5068 120.804 88.1131C118.245 87.6328 118.672 85.7539 118.672 85.7539Z" fill="white"/>
<path d="M103.277 122.014C103.277 122.014 94.7861 111.538 92.7131 107.424C90.6396 103.311 92.8557 96.7989 96.9708 96.0284C101.086 95.2579 113.004 114.051 113.004 114.051L103.277 122.014Z" fill="#96D9C9"/>
</g>
<mask id="mask12_56_54010" style="mask-type:luminance" maskUnits="userSpaceOnUse" x="193" y="142" width="100" height="98">
<path d="M246.684 239.315C274.055 237.426 294.667 214.351 292.721 187.775C290.776 161.199 267.01 141.187 239.639 143.076C212.268 144.965 191.656 168.04 193.602 194.616C195.547 221.192 219.313 241.204 246.684 239.315Z" fill="white"/>
</mask>
<g mask="url(#mask12_56_54010)">
<path d="M272.795 210.763C273.704 210.799 276.193 211.609 279.834 218.289C284.484 226.82 291.279 252.592 291.279 252.592L270.995 259.926L268.389 254.547L264.098 213.134C264.098 213.134 272.543 210.752 272.795 210.763Z" fill="#8CA5D2"/>
<path d="M245.983 207.048C251.783 207.055 266.134 208.698 272.795 210.764C272.795 210.764 277.689 251.6 268.389 282.63C266.308 289.576 270.111 311.424 270.111 311.424L210.008 310.654C210.008 310.654 217.128 257.835 214.446 249.304C211.764 240.773 211.7 211.039 211.7 211.039C211.7 211.039 212.112 210.977 225.204 208.78C231.31 207.755 239.79 207.04 245.983 207.048Z" fill="#466EB6"/>
<path d="M211.046 215.578C216.665 213.531 219.414 262.694 220.172 282.929C230.123 283.858 247.469 282.936 251.788 282.621C253.819 282.473 258.502 280.807 260.523 280.55C262.593 280.288 264.47 280.15 265.487 280.322C265.861 280.385 276.234 284.504 277.121 285.407C278.221 286.527 281.197 289.352 280.695 290.575C280.193 291.796 274.973 287.17 274.973 287.17L272.422 285.781C275.598 288.793 281.654 292.759 280.782 294.204C279.931 295.613 274.467 291.587 270.573 288.843C273.913 291.772 278.063 297.014 277.107 297.831C276.247 298.565 271.528 292.496 266.483 290.749C264.614 290.102 262.751 291.895 261.28 292.112C260.199 292.271 258.531 292.61 257.471 292.318L252.009 290.814C250.149 290.978 250.102 292.047 248.223 292.435C246.042 292.886 242.463 293.36 239.686 294.019C223.691 297.813 218.355 299.576 213.458 299.573C198.625 299.563 197.765 220.416 211.046 215.578Z" fill="#F7A491"/>
<path d="M200.381 261.733C199.329 241.005 199.483 215.458 211.45 211.1C216.171 209.38 224.495 219.721 222.998 262.154C216.61 262.666 207.231 263.078 200.381 261.733Z" fill="#8CA5D2"/>
<path d="M259.468 157.173C257.758 156.614 256.074 155.982 254.448 155.221C252.61 154.361 250.228 153.353 248.724 153.127C245.557 152.653 240.117 152.969 237.112 156.133C233.369 160.076 226.718 156.846 228.058 177.494C229.575 200.865 242.959 198.3 243.284 197.904C243.609 197.509 255.221 182.952 255.221 182.952C255.221 182.952 259.281 191.576 259.281 191.259C259.28 190.954 280.012 163.89 259.468 157.173Z" fill="#0E2E35"/>
<path d="M249.307 199.63L250.463 207.981C250.463 207.981 253.051 220.013 249.721 222.332C246.391 224.652 235.561 207.638 235.561 207.638L236.705 186.477L249.307 199.63Z" fill="#F7A491"/>
<path d="M236.336 193.336C239.086 200.554 245.637 204.99 250.288 206.711L249.308 199.631L236.705 186.478L236.336 193.336Z" fill="#F47458"/>
<path d="M248.623 163.45C255.679 162.344 262.008 167.853 261.831 174.711C261.755 177.693 261.503 181.414 260.865 185.423C259.331 195.063 252.557 203.552 248.078 202.794C243.598 202.036 232.328 193.72 234.313 180.001C235.539 171.532 241.219 164.611 248.623 163.45Z" fill="#F7A491"/>
<path d="M237.422 181.638C237.043 183.758 235.295 185.233 233.515 184.932C231.736 184.631 230.6 182.668 230.978 180.548C231.356 178.428 233.105 176.954 234.884 177.255C236.663 177.556 237.799 179.518 237.422 181.638Z" fill="#F7A491"/>
<path d="M234.884 177.255C234.884 177.255 240.299 178.562 242.309 175.179C244.319 171.798 251.505 164.499 260.64 167.526C269.775 170.552 252.601 160.168 251.87 160.168C251.139 160.168 242.37 160.11 242.37 160.11C242.37 160.11 235.609 165.509 235.366 166.102C235.122 166.696 233.173 173.163 233.173 173.163L234.884 177.255Z" fill="#0E2E35"/>
<path d="M244.792 191.365L254.646 193.195C254.646 193.195 253.706 196.799 249.349 196.116C244.036 195.284 244.792 191.365 244.792 191.365Z" fill="white"/>
</g>
<mask id="mask13_56_54010" style="mask-type:luminance" maskUnits="userSpaceOnUse" x="337" y="299" width="52" height="51">
<path d="M381.376 342.406C391.46 332.614 391.46 316.739 381.376 306.948C371.291 297.156 354.941 297.156 344.856 306.948C334.772 316.739 334.772 332.614 344.856 342.406C354.941 352.197 371.291 352.197 381.376 342.406Z" fill="white"/>
</mask>
<g mask="url(#mask13_56_54010)">
<path d="M378.529 334.847C379.001 334.866 380.295 335.286 382.188 338.759C384.604 343.193 388.136 356.588 388.136 356.588L377.593 360.4L376.239 357.604L374.008 336.08C374.009 336.08 378.398 334.842 378.529 334.847Z" fill="#FADFAE"/>
<path d="M364.593 332.917C367.608 332.921 375.067 333.774 378.529 334.848C378.529 334.848 381.072 356.072 376.239 372.201C375.157 375.811 377.134 387.166 377.134 387.166L345.896 386.766C345.896 386.766 349.596 359.313 348.202 354.879C346.808 350.445 346.775 334.991 346.775 334.991C346.775 334.991 346.989 334.959 353.793 333.816C356.967 333.284 361.375 332.912 364.593 332.917Z" fill="#F7CC7F"/>
<path d="M346.435 337.35C349.356 336.286 350.785 361.838 351.178 372.356C356.35 372.839 365.366 372.359 367.611 372.196C368.667 372.119 371.101 371.253 372.151 371.12C373.227 370.983 374.202 370.912 374.731 371.001C374.925 371.034 380.316 373.174 380.778 373.644C381.35 374.226 382.896 375.694 382.635 376.329C382.374 376.965 379.661 374.56 379.661 374.56L378.335 373.837C379.986 375.403 383.134 377.465 382.68 378.215C382.238 378.947 379.398 376.855 377.375 375.429C379.111 376.952 381.267 379.676 380.77 380.101C380.324 380.483 377.871 377.328 375.249 376.42C374.277 376.083 373.309 377.016 372.545 377.128C371.983 377.211 371.116 377.387 370.565 377.235L367.726 376.454C366.758 376.538 366.735 377.094 365.758 377.296C364.624 377.53 362.764 377.777 361.32 378.119C353.007 380.091 350.234 381.007 347.689 381.006C339.979 381.002 339.533 339.864 346.435 337.35Z" fill="#F7A491"/>
<path d="M340.892 361.339C340.345 350.566 340.425 337.288 346.645 335.022C349.099 334.128 353.425 339.503 352.647 361.558C349.327 361.823 344.452 362.038 340.892 361.339Z" fill="#FADFAE"/>
<path d="M371.603 306.994C370.714 306.703 369.838 306.375 368.994 305.979C368.039 305.532 366.801 305.008 366.019 304.891C364.373 304.644 361.545 304.809 359.983 306.453C358.038 308.503 354.581 306.824 355.277 317.556C356.066 329.703 363.022 328.37 363.191 328.165C363.359 327.959 369.395 320.393 369.395 320.393C369.395 320.393 371.505 324.875 371.505 324.711C371.505 324.551 382.28 310.485 371.603 306.994Z" fill="#0E2E35"/>
<path d="M366.321 329.061L366.922 333.401C366.922 333.401 368.267 339.655 366.537 340.861C364.806 342.067 359.177 333.223 359.177 333.223L359.771 322.225L366.321 329.061Z" fill="#BF7154"/>
<path d="M359.579 325.789C361.008 329.541 364.413 331.847 366.83 332.741L366.321 329.061L359.771 322.225L359.579 325.789Z" fill="#96482A"/>
<path d="M365.966 310.256C369.633 309.682 372.922 312.545 372.831 316.11C372.791 317.659 372.66 319.594 372.329 321.677C371.532 326.687 368.01 331.099 365.683 330.706C363.355 330.312 357.497 325.99 358.528 318.859C359.165 314.457 362.117 310.86 365.966 310.256Z" fill="#BF7154"/>
<path d="M360.144 319.71C359.947 320.811 359.038 321.578 358.114 321.421C357.189 321.265 356.598 320.245 356.795 319.143C356.991 318.041 357.9 317.275 358.825 317.431C359.75 317.588 360.34 318.608 360.144 319.71Z" fill="#BF7154"/>
<path d="M358.825 317.432C358.825 317.432 361.639 318.11 362.684 316.353C363.729 314.595 367.463 310.802 372.212 312.375C376.96 313.948 368.033 308.551 367.654 308.551C367.274 308.551 362.716 308.52 362.716 308.52C362.716 308.52 359.202 311.327 359.075 311.635C358.948 311.943 357.936 315.305 357.936 315.305L358.825 317.432Z" fill="#0E2E35"/>
<path d="M363.975 324.766L369.096 325.717C369.096 325.717 368.608 327.59 366.343 327.235C363.581 326.802 363.975 324.766 363.975 324.766Z" fill="white"/>
</g>
<mask id="mask14_56_54010" style="mask-type:luminance" maskUnits="userSpaceOnUse" x="821" y="32" width="71" height="69">
<path d="M890.329 76.3043C895.945 58.2944 885.461 39.2738 866.912 33.8206C848.364 28.3673 828.774 38.5466 823.158 56.5565C817.541 74.5664 828.025 93.587 846.574 99.0402C865.123 104.493 884.712 94.3142 890.329 76.3043Z" fill="white"/>
</mask>
<g mask="url(#mask14_56_54010)">
<path d="M828.387 115.673L844.744 117.294C844.744 117.294 845.495 104.274 845.495 98.064C845.495 90.5293 844.834 80.8246 843.897 81.0331C841.266 81.6195 837.724 83.0291 835.615 85.8428C828.317 95.578 828.387 115.673 828.387 115.673Z" fill="#B75742"/>
<path d="M836.423 96.7349C836.08 99.0327 829.793 161.487 829.793 161.487C859.575 175.453 876.008 163.975 876.008 163.975C876.008 163.975 875.034 120.119 876.202 114.149C876.975 110.2 877.938 83.9567 875.302 83.2217C871.919 82.2788 868.042 81.2769 863.814 80.8508C860.206 80.4871 846.188 80.2761 843.68 81.0943C843.68 81.0943 837.864 87.0743 836.423 96.7349Z" fill="#F47458"/>
<path d="M859.832 68.7773L861.752 81.0624C861.752 81.0624 854.741 95.6895 850.556 94.4214C847.044 93.3566 849.205 80.4137 849.205 80.4137C849.205 80.4137 851.119 73.4633 850.545 69.9851C849.971 66.5069 859.832 68.7773 859.832 68.7773Z" fill="#F7A491"/>
<path d="M850.545 69.9863C849.971 66.5076 859.831 68.7785 859.831 68.7785L859.991 69.7971C859.702 70.4788 859.35 71.0627 858.921 71.5096C856.719 73.8115 853.276 75.1942 850.299 75.2982C850.598 73.4224 850.78 71.4122 850.545 69.9863Z" fill="#F47458"/>
<path d="M861.45 51.3974C861.729 51.2995 863.684 65.3894 859.974 69.2663C856.263 73.1437 849.034 74.4123 846.44 71.3587C843.572 67.9814 843.716 52.8375 849.486 48.8495C855.254 44.8615 861.45 51.3974 861.45 51.3974Z" fill="#F7A491"/>
<path d="M851.681 41.3122C856.14 42.1948 859.029 44.8411 860.09 45.9687C862.115 46.2005 864.867 47.2871 867.709 51.8554C871.203 57.4726 868.623 63.6961 864.555 66.7497C860.487 69.8034 860.544 73.3308 860.544 73.3308L859.901 71.5057C859.427 70.124 859.233 68.658 859.391 67.2088C859.487 66.3394 859.679 65.3984 860.049 64.6254C861.027 62.5857 857.948 61.2309 857.084 59.5346C856.42 58.2284 856.387 55.2397 855.339 53.0799L854.088 51.4313C854.088 51.4313 851.202 49.2506 848.377 49.8659C845.554 50.4822 845.96 40.1795 851.681 41.3122Z" fill="#0E2E35"/>
<path d="M857.274 62.0424C857.244 63.7615 858.049 65.1686 859.072 65.1858C860.094 65.2026 860.946 63.8229 860.976 62.1038C861.006 60.3847 860.201 58.9776 859.178 58.9604C858.156 58.9431 857.304 60.3233 857.274 62.0424Z" fill="#F7A491"/>
<path d="M851.248 66.0137L845.655 65.7327C845.655 65.7327 845.674 67.8017 848.13 67.994C851.124 68.2294 851.248 66.0137 851.248 66.0137Z" fill="white"/>
<path d="M905.504 162.148C905.523 162.015 905.525 161.88 905.512 161.746C905.073 157.421 901.375 121.103 900.752 119.558C900.19 118.165 883.602 95.1294 883.602 95.1294L875.449 105.914L891.401 126.574C891.76 127.888 897.515 152.404 897.515 152.404C897.515 152.404 898.695 156.873 899.224 159.55C898.982 160.195 898.746 160.805 898.536 161.305C898.007 162.372 897.384 163.249 896.818 163.987C896.105 164.915 894.926 166.942 894.78 167.485C894.612 168.115 894.307 169.426 894.135 170.217C893.962 171.008 893.727 171.93 893.687 172.359C893.662 172.62 893.385 173.141 893.172 173.51C892.854 174.058 893.397 174.706 894.011 174.507C894.591 174.32 895.043 173.592 895.321 173.138C896.105 171.857 896.524 169.517 896.72 169.641C896.915 169.765 897.602 173.734 897.711 174.182C897.82 174.632 898.645 179.24 899.111 180.082C899.577 180.925 900.193 180.784 900.356 180.256C900.497 179.802 899.842 173.353 899.842 173.353C899.842 173.353 899.761 172.531 900.132 172.788C900.503 173.045 901.109 178.898 901.367 179.755C901.625 180.611 902.214 181.066 902.712 180.377C903.32 179.54 902.276 173.331 902.276 173.331C902.276 173.331 902.159 172.55 902.502 172.623C902.846 172.696 903.276 177.685 903.543 178.117C903.811 178.548 904.485 178.703 904.806 177.983C905.186 177.136 904.204 171.601 904.204 171.601C904.204 171.601 904.253 171.16 904.467 171.306C904.681 171.453 905.361 175.68 905.804 176.071C906.176 176.4 906.486 176.081 906.486 176.081C907.299 175.542 906.053 171.521 906.065 169.522C906.077 167.523 905.122 165.275 905.407 162.895C905.423 162.746 905.473 162.379 905.504 162.148Z" fill="#F8A492"/>
<path d="M896.561 109.718L882.392 118.954C882.392 118.954 874.405 107.416 870.118 103.308C864.748 98.1618 872.074 82.398 875.534 83.2892C883.274 85.2848 896.561 109.718 896.561 109.718Z" fill="#F47458"/>
</g>
<mask id="mask15_56_54010" style="mask-type:luminance" maskUnits="userSpaceOnUse" x="959" y="171" width="61" height="59">
<path d="M1019.5 200.67C1019.5 216.815 1006.02 229.902 989.392 229.902C972.764 229.902 959.284 216.814 959.284 200.67C959.284 184.525 972.764 171.436 989.392 171.436C1006.02 171.436 1019.5 184.525 1019.5 200.67Z" fill="white"/>
</mask>
<g mask="url(#mask15_56_54010)">
<path d="M973.062 224.962C977.268 212.574 981.971 213.102 981.971 213.102L978.334 239.147C975.736 238.457 972.355 236.922 969.76 236.21C970.62 232.294 972.025 228.013 973.062 224.962Z" fill="#47637F"/>
<path d="M974.368 192.749C975.655 184.602 983.247 178.744 991.186 182.697C992.972 183.586 995.389 185.39 996.622 186.927C999.957 191.082 1000.81 196.215 1004.25 200.249C1002.99 201.181 1001.46 202.157 999.636 203.096L997.492 200.32L998.23 203.784C992.9 206.261 985.372 208.304 975.076 208.246C973.783 202.586 973.681 197.095 974.368 192.749Z" fill="#F7CC7F"/>
<path d="M992.735 210.878C992.735 210.878 999.563 210.012 1002.63 213.263C1005.69 216.515 996.749 242.626 996.192 246.765C995.635 250.903 1000.11 261.279 1000.11 261.279C1000.11 261.279 980.582 264.842 975.379 261.492C975.379 261.492 975.069 232.361 975.627 229.404C976.184 226.448 980.829 214.425 981.945 213.243C983.059 212.06 992.735 210.878 992.735 210.878Z" fill="#13375B"/>
<path d="M990.155 200.8C990.155 200.8 990.195 201.023 990.267 201.401C990.613 203.214 991.943 209.228 992.843 210.882C993.928 212.88 989.123 219.253 984.499 218.475C983.122 218.244 985.662 212.619 985.54 212.024C985.307 210.884 984.989 209.328 984.665 207.733C984.482 206.833 984.297 205.92 984.123 205.063C983.629 202.626 983.225 200.633 983.225 200.633L990.155 200.8Z" fill="#F7A491"/>
<path opacity="0.5" d="M990.267 201.401C990.195 201.023 990.155 200.801 990.155 200.801L983.225 200.633C983.225 200.633 983.628 202.626 984.123 205.063C984.296 205.916 984.481 206.823 984.662 207.717C985.732 207.564 986.85 207.058 987.971 206.103C989.193 205.062 989.994 203.811 990.477 202.475C990.392 202.049 990.321 201.682 990.267 201.401Z" fill="#F47458"/>
<path d="M985.491 185.472C985.491 185.472 988.757 185.105 990.805 187.682C992.853 190.259 995.059 198.228 989.973 202.561C984.887 206.894 979.861 201.99 979.116 196.79C978.371 191.589 978.081 185.284 985.491 185.472Z" fill="#F7A491"/>
<path d="M977.611 196.712C978.218 197.86 979.237 198.497 979.887 198.132C980.537 197.768 980.572 196.542 979.965 195.394C979.358 194.246 978.339 193.609 977.689 193.973C977.039 194.338 977.005 195.564 977.611 196.712Z" fill="#F7A491"/>
<path d="M985.126 184.62C985.126 184.62 989.49 192.199 992.611 192.549C995.734 192.899 996.143 196.926 996.143 196.926C996.143 196.926 995.027 187.647 991.937 185.857C988.846 184.068 985.126 184.62 985.126 184.62Z" fill="#F7CC7F"/>
<path d="M991.792 194.452C991.539 195.798 992.049 197.032 992.933 197.209C993.817 197.386 994.739 196.438 994.993 195.092C995.247 193.746 994.736 192.512 993.852 192.335C992.969 192.159 992.047 193.107 991.792 194.452Z" fill="#F7A491"/>
<path d="M987.947 199.341L983.225 200.243C983.225 200.243 983.687 201.964 985.775 201.625C988.322 201.213 987.947 199.341 987.947 199.341Z" fill="white"/>
<path d="M1001.4 212.359C1001.4 212.359 1003.97 213.545 1006.24 218.67C1008.39 223.54 1009.03 247.847 1009.03 247.847L999.633 246.341L996.142 235.131C995.062 230.693 993.847 220.451 998.355 214.462C999.557 212.863 1000.66 211.899 1001.4 212.359Z" fill="#47637F"/>
</g>
<mask id="mask16_56_54010" style="mask-type:luminance" maskUnits="userSpaceOnUse" x="114" y="315" width="72" height="70">
<path d="M185.078 349.762C185.078 368.735 169.237 384.115 149.697 384.115C130.157 384.115 114.316 368.735 114.316 349.762C114.316 330.79 130.156 315.409 149.697 315.409C169.237 315.409 185.078 330.79 185.078 349.762Z" fill="white"/>
</mask>
<g mask="url(#mask16_56_54010)">
<path d="M166.622 344.871C166.826 340.077 166.1 335.344 163.891 330.88C161.99 327.04 157.287 324.861 152.999 324.856C139.382 324.838 137.65 342.308 128.982 349.046C126.334 351.105 123.374 352.782 120.867 355.003C111.613 363.202 115.781 378.379 124.279 385.567C130.176 390.555 139.444 393.389 146.711 389.49C150.505 387.454 153.385 384.071 155.437 380.364C158.349 375.103 160.226 369.032 162.297 363.424C164.502 357.456 166.349 351.242 166.622 344.871Z" fill="#F7CC7F"/>
<path d="M161.529 388.994C161.529 388.994 151.36 378.868 148.742 374.469C146.125 370.071 150.524 372.934 155.018 371.777C156.719 371.339 156.289 361.657 159.505 364.804C164.783 369.967 171.418 378.996 171.418 378.996L161.529 388.994Z" fill="#F47458"/>
<path d="M147.07 360.362C147.07 360.362 137.943 358.613 133.778 361.992C129.613 365.37 134.67 395.408 134.666 400.388C134.662 405.368 131.807 418.373 131.807 418.373C131.807 418.373 159.469 424.138 163.863 416.663C163.863 416.663 165.113 388.183 164.927 384.601C164.741 381.02 160.64 366.373 159.506 364.804C158.372 363.236 147.07 360.362 147.07 360.362Z" fill="#B75742"/>
<path d="M147.012 346.655C147.012 346.655 146.964 346.92 146.878 347.37C146.464 349.534 144.87 356.709 143.793 358.681C142.492 361.065 148.248 368.667 153.789 367.74C155.439 367.463 152.395 360.754 152.541 360.043C152.821 358.683 153.201 356.827 153.59 354.923C153.809 353.85 154.031 352.762 154.239 351.739C154.832 348.832 155.315 346.454 155.315 346.454L147.012 346.655Z" fill="#F7A491"/>
<path d="M146.878 347.37C146.964 346.92 147.012 346.655 147.012 346.655L155.315 346.454C155.315 346.454 154.832 348.832 154.239 351.739C154.032 352.756 153.811 353.838 153.593 354.906C152.311 354.723 150.972 354.119 149.629 352.98C148.165 351.738 147.206 350.246 146.626 348.652C146.729 348.145 146.814 347.706 146.878 347.37Z" fill="#F47458"/>
<path d="M152.601 328.367C152.601 328.367 148.688 327.929 146.235 331.003C143.782 334.077 141.138 343.585 147.231 348.754C153.325 353.923 159.346 348.072 160.238 341.868C161.131 335.665 161.478 328.143 152.601 328.367Z" fill="#F7A491"/>
<path d="M158.702 326.806C158.702 326.806 151.073 337.419 143.809 335.997L143.607 331.469L144.277 329.754L147.957 327.459L153.938 326.136L158.702 326.806Z" fill="#F7CC7F"/>
<path d="M162.041 341.777C161.314 343.147 160.093 343.906 159.314 343.471C158.536 343.037 158.494 341.575 159.221 340.204C159.948 338.834 161.169 338.075 161.948 338.509C162.727 338.944 162.768 340.407 162.041 341.777Z" fill="#F7A491"/>
<path d="M145.051 339.081C145.355 340.687 144.743 342.159 143.685 342.37C142.626 342.581 141.521 341.45 141.217 339.844C140.913 338.238 141.524 336.766 142.583 336.556C143.642 336.345 144.747 337.476 145.051 339.081Z" fill="#F7A491"/>
<path d="M154.956 345.338L149.215 345.05C149.215 345.05 149.234 347.173 151.755 347.371C154.829 347.612 154.956 345.338 154.956 345.338Z" fill="white"/>
<path d="M154.956 345.338L149.215 345.05C149.215 345.05 149.234 347.173 151.755 347.371C154.829 347.612 154.956 345.338 154.956 345.338Z" fill="white"/>
<path d="M137.218 388.639C137.218 388.639 131.228 375.747 130.319 370.745C129.41 365.742 133.83 359.462 138.46 359.866C143.091 360.271 150.032 382.529 150.032 382.529L137.218 388.639Z" fill="#F47458"/>
</g>
</svg>
