<svg width="9" height="13" viewBox="0 0 9 13" fill="none" xmlns="http://www.w3.org/2000/svg">
<path d="M8.24217 0.485474H7.22925V3.91361C7.22925 4.15446 6.98572 4.27355 6.79705 3.97115L6.12802 2.90069L5.45898 3.97115C5.26898 4.27221 5.02679 4.15446 5.02679 3.91361V0.485474H1.63077C0.809826 0.487681 0.145508 1.15381 0.145508 1.97475V10.7659C0.147716 11.5852 0.811398 12.2489 1.63077 12.2511H8.24351C8.42435 12.2508 8.59766 12.1786 8.72521 12.0504C8.85343 11.9229 8.92562 11.7495 8.92592 11.5687V1.16923C8.92519 0.791892 8.6195 0.48621 8.24217 0.485474ZM8.36929 10.4849L1.91711 10.4929C1.77648 10.5026 1.66459 10.6145 1.65488 10.7551C1.64415 10.9107 1.76156 11.0455 1.91711 11.0562H8.36929L8.36795 11.5754C8.36801 11.6063 8.35601 11.6361 8.3345 11.6584C8.31225 11.6799 8.28248 11.6919 8.25154 11.6918H1.63077C1.1227 11.6918 0.710842 11.2799 0.710842 10.7719C0.710842 10.2638 1.1227 9.85196 1.63077 9.85196H8.25154C8.31626 9.8527 8.36855 9.90498 8.36929 9.96971V10.4849Z" fill="#838383"/>
</svg>
