<svg width="26" height="26" viewBox="0 0 26 26" fill="none" xmlns="http://www.w3.org/2000/svg">
<g clip-path="url(#clip0_149_223)">
<path d="M12.349 0.160445C12.5294 0.055169 12.7346 -0.000305176 12.9435 -0.000305176C13.1523 -0.000305176 13.3575 0.055169 13.5379 0.160445L23.3097 5.86096C23.4881 5.96467 23.6361 6.11335 23.7391 6.29216C23.842 6.47097 23.8962 6.67365 23.8963 6.87997V18.281C23.8962 18.4873 23.842 18.69 23.7391 18.8688C23.6361 19.0476 23.4881 19.1963 23.3097 19.3L13.5379 25.0005C13.3575 25.1058 13.1523 25.1613 12.9435 25.1613C12.7346 25.1613 12.5294 25.1058 12.349 25.0005L2.57718 19.3C2.39911 19.1961 2.25139 19.0473 2.14875 18.8685C2.04611 18.6897 1.99213 18.4872 1.99219 18.281V6.87997C1.99213 6.67381 2.04611 6.47123 2.14875 6.29243C2.25139 6.11363 2.39911 5.96486 2.57718 5.86096L12.349 0.160445ZM12.9435 22.6165L21.5375 17.6032V7.55774L12.9435 2.54444L4.35102 7.55774V17.6032L12.9435 22.6165Z" fill="#7D6DD8"/>
<path d="M13.0003 8.64907C12.3498 8.64919 11.7096 8.81071 11.1369 9.11914C10.5642 9.42758 10.077 9.87329 9.71891 10.4163C9.36085 10.9594 9.14313 11.5828 9.08525 12.2307C9.02738 12.8786 9.13117 13.5307 9.38731 14.1286C9.64346 14.7265 10.044 15.2515 10.5529 15.6566C11.0619 16.0616 11.6634 16.3341 12.3035 16.4495C12.9437 16.5649 13.6024 16.5196 14.2208 16.3178C14.8392 16.116 15.3978 15.7639 15.8466 15.2931C15.9535 15.181 16.0814 15.091 16.223 15.0283C16.3647 14.9656 16.5173 14.9314 16.6722 14.9277C16.827 14.9239 16.9811 14.9508 17.1256 15.0066C17.2701 15.0624 17.4022 15.1461 17.5143 15.253C17.6265 15.3599 17.7164 15.4878 17.7791 15.6294C17.8418 15.7711 17.876 15.9237 17.8798 16.0786C17.8835 16.2334 17.8567 16.3875 17.8008 16.532C17.745 16.6765 17.6613 16.8086 17.5544 16.9207C16.6879 17.8299 15.569 18.4588 14.3419 18.7265C13.1148 18.9942 11.8356 18.8884 10.6691 18.4228C9.50268 17.9571 8.50231 17.153 7.79687 16.1138C7.09143 15.0747 6.71322 13.8482 6.71095 12.5922C6.70868 11.3362 7.08245 10.1083 7.78412 9.06663C8.4858 8.02495 9.48326 7.21716 10.648 6.74731C11.8128 6.27746 13.0916 6.16706 14.3196 6.43033C15.5477 6.69359 16.6689 7.31846 17.5387 8.22448C17.7556 8.45011 17.8739 8.75266 17.8677 9.06556C17.8615 9.37846 17.7313 9.67608 17.5057 9.89296C17.28 10.1098 16.9775 10.2282 16.6646 10.222C16.3517 10.2158 16.0541 10.0856 15.8372 9.85993C15.4709 9.47655 15.0306 9.17154 14.543 8.9634C14.0553 8.75525 13.5305 8.64832 13.0003 8.64907Z" fill="#7D6DD8"/>
</g>
<defs>
<clipPath id="clip0_149_223">
<rect width="25.1609" height="25.1609" fill="white" transform="translate(0.419922)"/>
</clipPath>
</defs>
</svg>
