<svg width="26" height="26" viewBox="0 0 26 26" fill="none" xmlns="http://www.w3.org/2000/svg">
<g clip-path="url(#clip0_149_204)">
<path d="M12.3485 0.160445C12.529 0.055169 12.7341 -0.000305176 12.943 -0.000305176C13.1519 -0.000305176 13.357 0.055169 13.5374 0.160445L23.3093 5.86096C23.4876 5.96467 23.6356 6.11335 23.7386 6.29216C23.8415 6.47097 23.8957 6.67365 23.8958 6.87997V18.281C23.8957 18.4873 23.8415 18.69 23.7386 18.8688C23.6356 19.0476 23.4876 19.1963 23.3093 19.3L13.5374 25.0005C13.357 25.1058 13.1519 25.1613 12.943 25.1613C12.7341 25.1613 12.529 25.1058 12.3485 25.0005L2.57669 19.3C2.39862 19.1961 2.25091 19.0473 2.14826 18.8685C2.04562 18.6897 1.99164 18.4872 1.9917 18.281V6.87997C1.99164 6.67381 2.04562 6.47123 2.14826 6.29243C2.25091 6.11363 2.39862 5.96486 2.57669 5.86096L12.3485 0.160445ZM12.943 22.6165L21.537 17.6032V7.55774L12.943 2.54444L4.35053 7.55774V17.6032L12.943 22.6165Z" fill="black"/>
<path d="M12.9998 8.64907C12.3493 8.64919 11.7091 8.81071 11.1364 9.11914C10.5637 9.42758 10.0765 9.87329 9.71842 10.4163C9.36036 10.9594 9.14264 11.5828 9.08476 12.2307C9.02689 12.8786 9.13068 13.5307 9.38682 14.1286C9.64297 14.7265 10.0435 15.2515 10.5524 15.6566C11.0614 16.0616 11.6629 16.3341 12.303 16.4495C12.9432 16.5649 13.602 16.5196 14.2203 16.3178C14.8387 16.116 15.3973 15.7639 15.8461 15.2931C15.953 15.181 16.0809 15.091 16.2226 15.0283C16.3642 14.9656 16.5168 14.9314 16.6717 14.9277C16.8265 14.9239 16.9806 14.9508 17.1251 15.0066C17.2696 15.0624 17.4017 15.1461 17.5138 15.253C17.626 15.3599 17.716 15.4878 17.7787 15.6294C17.8414 15.7711 17.8755 15.9237 17.8793 16.0786C17.883 16.2334 17.8562 16.3875 17.8004 16.532C17.7445 16.6765 17.6608 16.8086 17.5539 16.9207C16.6874 17.8299 15.5685 18.4588 14.3414 18.7265C13.1143 18.9942 11.8351 18.8884 10.6687 18.4228C9.50219 17.9571 8.50182 17.153 7.79638 16.1138C7.09094 15.0747 6.71273 13.8482 6.71046 12.5922C6.70819 11.3362 7.08196 10.1083 7.78364 9.06663C8.48531 8.02495 9.48277 7.21716 10.6475 6.74731C11.8123 6.27746 13.0911 6.16706 14.3192 6.43033C15.5472 6.69359 16.6684 7.31846 17.5382 8.22448C17.7551 8.45011 17.8734 8.75266 17.8672 9.06556C17.8611 9.37846 17.7308 9.67608 17.5052 9.89296C17.2795 10.1098 16.977 10.2282 16.6641 10.222C16.3512 10.2158 16.0536 10.0856 15.8367 9.85993C15.4705 9.47655 15.0302 9.17154 14.5425 8.9634C14.0549 8.75525 13.53 8.64832 12.9998 8.64907Z" fill="black"/>
</g>
<defs>
<clipPath id="clip0_149_204">
<rect width="25.1609" height="25.1609" fill="white" transform="translate(0.419434)"/>
</clipPath>
</defs>
</svg>
