<svg width="12" height="14" viewBox="0 0 12 14" fill="none" xmlns="http://www.w3.org/2000/svg">
<path fill-rule="evenodd" clip-rule="evenodd" d="M10.2825 4.14579L11.1029 3.32575L10.2957 2.51855L9.41802 3.3958C8.61627 2.82787 7.68068 2.47785 6.7029 2.38002V1.21017H7.84472V0.0688477H4.41925V1.21017H5.56107V2.38002C4.58329 2.47785 3.64771 2.82787 2.84595 3.3958L1.96832 2.51855L1.16105 3.32575L1.98145 4.14579C-0.154487 6.40629 -0.0868244 9.95993 2.13362 12.1376C4.35406 14.3152 7.90992 14.3152 10.1304 12.1376C12.3508 9.95993 12.4185 6.40629 10.2825 4.14579ZM6.13203 12.6234C3.60958 12.6234 1.56472 10.5795 1.56472 8.05814C1.56472 5.5368 3.60958 3.49286 6.13203 3.49286C8.65448 3.49286 10.6993 5.5368 10.6993 8.05814C10.6965 10.5783 8.6533 12.6206 6.13203 12.6234ZM6.13196 8.05815V4.63418C8.0238 4.63418 9.55744 6.16714 9.55744 8.05815C9.55744 9.94915 8.0238 11.4821 6.13196 11.4821C4.24012 11.4821 2.70648 9.94915 2.70648 8.05815H6.13196Z" fill="#F07867"/>
</svg>
