<svg width="44" height="44" viewBox="0 0 44 44" fill="none" xmlns="http://www.w3.org/2000/svg">
<g id="fluent:design-ideas-24-filled">
<path id="Vector" d="M10.2209 3.80239C10.4543 3.91462 10.6512 4.09049 10.7891 4.30975C10.9269 4.52901 11 4.78274 11 5.04173C11 6.56339 11.572 7.43973 12.2889 8.50673L12.342 8.58373C12.9507 9.48939 13.75 10.6756 13.75 12.3751C13.75 14.1094 12.8755 15.6384 11.5427 16.5459C11.8929 16.8392 12.2027 17.2004 12.4704 17.6331C13.343 19.0447 13.75 21.2026 13.75 24.3009C13.75 27.4396 13.3284 31.2089 12.6409 34.2192C12.2999 35.7152 11.8764 37.0957 11.3722 38.1316C11.1342 38.6469 10.8189 39.123 10.4372 39.5432C10.0595 39.9301 9.47836 40.3426 8.70836 40.3426C7.93836 40.3426 7.35719 39.9301 6.98136 39.5432C6.59857 39.1238 6.28316 38.6476 6.04636 38.1316C5.54036 37.0939 5.11686 35.7152 4.77586 34.2174C4.06076 30.9591 3.68901 27.6348 3.66669 24.2991C3.66669 21.2007 4.07369 19.0447 4.94636 17.6331C5.19532 17.2233 5.50854 16.8562 5.87402 16.5459C5.19344 16.0838 4.63641 15.4621 4.25162 14.735C3.86683 14.0079 3.666 13.1977 3.66669 12.3751C3.66669 11.7004 3.66669 10.5399 4.36886 9.04206C5.05636 7.57539 6.36352 5.89056 8.76519 3.96739C8.9676 3.80548 9.21166 3.70408 9.46922 3.67489C9.72677 3.64569 9.98734 3.68989 10.2209 3.80239ZM18.3334 27.3479C17.3621 27.185 16.4173 26.8914 15.5247 26.4752C15.5632 25.7309 15.5834 25.0012 15.5834 24.3009C15.5834 23.5566 15.5614 22.8452 15.5137 22.1669C16.3259 22.8361 17.2847 23.3329 18.3334 23.6024V19.2501C18.3334 18.5207 18.6231 17.8212 19.1388 17.3055C19.6545 16.7898 20.354 16.5001 21.0834 16.5001H27.5C27.5002 15.1012 27.1003 13.7315 26.3475 12.5525C25.5946 11.3735 24.5203 10.4345 23.2512 9.84608C21.9822 9.2577 20.5713 9.04457 19.185 9.23182C17.7988 9.41907 16.495 9.9989 15.4275 10.9029C15.1104 9.41056 14.3734 8.31789 13.9022 7.61939L13.8289 7.50939C15.476 6.34825 17.4105 5.66192 19.4212 5.52534C21.4319 5.38876 23.4414 5.80717 25.2305 6.7349C27.0195 7.66264 28.5194 9.06403 29.5662 10.7861C30.6131 12.5082 31.1667 14.4848 31.1667 16.5001H37.5834C38.3127 16.5001 39.0122 16.7898 39.5279 17.3055C40.0436 17.8212 40.3334 18.5207 40.3334 19.2501V35.7501C40.3334 36.4794 40.0436 37.1789 39.5279 37.6946C39.0122 38.2103 38.3127 38.5001 37.5834 38.5001H21.0834C20.354 38.5001 19.6545 38.2103 19.1388 37.6946C18.6231 37.1789 18.3334 36.4794 18.3334 35.7501V27.3479ZM22 27.3479V34.8334H36.6667V20.1667H30.5415C29.8862 22.0162 28.7487 23.657 27.2467 24.9195C25.7447 26.182 23.9328 27.0203 21.9982 27.3479M26.5192 20.1667H22V23.6024C22.9435 23.358 23.8289 22.9284 24.6048 22.3386C25.3806 21.7488 26.0314 21.0105 26.5192 20.1667Z" fill="black"/>
</g>
</svg>
