<svg width="194" height="166" viewBox="0 0 194 166" fill="none" xmlns="http://www.w3.org/2000/svg">
<g id="Group">
<g id="Group_2">
<path id="Vector" d="M85.3896 71.9332C75.3864 72.9819 65.2349 70.7787 55.469 72.039C45.8168 73.6685 35.744 75.9735 28.1416 81.866C24.4606 84.8401 21.3538 88.7458 20.2547 93.1761C19.1104 97.5823 20.6014 102.226 23.1035 106.333C25.6043 110.449 28.8167 114.43 31.8807 118.401C34.9925 122.354 38.1979 126.231 41.4915 130.027C44.7734 133.812 48.1151 137.654 51.5807 141.143C55.0524 144.594 58.916 147.602 63.3108 149.056C67.6992 150.534 72.5899 150.544 77.0648 149.201C81.5846 147.87 85.4928 145.106 88.4513 141.317C91.4478 137.561 93.6224 133.086 95.2701 128.445C96.9295 123.779 97.9302 118.914 98.4545 113.919C99.719 103.957 98.9808 93.7979 98.8117 83.6715C99.836 93.7413 100.959 103.871 100.31 114.103C100.007 119.19 99.1578 124.335 97.633 129.253C96.1088 134.173 93.934 138.953 90.7909 143.174C89.2175 145.266 87.3695 147.231 85.1947 148.818C83.0301 150.401 80.6084 151.607 78.068 152.415C72.9906 154.037 67.4085 154.149 62.2274 152.514C56.9918 150.865 52.6892 147.421 49.0004 143.822C45.3221 140.156 41.9963 136.378 38.6354 132.537C35.3229 128.674 32.1028 124.732 28.9764 120.713C27.4122 118.704 25.8754 116.675 24.3616 114.63C22.8425 112.581 21.3245 110.459 20.0139 108.155C18.6996 105.859 17.5738 103.364 16.9437 100.656C16.3339 97.9551 16.302 95.017 17.0381 92.3154C18.5001 86.8732 22.1907 82.6477 26.3425 79.4878C30.5792 76.3517 35.4236 74.3421 40.3209 72.9583C45.2644 71.6205 50.1793 70.7306 55.269 70.1766C65.535 69.5348 75.3487 72.1258 85.3896 71.9332Z" fill="#D9D8D8"/>
</g>
<g id="Group_3">
<path id="Vector_2" d="M85.3262 72.0093C87.5521 69.0744 89.9511 66.3874 92.4212 63.7747C94.8888 61.1608 97.4133 58.6137 100.031 56.1663C102.636 53.7066 105.336 51.346 108.114 49.0617C110.892 46.7794 113.754 44.5838 116.867 42.6354C114.861 45.7329 112.566 48.5405 110.167 51.2397C107.762 53.9345 105.261 56.5308 102.627 58.9875C100.001 61.4516 97.2588 63.7931 94.4039 66.0027C91.5432 68.2062 88.5718 70.2914 85.3262 72.0093Z" fill="#D9D8D8"/>
</g>
<g id="Group_4">
<path id="Vector_3" d="M116.888 42.8968C115.619 41.5263 114.527 40.1688 113.372 38.64C113.084 38.2045 112.848 37.7289 112.676 37.1685C112.525 36.6159 112.373 35.9205 112.717 35.0654C113.05 34.1998 114.001 33.6342 114.789 33.5725C115.567 33.4918 116.142 33.6337 116.632 33.7439C118.691 34.2242 120.328 35.2476 121.93 36.2338C123.512 37.2585 124.956 38.4149 126.349 39.6114C129.13 42.0141 131.711 44.7354 133.708 48.0363C134.172 48.934 134.71 49.6596 134.918 51.1125C134.96 53.4013 132.856 53.8974 131.802 53.6497C129.658 53.1014 128.407 51.8121 126.891 50.795C128.689 51.051 130.495 51.8948 131.937 51.7709C132.263 51.7313 132.472 51.6193 132.513 51.5279C132.525 51.4699 132.55 51.434 132.556 51.3395C132.557 51.3249 132.566 51.2979 132.566 51.2979C132.535 51.3257 132.512 51.3652 132.501 51.4069C132.498 51.5349 132.459 51.4363 132.453 51.4501C132.297 51.1305 131.789 50.3211 131.274 49.7295C129.111 47.151 126.517 44.8064 123.887 42.5156C122.57 41.3614 121.234 40.2456 119.889 39.2013C118.561 38.1434 117.139 37.2078 115.784 36.5972C115.43 36.4365 115.124 36.3491 115.009 36.3266C114.911 36.305 114.992 36.2534 114.934 36.2011C114.752 36.1656 114.748 37.1173 115.023 37.7965C115.629 39.4026 116.365 41.1456 116.888 42.8968Z" fill="#D9D8D8"/>
</g>
<g id="Group_5">
<path id="Vector_4" d="M127.08 51.6581C125.241 54.826 123.157 57.7507 120.987 60.5957C118.816 63.4407 116.565 66.2062 114.215 68.8859C111.876 71.5724 109.427 74.1625 106.9 76.6883C104.366 79.2079 101.755 81.6615 98.855 83.8793C100.544 80.6255 102.533 77.6157 104.652 74.7185C106.767 71.8183 108.998 69.0146 111.362 66.3304C113.716 63.6375 116.199 61.0591 118.79 58.5857C121.383 56.1117 124.086 53.7403 127.08 51.6581Z" fill="#D9D8D8"/>
</g>
<g id="Group_6">
<path id="Vector_5" d="M84.7565 87.4117C84.789 87.8325 85.185 87.7829 85.347 87.716C85.4403 87.6646 85.4698 87.5748 85.3639 87.5415C85.2379 87.5327 85.1325 87.5517 85.053 87.6088C84.9239 87.7681 84.8485 87.7877 84.8309 87.9281C84.7925 88.0912 85.2676 88.2746 85.5128 88.1433C85.7433 88.0349 85.8185 88.0274 85.8905 87.8195C85.9786 87.6248 85.8068 86.9879 85.1878 86.7892C84.5711 86.6422 84.408 86.8262 84.2265 86.9576C84.138 87.0498 84.0314 87.198 83.9795 87.5082C83.924 87.8196 84.0447 88.249 84.2226 88.455C84.6371 88.9212 84.9696 88.9036 85.2474 88.8447C85.3959 88.7982 85.589 88.6974 85.7468 88.5029C85.879 88.3347 85.944 88.1552 85.943 88.0186C85.9335 87.7537 85.8625 87.635 85.6586 87.4794C85.4355 87.2876 85.0803 87.3344 85.0675 87.427C85.0242 87.5171 85.0901 87.575 85.1373 87.675C85.1803 87.7803 85.3037 87.9329 85.4075 87.8581C85.6067 87.6688 85.2488 86.9332 84.4791 87.0214C84.7566 86.1873 86.1665 85.959 87.0303 86.9388C87.4772 87.4512 87.5696 88.3807 87.2339 89.0478C86.9143 89.7158 86.3744 90.1629 85.6772 90.3874C85.0128 90.6339 83.9219 90.4905 83.236 89.7993C82.5682 89.1467 82.2912 88.3072 82.3934 87.3771C82.4512 86.9079 82.6542 86.4073 83.0128 85.9908C83.3989 85.5476 83.8948 85.2774 84.3694 85.1548C85.2935 84.9437 86.3798 85.1107 87.2192 86.1204C87.5975 86.5979 87.8322 87.3721 87.7256 88.0217C87.6328 88.6711 87.3565 89.1282 87.0488 89.4723C86.43 90.0992 85.5766 90.6184 84.2953 90.3051C82.9996 89.9459 82.4219 88.5784 82.5514 87.7162C82.6462 86.8387 83.0351 86.1509 83.8214 85.6588C84.6167 85.1256 85.8919 85.3684 86.3698 85.9798C86.8708 86.5377 87.1373 87.2677 86.8479 88.0954C86.6863 88.4743 86.3656 88.8024 85.9241 88.9166C85.5029 89.0063 85.1778 88.8766 84.9616 88.7006C84.7449 88.5229 84.5894 88.3059 84.5258 88.0459C84.4648 87.775 84.5788 87.4916 84.7565 87.4117Z" fill="#D9D8D8"/>
</g>
<g id="Group_7">
<path id="Vector_6" d="M89.8093 96.2694C90.282 96.9147 90.5049 97.2456 90.6701 97.5059C90.821 97.7466 90.8776 97.8698 90.8526 97.8918L90.8544 97.8912L88.4663 94.89L88.4681 94.8895L88.4723 94.8902L88.4807 94.8916L88.4975 94.8944L88.5629 94.9383C88.6188 94.9832 88.69 95.0455 88.7948 95.1516C89.008 95.3687 89.2827 95.6612 89.8093 96.2694C90.2849 96.9178 90.5091 97.2523 90.6736 97.5109C90.7529 97.637 90.7986 97.7194 90.8289 97.7844L90.8579 97.8579L90.8553 97.8748L90.854 97.8833L90.8533 97.8875L90.852 97.8899L88.4621 94.8893C88.4882 94.8711 88.5952 94.9524 88.7954 95.1534C89.0134 95.3731 89.2856 95.6643 89.8093 96.2694Z" fill="#D9D8D8"/>
</g>
<g id="Group_8">
<g id="Group_9">
<g id="Group_10">
<path id="Vector_7" d="M84.7994 133.674C88.1049 127.674 88.9673 120.712 89.7553 114.001C89.8809 112.315 89.8957 110.604 89.5507 108.97C89.2268 107.334 88.4276 105.825 87.2278 104.769C86.0153 103.717 84.4376 103.162 82.8536 102.543C81.2876 101.924 79.5389 101.23 78.2668 99.7216C77.6389 98.9679 77.2082 97.9934 77.0406 97.0652C76.8713 96.1315 76.8321 95.2134 76.852 94.3252C76.8905 92.5572 77.1131 90.8502 77.0704 89.2546C77.0589 88.4567 76.9738 87.6901 76.7498 87.0454C76.5515 86.4188 76.1787 85.851 75.6683 85.282C74.6729 84.1742 73.3514 83.2694 71.9559 82.573C70.539 81.8713 69.0874 81.4018 67.5809 81.2518C66.0368 81.0772 64.3965 81.122 62.7662 81.1799C59.4891 81.3189 56.1762 81.7369 52.8847 82.2489L53.0443 82.2191C50.8186 82.7817 48.6051 83.2498 46.5511 83.9097C44.4918 84.5591 42.586 85.4383 40.7612 86.576C37.161 88.7233 34.1768 91.9985 32.9964 95.8583C32.4228 97.7779 32.3086 99.761 32.7763 101.767C33.2132 103.777 34.1482 105.751 35.2132 107.703C37.4151 111.632 39.9401 115.483 42.6717 119.129C48.1554 126.418 54.5542 133.118 61.7778 138.732C63.6066 140.088 65.6068 141.223 67.765 141.898C69.9179 142.563 72.2545 142.69 74.4505 142.103C78.8679 140.92 82.4986 137.607 84.7994 133.674ZM84.7994 133.674C82.5433 137.635 78.9479 141.003 74.4963 142.268C72.2954 142.941 69.8902 142.906 67.6536 142.298C65.4018 141.698 63.3367 140.559 61.3838 139.315C53.7457 134.073 46.8987 127.706 40.8579 120.594C37.8429 117.02 35.0614 113.29 32.5071 109.302C31.2527 107.273 30.1127 105.057 29.4598 102.561C28.7832 100.078 28.7935 97.2943 29.5003 94.7912C30.9869 89.7702 34.6008 85.8265 38.7803 83.2943C40.8459 82.0367 43.1297 81.0189 45.4323 80.3274C47.7375 79.6312 49.9956 79.153 52.2106 78.6703L52.3184 78.6466L52.3702 78.6404C55.7713 78.2371 59.1891 77.9251 62.6712 77.9011C64.4155 77.8961 66.1718 77.98 67.9802 78.2812C69.8337 78.5803 71.6213 79.2847 73.1958 80.1908C74.7821 81.1093 76.2711 82.2375 77.4776 83.7463C78.0668 84.4779 78.6149 85.3955 78.8779 86.4187C79.1497 87.4129 79.1769 88.375 79.1405 89.2805C79.076 91.105 78.748 92.7805 78.6206 94.4234C78.4971 96.0469 78.5378 97.6612 79.4121 98.7949C81.232 101.277 85.1514 101.602 87.8132 104.118C89.1143 105.402 89.8641 107.134 90.1207 108.86C90.421 110.593 90.3414 112.337 90.1536 114.041C89.6989 117.444 89.0498 120.785 88.3328 124.125C87.5788 127.448 86.498 130.725 84.7994 133.674Z" fill="#D9D8D8"/>
<path id="Vector_8" d="M54.552 94.0848C54.9658 94.2249 55.3815 94.441 55.725 94.871C56.0802 95.2873 56.3305 95.8955 56.3717 96.5854C56.4123 97.2734 56.1948 98.0767 55.5365 98.6978C55.2083 98.996 54.7809 99.2246 54.3269 99.3306C54.0652 99.3583 53.9438 99.4406 53.5553 99.3872C53.2146 99.3409 52.864 99.2434 52.5522 99.1115L53.1454 99.3103C52.8228 99.2643 52.4272 99.1124 52.1249 98.9091C51.7738 98.6708 51.7297 98.5617 51.5711 98.392C51.3048 98.0687 51.0877 97.6615 50.9846 97.2185C50.7596 96.3164 51.0678 95.3901 51.552 94.892C52.0237 94.3797 52.6138 94.08 53.1408 93.9914C53.6692 93.8882 54.1354 93.9354 54.552 94.0848ZM54.552 94.0848C54.1264 93.9322 53.6379 94.1054 53.4088 94.4531C53.1717 94.8134 53.1841 95.2525 53.3549 95.5756C53.5268 95.9083 53.8267 95.9452 53.986 95.857C54.0664 95.8217 54.1144 95.7845 54.1614 95.7759C54.161 95.7619 54.2793 95.8094 54.1151 95.6917C53.9998 95.6091 53.8188 95.5329 53.7138 95.5215L54.3076 95.722C54.2083 95.6464 54.0713 95.6027 53.9426 95.6108C53.7649 95.6464 53.869 95.636 53.8234 95.6683C53.8041 95.7207 53.7941 95.7903 53.8452 95.871C53.9467 96.0425 54.2723 96.0855 54.6018 95.9439C54.93 95.8048 55.2154 95.4718 55.2507 95.0579C55.2866 94.6459 54.9736 94.2245 54.552 94.0848Z" fill="#D9D8D8"/>
<path id="Vector_9" d="M43.7207 105.333C42.9765 105.318 42.2176 105.238 41.5058 104.889C40.8139 104.534 40.152 104.009 39.643 103.304C38.6835 101.911 38.1646 99.8367 39.0938 97.8781C40.0081 95.9101 42.3676 94.6833 44.6614 95.2451C45.7695 95.5261 46.7532 96.1966 47.4018 97.0988C48.0261 98.0188 48.3676 99.1019 48.2368 100.144L48.1666 99.8375C48.4855 101.451 47.8233 102.923 46.9315 103.821C46.0304 104.74 44.8959 105.295 43.7207 105.333ZM43.7207 105.333C44.9113 105.306 45.9717 104.47 46.3764 103.439C46.5742 102.922 46.6715 102.382 46.5788 101.884C46.5126 101.387 46.2812 100.972 46.0106 100.654L45.9404 100.348C45.4959 99.3735 44.5773 99.0312 43.8989 98.9538C43.257 98.8791 42.3999 99.0752 41.7046 99.6294C40.9671 100.195 40.3555 101.498 40.5974 102.866C40.7351 103.528 41.0735 104.195 41.6455 104.656C42.2111 105.147 42.9798 105.297 43.7207 105.333Z" fill="#D9D8D8"/>
<path id="Vector_10" d="M53.2038 105.766C53.0428 105.557 52.7902 105.449 52.5585 105.135C52.3147 104.832 52.1683 104.314 52.2621 103.757C52.3552 103.211 52.7288 102.594 53.5365 102.329C54.3571 102.042 55.4322 102.528 55.8266 103.101L55.9378 103.266L56.1035 103.572C56.272 103.888 56.3845 104.298 56.3591 104.693C56.3179 105.513 55.8066 106.102 55.2977 106.312C54.7844 106.533 54.2675 106.508 53.9038 106.35C53.5376 106.203 53.3632 105.97 53.2038 105.766ZM53.2038 105.766C53.3654 105.983 53.7078 106.029 53.8639 105.823C54.0231 105.62 53.9897 105.304 53.7942 105.112C53.6048 104.907 53.2569 104.952 53.1216 105.25C53.0566 105.385 53.0591 105.545 53.0769 105.647C53.1262 105.734 53.0613 105.692 53.0093 105.634L52.8725 105.489C52.9466 105.643 53.5042 105.849 53.7983 105.62C54.0851 105.399 53.9737 105.076 53.7485 104.941C53.5247 104.797 53.213 104.825 53.0651 105.044C52.9195 105.265 53.0444 105.568 53.2038 105.766Z" fill="#D9D8D8"/>
</g>
</g>
</g>
<g id="Group_11">
<path id="Vector_11" d="M143.251 30.9192C142.206 34.4566 144.541 37.6775 147.017 38.8206C149.579 40.0075 152.049 38.3715 152.976 35.747C153.942 33.1324 153.112 30.2692 150.402 29.4068C147.79 28.5642 143.981 29.329 142.266 32.5731C142.312 31.6623 142.587 30.7244 143.095 29.8826C143.621 29.0613 144.34 28.3686 145.152 27.78C146.822 26.7008 148.898 26.1428 151.048 26.4878C152.119 26.6697 153.195 27.0817 154.138 27.7688C155.055 28.4803 155.834 29.4041 156.362 30.4671C156.853 31.5395 157.072 32.6934 157.111 33.8227C157.096 34.9472 156.902 36.0471 156.544 37.0876C155.781 39.133 154.322 41.0138 152.174 41.9952C151.09 42.4437 149.913 42.6414 148.75 42.5547C147.589 42.4395 146.507 42.0152 145.585 41.4202C144.687 40.7954 143.919 40.0513 143.329 39.1952C142.769 38.3174 142.336 37.3858 142.084 36.4078C141.881 35.414 141.815 34.4018 141.997 33.4346C142.2 32.4666 142.652 31.5963 143.251 30.9192Z" fill="#D9D8D8"/>
</g>
<g id="Group_12">
<path id="Vector_12" d="M149.384 6.10712C149.591 8.3801 151.313 9.6749 152.7 9.98141C154.076 10.2428 154.942 9.47988 155.494 8.1935C155.936 6.86285 155.804 5.71206 154.619 4.95772C153.396 4.23351 151.271 3.99711 149.606 5.52803C149.683 4.34785 150.562 3.25072 151.684 2.61539C152.823 2.02054 154.212 1.76255 155.626 2.1249C157.038 2.46354 158.426 3.59931 159.038 5.11325C159.642 6.62156 159.551 8.22089 159.038 9.59977C158.5 10.9666 157.506 12.2105 156.059 12.9036C154.603 13.5996 152.83 13.4747 151.565 12.7556C150.283 12.0495 149.43 10.9054 148.987 9.68291C148.579 8.44355 148.661 7.03038 149.384 6.10712Z" fill="#D9D8D8"/>
</g>
<g id="Group_13">
<path id="Vector_13" d="M127.61 30.6337C127.285 31.1784 127.433 31.5429 127.633 31.7682C127.793 31.9921 128.03 32.1793 128.211 32.312C128.401 32.4418 128.595 32.5019 128.59 32.3968C128.612 32.2728 128.12 32.1412 128.001 32.2388L128.338 32.1394C128.178 32.1128 127.776 32.5593 127.87 32.6767C127.918 32.7906 128.05 32.6283 128.124 32.4157C128.195 32.2023 128.276 31.9212 128.284 31.6549C128.323 31.3687 128.239 30.9863 127.644 30.7741C127.809 30.1786 128.686 29.8937 129.388 30.1591C130.07 30.4144 130.605 30.8971 130.948 31.4886C131.279 32.0834 131.5 32.8076 131.314 33.7419C131.219 34.2146 130.951 34.7174 130.544 35.1492C130.098 35.5668 129.587 35.7893 129.086 35.9083L129.422 35.8088C128.939 35.9865 128.393 36.0649 127.811 35.9775C127.249 35.8536 126.761 35.6019 126.41 35.2829C125.723 34.6402 125.455 33.9229 125.373 33.2357C125.294 32.5475 125.448 31.8327 125.844 31.2234C126.252 30.6022 127.092 30.2825 127.61 30.6337Z" fill="#D9D8D8"/>
</g>
</g>
</svg>
