<svg width="44" height="44" viewBox="0 0 44 44" fill="none" xmlns="http://www.w3.org/2000/svg">
<g id="heroicons:language-solid">
<path id="Vector" fill-rule="evenodd" clip-rule="evenodd" d="M16.5 4.125C16.8647 4.125 17.2145 4.26987 17.4723 4.52773C17.7302 4.78559 17.875 5.13533 17.875 5.5V8.261C21.1501 8.31037 24.4201 8.53742 27.6705 8.94117C27.8498 8.96356 28.0229 9.02103 28.1799 9.11031C28.3369 9.19959 28.4748 9.31893 28.5857 9.4615C28.6967 9.60408 28.7784 9.76711 28.8263 9.94127C28.8742 10.1154 28.8874 10.2973 28.865 10.4766C28.8426 10.6558 28.7851 10.8289 28.6958 10.9859C28.6065 11.143 28.4872 11.2809 28.3446 11.3918C28.202 11.5027 28.039 11.5844 27.8649 11.6323C27.6907 11.6803 27.5088 11.6934 27.3295 11.671C26.1163 11.5191 24.8999 11.3932 23.6812 11.2933C22.6117 15.4656 20.7644 19.3984 18.2362 22.8855C18.8192 23.5895 19.4279 24.266 20.0695 24.9168C20.3105 25.1797 20.4399 25.5259 20.4305 25.8823C20.4211 26.2388 20.2735 26.5776 20.019 26.8274C19.7645 27.0771 19.4229 27.2182 19.0664 27.2209C18.7098 27.2236 18.3661 27.0877 18.1079 26.8418C17.5521 26.278 17.0159 25.6953 16.5 25.0947C13.6059 28.4768 10.0848 31.2671 6.13071 33.3117C5.80664 33.4789 5.42939 33.5106 5.08196 33.3997C4.73454 33.2888 4.44539 33.0445 4.27812 32.7204C4.11086 32.3963 4.07919 32.0191 4.19007 31.6717C4.30095 31.3242 4.5453 31.0351 4.86937 30.8678C8.671 28.9015 12.0359 26.1869 14.762 22.8873C13.1624 20.6785 11.8318 18.2868 10.7984 15.763C10.6684 15.4272 10.6754 15.0538 10.8178 14.723C10.9602 14.3923 11.2267 14.1306 11.56 13.9942C11.8932 13.8579 12.2667 13.8577 12.6001 13.9937C12.9335 14.1297 13.2003 14.3911 13.343 14.7217C14.1861 16.7794 15.2443 18.7421 16.5 20.5773C18.4779 17.6868 19.9594 14.4865 20.8835 11.1082C15.8058 10.8563 10.7158 11.0447 5.67054 11.671C5.30854 11.7162 4.94341 11.6158 4.65546 11.3918C4.36751 11.1678 4.18034 10.8386 4.13512 10.4766C4.08991 10.1146 4.19034 9.74945 4.41434 9.4615C4.63833 9.17356 4.96754 8.98639 5.32954 8.94117C8.57992 8.53661 11.8499 8.30955 15.125 8.261V5.5C15.125 5.13533 15.2699 4.78559 15.5278 4.52773C15.7856 4.26987 16.1354 4.125 16.5 4.125ZM28.875 16.5C29.1369 16.4999 29.3933 16.5746 29.6141 16.7152C29.8349 16.8558 30.011 17.0566 30.1217 17.2938L39.7467 37.9188C39.823 38.0826 39.8664 38.2597 39.8742 38.4402C39.8821 38.6206 39.8543 38.8008 39.7925 38.9706C39.7307 39.1403 39.6361 39.2962 39.514 39.4294C39.392 39.5625 39.2449 39.6703 39.0812 39.7467C38.7506 39.9008 38.3722 39.9173 38.0295 39.7925C37.6867 39.6677 37.4075 39.4118 37.2534 39.0812L35.057 34.375H22.693L20.4967 39.0812C20.3426 39.4118 20.0634 39.6677 19.7206 39.7925C19.3778 39.9173 18.9995 39.9008 18.6689 39.7467C18.3382 39.5925 18.0824 39.3134 17.9576 38.9706C17.8328 38.6278 17.8492 38.2495 18.0034 37.9188L27.6284 17.2938C27.739 17.0566 27.9151 16.8558 28.136 16.7152C28.3568 16.5746 28.6132 16.4999 28.875 16.5ZM23.9764 31.625H33.7737L28.875 21.1273L23.9764 31.625Z" fill="black"/>
</g>
</svg>
