<svg width="649" height="780" viewBox="0 0 649 780" fill="none" xmlns="http://www.w3.org/2000/svg">
<g clip-path="url(#clip0_314_664)">
<path d="M631.319 543.895C628.774 542.973 622.853 541.564 618.432 543.789C613.267 546.413 607.581 550.726 607.521 550.777L288.458 784.975C286.768 786.21 284.597 786.496 283.094 785.665L21.4524 640.981C24.8045 647.806 23.5637 656.708 17.1396 664.572C15.3025 666.834 12.7877 669.044 9.86328 671.303L291.313 826.883L623.896 583.026C623.983 582.966 624.031 582.882 624.106 582.831C628.247 579.945 631.371 577.162 633.69 574.319C642.686 563.287 641.541 550.141 631.319 543.892V543.895Z" fill="white"/>
<path d="M638.352 537.465C638.111 537.176 637.873 536.902 637.509 536.709L636.497 536.143L345.268 375.178C343.765 374.343 341.588 374.624 339.922 375.864L149.798 515.121C149.382 515.422 149.021 515.777 148.704 516.148V516.154L2.1655 623.489C1.75591 623.79 1.38245 624.143 1.07225 624.516C0.469899 625.26 0.0783736 626.139 0.0121155 627.013C-0.0872717 628.305 0.497005 629.449 1.61436 630.061L38.475 650.342L283.097 785.665C284.6 786.496 286.771 786.21 288.461 784.975L396.579 705.613H396.585L404.753 699.617H404.747L436.051 676.637C436.051 676.637 436.069 676.628 436.075 676.625L483.706 641.662L607.521 550.78C607.584 550.732 613.27 546.416 618.432 543.793C622.854 541.567 628.775 542.976 631.32 543.898C641.544 550.147 642.686 563.294 633.69 574.326C631.368 577.169 628.245 579.948 624.107 582.837C624.031 582.885 623.983 582.969 623.896 583.032L430.865 724.569L430.934 724.605L291.313 826.889L9.8635 671.306C9.90566 671.273 9.93879 671.24 9.98698 671.207C6.31266 673.917 6.11389 674.116 5.89704 674.384C4.27673 676.375 4.51466 678.857 6.44217 679.926L287.919 835.521C289.434 836.355 291.599 836.072 293.271 834.846L483.389 695.593C483.7 695.346 483.886 695.081 484.133 694.822C484.151 694.81 484.169 694.798 484.175 694.786L631.021 587.228C631.332 586.984 631.518 586.716 631.765 586.46C635.286 583.737 638.352 581 640.674 578.162C652.619 563.507 651.375 546.157 638.352 537.462V537.465Z" fill="#587BE1"/>
<path d="M631.32 490.367C628.775 489.446 622.854 488.036 618.432 490.262C613.267 492.885 607.581 497.198 607.521 497.249L362.279 677.089C360.589 678.324 358.411 678.61 356.915 677.779L95.2732 533.095C98.6193 539.92 97.3784 548.822 90.9514 556.689C89.1142 558.948 86.6055 561.158 83.675 563.42L365.125 718.997L623.893 529.499C623.98 529.439 624.028 529.354 624.104 529.303C628.245 526.418 631.368 523.635 633.687 520.792C642.683 509.76 641.538 496.614 631.317 490.364L631.32 490.367Z" fill="white"/>
<path d="M638.352 483.937C638.111 483.648 637.873 483.374 637.509 483.181L636.497 482.615L345.268 321.65C343.765 320.816 341.588 321.096 339.922 322.337L266.475 376.135C266.358 376.211 266.219 376.256 266.108 376.343L75.977 515.6C75.5674 515.901 75.2 516.253 74.8838 516.627C74.2874 517.371 73.8899 518.25 73.8236 519.123C73.7242 520.416 74.3085 521.563 75.4319 522.171L112.286 542.452L356.915 677.779C358.411 678.61 360.589 678.324 362.278 677.089L396.444 652.01L396.462 652.019L404.632 646.029L404.608 646.014L435.069 623.652C435.18 623.597 435.286 623.525 435.397 623.468L607.521 497.249C607.584 497.201 613.27 492.885 618.432 490.262C622.854 488.036 628.775 489.446 631.32 490.367C641.544 496.614 642.686 509.763 633.69 520.795C631.368 523.638 628.245 526.418 624.106 529.306C624.031 529.354 623.983 529.439 623.896 529.502L573.609 566.338V566.329L365.128 719L83.678 563.423C83.7353 563.381 83.7774 563.336 83.8316 563.294C80.1182 566.037 79.9344 566.23 79.7086 566.501C78.0943 568.492 78.3292 570.973 80.2597 572.043L361.73 727.638C363.245 728.472 365.417 728.192 367.082 726.969L440.529 673.168C440.653 673.092 440.785 673.05 440.903 672.963L631.021 533.706C631.332 533.462 631.518 533.194 631.765 532.938C635.286 530.216 638.352 527.478 640.674 524.641C652.619 509.986 651.375 492.635 638.352 483.94V483.937Z" fill="#09B28A"/>
<path d="M430.735 569.889L169.088 425.206C172.44 432.03 171.199 440.933 164.766 448.8C162.935 451.058 160.42 453.272 157.49 455.531L438.948 611.108L623.896 475.616C623.983 475.553 624.031 475.465 624.107 475.42C628.248 472.535 631.371 469.752 633.69 466.909C642.686 455.874 641.542 442.731 631.32 436.482C628.775 435.557 622.854 434.147 618.433 436.376C613.267 438.999 607.581 443.312 607.521 443.363L436.099 569.197C434.404 570.431 432.232 570.717 430.735 569.886V569.889Z" fill="white"/>
<path d="M638.352 430.055C638.111 429.765 637.873 429.491 637.509 429.299L636.497 428.735L345.268 267.77C343.766 266.936 341.588 267.216 339.923 268.457L149.798 407.713C149.382 408.015 149.021 408.373 148.705 408.74C148.102 409.484 147.711 410.364 147.644 411.234C147.545 412.526 148.129 413.674 149.247 414.282L186.107 434.563L430.735 569.886C432.232 570.718 434.404 570.431 436.099 569.197L607.521 443.363C607.584 443.315 613.27 438.999 618.433 436.376C622.854 434.147 628.775 435.557 631.32 436.482C641.545 442.731 642.686 455.874 633.69 466.909C631.368 469.752 628.245 472.532 624.107 475.42C624.031 475.465 623.983 475.553 623.896 475.616L438.948 611.108L157.49 455.531C157.565 455.471 157.613 455.425 157.695 455.368C153.927 458.148 153.752 458.335 153.529 458.606C151.909 460.596 152.147 463.078 154.074 464.147L435.551 619.743C437.066 620.577 439.231 620.294 440.903 619.071L631.022 479.814C631.332 479.564 631.519 479.302 631.765 479.043C635.286 476.321 638.352 473.586 640.674 470.749C652.619 456.094 651.375 438.743 638.352 430.049V430.055Z" fill="black"/>
<path d="M141.025 149.15C140.648 149.15 140.272 149.012 139.976 148.734C124.318 133.938 115.705 117.958 115.72 103.733C115.729 95.3334 118.741 88.0631 124.436 82.7082C128.869 78.5369 134.149 76.3775 138.392 74.6428C144 72.3509 146.072 71.2606 145.566 68.9024C140.859 47.0342 146.777 34.2946 152.572 27.461C158.526 20.4376 167.151 16.4953 175.626 16.8898C186.321 17.3988 194.627 22.7928 201.955 27.5483C206.554 30.536 210.526 33.114 214.27 33.9543C218.607 34.9271 224.148 26.8827 229.509 19.1064C235.021 11.1043 240.722 2.83102 247.101 0.755938C257.771 -2.7196 266.054 6.37282 276.544 17.8867C279.323 20.9406 282.2 24.0969 285.332 27.2532C299.511 41.5499 329.92 46.715 330.228 46.7662C331.059 46.9047 331.622 47.6878 331.484 48.519C331.345 49.3503 330.568 49.9134 329.731 49.7749C328.445 49.5611 298.047 44.402 283.166 29.4005C279.989 26.1991 277.092 23.0187 274.291 19.9407C264.545 9.243 256.844 0.792079 248.05 3.65624C242.656 5.41208 237.252 13.2546 232.027 20.8382C225.82 29.8463 219.959 38.3574 213.61 36.9329C209.334 35.9751 204.946 33.126 200.302 30.1083C193.299 25.5606 185.363 20.4075 175.491 19.9377C167.946 19.5732 160.251 23.1301 154.906 29.4337C149.557 35.7463 144.112 47.6034 148.557 68.2609C149.65 73.3417 144.747 75.3445 139.555 77.4678C135.546 79.1062 130.556 81.1481 126.535 84.9309C121.469 89.6954 118.789 96.2008 118.78 103.736C118.765 117.111 127.041 132.305 142.082 146.518C142.693 147.096 142.72 148.063 142.142 148.674C141.841 148.99 141.437 149.153 141.034 149.153L141.025 149.15Z" fill="#0C0C17"/>
<path d="M151.966 41.1854C149.319 47.0132 148.436 53.4553 147.973 59.6323C147.738 62.5748 147.879 65.6919 147.057 68.5772C146.036 72.0979 143.088 74.4019 140.308 76.5914C135.405 80.4916 131.42 84.7953 128.556 90.4002C125.894 95.6376 124.427 101.504 124.017 107.206C123.138 119.674 127.336 131.101 133.721 141.067C137.133 146.379 141.154 151.24 145.389 155.863C149.807 160.676 154.418 165.471 159.736 169.311C179.737 183.767 194.281 195.35 217.056 186.694C286.202 160.42 282.055 215.736 347.051 193.609C347.446 194.564 364.432 142.575 365.754 142.386C366.26 142.316 366.751 142.214 367.23 142.121C367.953 142.25 368.6 142.048 369.127 141.663C373.35 140.491 377.334 138.314 380.78 135.411C400.729 118.602 397.23 87.6806 388.613 67.8544C383.843 56.8675 376.437 47.0523 366.633 40.2789C361.215 36.5203 355.111 33.7675 348.867 31.5328C342.901 29.3825 336.721 27.3706 330.336 26.5846C319.169 25.2233 308.998 30.3522 298.111 32.7556C292.888 33.9091 287.777 34.0115 282.98 32.0117C277.845 29.8704 273.652 25.9792 269.454 22.4886C265.28 19.0191 260.864 15.5466 255.588 13.8299C250.628 12.2306 245.228 12.3842 240.083 14.1341C234.867 15.914 230.066 19.0462 225.943 22.841C221.712 26.708 218.631 32.1623 213.936 35.4421C208.478 39.273 203.367 34.8367 198.949 32.2707C193.528 29.1054 187.724 26.5273 181.34 25.6208C169.497 23.9312 157.306 29.4819 151.969 41.1885L151.966 41.1854Z" fill="#010101"/>
<path d="M400.105 150.162C422.999 127.268 422.999 90.15 400.105 67.2562C377.211 44.3623 340.093 44.3623 317.199 67.2562C294.305 90.15 294.305 127.268 317.199 150.162C340.093 173.056 377.211 173.056 400.105 150.162Z" fill="black"/>
<path d="M238.49 172.177C265.223 145.444 265.223 102.102 238.49 75.3689C211.757 48.6361 168.414 48.636 141.682 75.3689C114.949 102.102 114.949 145.444 141.682 172.177C168.414 198.91 211.757 198.91 238.49 172.177Z" fill="black"/>
<path d="M461.503 277.905L534.348 380.499C554.816 409.325 559.99 439.861 547.976 460.907C529.379 493.482 475.767 494.039 427.401 462.16L210.846 319.427L282.666 228.021C317.642 183.508 413.454 210.234 461.503 277.905Z" fill="#587BE1"/>
<path d="M387.4 384.812L322.409 458.271L169.172 382.077L211.692 259.458L387.4 384.812Z" fill="#587BE1"/>
<path d="M303.67 198.729L255.778 207.292C211.915 215.131 172.946 240.032 147.4 276.54L103.959 338.624C76.2332 378.25 89.5692 433.211 132.372 455.72L139.82 459.636C185.27 483.537 241.168 459.22 254.663 409.671L257.211 400.311L303.667 198.729H303.67Z" fill="#587BE1"/>
<path d="M482.709 358.182L538.444 410.029L537.035 417.071C529.385 455.32 490.934 479.085 453.302 468.821L440.584 429.473L425.679 362.074L482.709 358.185V358.182Z" fill="white"/>
<path d="M612.204 202.334C612.427 202.858 612.741 203.358 613.144 203.807C615.108 205.993 618.472 206.174 620.655 204.211L624.962 200.343C627.149 198.383 627.332 195.022 625.366 192.832C623.402 190.646 620.038 190.465 617.855 192.429L613.548 196.296C611.81 197.856 611.34 200.301 612.204 202.337V202.334Z" fill="#080717"/>
<path d="M543.04 235.65C482.91 283.446 410.126 344.723 333.098 414.077C255.278 484.091 295.448 458.771 238.593 515.32L270.875 551.259C333.191 500.788 296.189 529.634 374.148 459.774C451.302 390.561 520.06 324.776 573.997 270.11L543.04 235.647V235.65Z" fill="#21CFA9"/>
<path d="M270.881 551.268L238.59 515.32C229.286 524.587 220.327 533.565 211.827 542.196C215.083 556.827 227.049 570.205 241.264 574.967C250.748 567.435 260.666 559.52 270.878 551.268H270.881Z" fill="#21CFA9"/>
<path d="M572.091 268.903C590.688 245.498 607.729 224.781 622.688 207.168C618.731 202.762 614.791 198.377 610.813 193.95C591.737 206.981 569.293 221.682 544.034 237.671C553.385 248.079 562.779 258.536 572.091 268.906V268.903Z" fill="white"/>
<path d="M326.488 425.548L324.572 427.269L360.145 466.874L362.061 465.153L326.488 425.548Z" fill="#080717"/>
<path d="M580.903 45.2651L580.665 45.529L582.577 47.2537L582.815 46.9898L580.903 45.2651Z" fill="#080717"/>
<path d="M581.346 45.691L576.72 41.7667C558.029 60.8973 535.54 69.7367 521.518 63.7403C517.503 72.0828 512.428 80.853 506.354 89.59C500.315 98.2608 493.942 106.016 487.594 112.651C494.704 116.979 502.125 122.31 509.435 128.574C516.768 134.829 523.225 141.298 528.604 147.626C534.155 140.305 540.811 132.778 548.418 125.457C556.101 118.087 563.95 111.675 571.543 106.383C563.39 93.4692 568.576 69.8752 584.514 48.3925L580.56 45.0194L581.346 45.688V45.691Z" fill="white"/>
<path d="M578.365 43.1481L578.138 43.4138L580.098 45.0848L580.324 44.819L578.365 43.1481Z" fill="#080717"/>
<path d="M227.507 419.396C190.787 462.494 229.627 495.566 266.352 452.489C329.047 380.933 469.005 218.134 531.692 146.587C516.802 133.875 501.9 121.183 487.016 108.471C425.561 182.544 287.774 346.762 227.507 419.396Z" fill="#7CA0FC"/>
<path d="M464.964 132.817L511.167 172.274L534.074 145.37L487.853 105.905L464.964 132.817Z" fill="#7CA0FC"/>
<path d="M303.613 314.253L129.3 519.009C118.762 531.375 119.039 548.985 129.984 558.309L143.594 569.907C154.544 579.226 171.952 576.756 182.514 564.363L356.993 359.432L303.616 314.253H303.613Z" fill="#7CA0FC"/>
<path d="M511.167 173.56C510.871 173.56 510.573 173.458 510.332 173.253L464.129 133.796C463.59 133.336 463.524 132.522 463.988 131.983C464.449 131.444 465.262 131.378 465.801 131.842L512.004 171.298C512.543 171.759 512.609 172.572 512.145 173.111C511.889 173.41 511.531 173.563 511.167 173.563V173.56Z" fill="#080717"/>
<path d="M356.99 360.721C356.698 360.721 356.4 360.622 356.159 360.417L302.779 315.238C302.237 314.777 302.167 313.967 302.628 313.422C303.086 312.88 303.899 312.814 304.441 313.271L357.821 358.45C358.363 358.911 358.432 359.721 357.972 360.267C357.716 360.568 357.354 360.721 356.99 360.721Z" fill="#080717"/>
<path d="M192.299 566.004C190.025 566.004 187.806 565.314 185.8 563.601L133.606 519.485L135.269 517.518L187.465 561.637C195.624 568.594 209.806 552.795 209.948 552.632L329.357 412.737L331.315 414.409L211.89 554.322C211.357 554.921 201.41 565.998 192.299 565.998V566.004Z" fill="#080717"/>
<path d="M580.176 44.7178L533.926 99.389L535.892 101.052L582.142 46.3809L580.176 44.7178Z" fill="#080717"/>
<path d="M533.423 105.311C532.471 105.311 531.517 104.986 530.737 104.323C529.893 103.604 529.378 102.601 529.291 101.498C529.204 100.393 529.55 99.3209 530.267 98.4777C531.746 96.7369 534.369 96.523 536.113 98.0078C537.853 99.4896 538.064 102.113 536.582 103.854C535.763 104.817 534.595 105.311 533.42 105.311H533.423ZM533.426 99.592C532.98 99.592 532.538 99.7787 532.228 100.143C531.953 100.462 531.824 100.869 531.857 101.291C531.89 101.709 532.086 102.089 532.405 102.363C533.068 102.926 534.062 102.845 534.625 102.185C535.188 101.526 535.107 100.529 534.447 99.9655C534.152 99.7155 533.791 99.592 533.429 99.592H533.426Z" fill="#080717"/>
<path d="M194.634 526.153L218.959 491.105L166.838 454.928L142.513 489.976C140.901 492.298 142.181 495.903 145.35 498.105L185.999 526.321C189.182 528.532 193.019 528.478 194.631 526.156L194.634 526.153Z" fill="#F39200"/>
<path d="M444.646 56.0032L166.838 454.928L218.959 491.108L496.764 92.1801L444.646 56.0032Z" fill="#F39200"/>
<path d="M496.659 91.9994L517.554 6.32162L444.613 55.8737L496.659 91.9994Z" fill="white"/>
<path d="M196.743 410.81L165.582 455.696L218.414 492.374L249.575 447.488L196.743 410.81Z" fill="#FCCC42"/>
<path d="M493.747 22.5519C496.225 24.5757 498.731 26.6087 501.472 28.5121C504.529 30.6323 507.661 32.5117 510.793 34.2404L517.555 6.32162L493.747 22.5519Z" fill="#080717"/>
<path d="M466.122 205.271L186.596 522.219L234.18 564.185L513.706 247.236L466.122 205.271Z" fill="#080717"/>
<path d="M513.85 247.128L544.509 164.441L466.331 205.225L513.85 247.128Z" fill="white"/>
<path d="M236.09 562.544L187.848 520.006L172.976 536.872C161.23 550.192 162.507 570.513 175.828 582.261C189.149 594.007 209.469 592.73 221.218 579.409L236.09 562.544Z" fill="#FCCC42"/>
<path d="M518.985 177.807C521.214 180.105 523.466 182.412 525.969 184.619C528.758 187.08 531.652 189.309 534.568 191.387L544.512 164.438L518.988 177.807H518.985Z" fill="#080717"/>
<path d="M449.513 393.353C449.513 393.353 481.772 417.773 506.242 357.734C518.036 328.8 510.335 315.35 500.589 318.756C496.689 320.117 491.181 330.306 491.181 330.306C491.181 330.306 483.817 329.734 483.407 332.218C482.224 339.365 477.071 334.215 472.366 336.007C468.442 337.501 465.93 340.994 467.659 344.612C469.385 348.229 471.879 360.125 471.879 360.125C471.879 360.125 465.37 356.827 460.404 356.418C456.998 356.137 453.721 361.866 456.239 367.597C458.756 373.328 464.078 381.933 449.519 393.359L449.513 393.353Z" fill="white"/>
<path d="M502.776 364.513C502.071 364.513 501.499 363.947 501.49 363.242C501.49 363.004 501.09 339.214 491.603 332.827C490.018 331.76 488.594 331.45 487.242 331.872C484.167 332.839 482.42 337.266 482.402 337.308C482.146 337.971 481.402 338.296 480.739 338.046C480.077 337.79 479.745 337.049 480.001 336.383C480.089 336.155 482.2 330.764 486.462 329.417C488.579 328.746 490.795 329.173 493.042 330.688C503.643 337.826 504.053 362.173 504.065 363.206C504.074 363.917 503.505 364.498 502.794 364.507H502.779L502.776 364.513Z" fill="#1D1D1B"/>
<path d="M490.431 377.183C490.395 377.183 490.359 377.183 490.319 377.177C489.612 377.117 489.088 376.494 489.148 375.786C490.389 361.279 484.727 343.41 479.212 338.287C477.773 336.95 476.339 336.384 474.954 336.606C472.607 336.983 471.062 337.799 470.225 339.1C468.671 341.519 469.776 345.5 470.587 348.406C470.752 349 470.906 349.56 471.032 350.066C472.598 356.451 472.836 362.818 472.845 363.086C472.869 363.796 472.315 364.393 471.605 364.417C470.882 364.486 470.297 363.887 470.273 363.176C470.273 363.113 470.032 356.797 468.533 350.68C468.415 350.195 468.265 349.662 468.108 349.096C467.171 345.72 465.888 341.097 468.063 337.709C469.298 335.781 471.481 334.555 474.55 334.064C476.755 333.706 478.92 334.495 480.968 336.399C488.344 343.25 492.801 363.314 491.717 376.003C491.66 376.674 491.096 377.18 490.437 377.18L490.431 377.183Z" fill="#1D1D1B"/>
<path d="M511.2 343.853C511.097 343.853 510.995 343.841 510.896 343.816C510.206 343.648 509.781 342.952 509.95 342.262C512.453 331.983 511.959 324.846 508.519 321.617C505.369 318.659 500.466 319.677 499.3 319.97C498.27 320.936 493.59 325.662 493.605 331.754C493.605 332.465 493.033 333.043 492.322 333.046H492.319C491.609 333.046 491.033 332.471 491.033 331.763C491.009 323.743 497.551 318.072 497.828 317.834C497.96 317.723 498.111 317.638 498.276 317.584C498.572 317.491 505.583 315.347 510.269 319.729C514.495 323.68 515.23 331.468 512.453 342.874C512.308 343.461 511.784 343.856 511.203 343.856L511.2 343.853Z" fill="#1D1D1B"/>
<path d="M448.227 396.597C447.938 396.597 447.646 396.501 447.405 396.302C446.857 395.847 446.782 395.037 447.237 394.489L458.482 380.948L454.627 367.934C454.582 367.814 452.968 363.236 455.091 359.595C456.305 357.514 458.434 356.201 461.422 355.695C463.783 355.297 465.979 355.842 467.942 357.327C474.833 362.528 476.586 377.894 476.658 378.548C476.736 379.256 476.224 379.888 475.52 379.966C474.803 380.042 474.176 379.533 474.101 378.828C474.086 378.677 472.4 363.914 466.391 359.381C464.997 358.33 463.515 357.954 461.855 358.237C459.66 358.61 458.136 359.502 457.323 360.887C455.802 363.48 457.061 367.106 457.076 367.142L461.148 380.882C461.268 381.295 461.178 381.74 460.904 382.069L449.218 396.139C448.962 396.447 448.598 396.603 448.227 396.603V396.597Z" fill="#1D1D1B"/>
<path d="M474.935 417.797C474.58 417.797 474.225 417.649 473.972 417.363C473.502 416.83 473.55 416.017 474.08 415.547C474.246 415.399 490.798 400.353 501.562 361.724C501.752 361.041 502.463 360.637 503.146 360.83C503.83 361.02 504.231 361.73 504.041 362.414C493.048 401.862 476.487 416.854 475.788 417.471C475.544 417.688 475.24 417.794 474.935 417.794V417.797Z" fill="#1D1D1B"/>
<path d="M286.527 273.116L257.214 400.311L254.666 409.671C241.171 459.22 185.273 483.54 139.823 459.636L132.375 455.72C90.0299 433.452 76.5283 379.424 103.092 339.904L286.527 273.119V273.116Z" fill="#587BE1"/>
<path d="M131.083 388.962C130.727 388.962 130.375 388.818 130.119 388.529C129.646 387.996 129.697 387.182 130.227 386.713L203.452 321.734C203.985 321.262 204.795 321.31 205.268 321.843C205.741 322.376 205.689 323.189 205.159 323.659L131.935 388.637C131.691 388.854 131.384 388.962 131.083 388.962Z" fill="white"/>
<path d="M309.805 246.119C296.87 239.339 291.879 223.359 298.659 210.424L332.312 144.467L369.209 163.802L330.342 239.704C326.442 247.146 317.247 250.019 309.802 246.119H309.805Z" fill="white"/>
<path d="M355.728 189.525L369.209 163.799L345.771 151.517L333.676 156.393C334.345 169.299 341.968 181.27 355.728 189.525Z" fill="#23010B"/>
<path d="M368.612 171.476C351.298 178.03 331.95 169.305 325.397 151.99L317.97 132.369C311.416 115.054 320.141 95.7069 337.456 89.1534C354.77 82.5998 374.117 91.3248 380.671 108.639L388.098 128.261C394.651 145.575 385.926 164.923 368.612 171.476Z" fill="white"/>
<path d="M334.483 88.033C315.702 95.1407 306.031 115.581 312.883 133.688L315.44 140.446C331.809 143.828 349.193 135.642 356.565 120.054L366.125 99.851C367.308 97.3513 368.157 94.7943 368.718 92.2223C359.246 85.4941 346.461 83.5003 334.48 88.033H334.483Z" fill="#010101"/>
<path d="M333.004 156.312C329.023 160.272 322.587 160.254 318.626 156.273L317.464 155.104C313.503 151.123 313.521 144.687 317.503 140.726C321.484 136.766 327.921 136.784 331.881 140.765L333.044 141.934C337.004 145.915 336.986 152.352 333.004 156.312Z" fill="white"/>
<path d="M372.377 116.819C371.934 116.819 371.503 116.59 371.262 116.181C370.904 115.566 371.112 114.777 371.726 114.422C372.088 114.211 380.695 109.29 388.387 113.44C389.014 113.777 389.246 114.557 388.908 115.184C388.571 115.807 387.791 116.042 387.164 115.705C380.731 112.232 373.1 116.599 373.024 116.644C372.82 116.762 372.597 116.819 372.377 116.819Z" fill="#0C0C17"/>
<path d="M348.524 124.83C348.153 124.83 347.786 124.674 347.533 124.367C347.081 123.818 347.153 123.008 347.699 122.556C348.021 122.288 355.698 116.015 363.968 118.837C364.64 119.066 365.001 119.798 364.769 120.472C364.54 121.144 363.811 121.505 363.134 121.273C356.246 118.921 349.409 124.481 349.34 124.538C349.099 124.737 348.807 124.833 348.518 124.833L348.524 124.83Z" fill="#0C0C17"/>
<path d="M373.759 142.907C373.241 142.907 372.75 142.591 372.558 142.076C372.305 141.41 372.639 140.669 373.301 140.416C374.494 139.961 377.069 138.597 377.4 137.284C377.44 137.127 377.545 136.712 376.958 136.031C374.389 133.046 368.239 123.343 367.98 122.93C367.6 122.331 367.778 121.535 368.38 121.156C368.98 120.774 369.775 120.954 370.157 121.557C370.22 121.656 376.467 131.513 378.912 134.353C380.12 135.757 380.114 137.067 379.897 137.922C379.144 140.883 374.717 142.636 374.214 142.825C374.063 142.883 373.91 142.91 373.759 142.91V142.907Z" fill="#23010B"/>
<path d="M371.335 151.77C366.492 151.77 362.914 149.352 362.724 149.222C362.14 148.819 361.992 148.018 362.396 147.433C362.8 146.849 363.598 146.698 364.182 147.102C364.248 147.147 369.151 150.409 374.753 148.683C375.431 148.469 376.154 148.855 376.361 149.533C376.569 150.213 376.19 150.933 375.512 151.141C374.054 151.59 372.648 151.767 371.332 151.767L371.335 151.77Z" fill="#23010B"/>
<path d="M329.315 152.382C328.761 152.382 328.252 152.02 328.083 151.463C326.141 145 321.831 144.693 321.647 144.684C320.943 144.645 320.394 144.048 320.425 143.34C320.455 142.636 321.018 142.076 321.747 142.109C322.003 142.118 328.053 142.413 330.55 150.719C330.755 151.4 330.369 152.117 329.689 152.321C329.565 152.358 329.442 152.376 329.318 152.376L329.315 152.382Z" fill="#23010B"/>
<path d="M359.029 137.281C356.652 137.281 353.547 136.651 349.674 135.392C348.997 135.173 348.629 134.447 348.849 133.769C349.069 133.092 349.801 132.727 350.472 132.944C359.375 135.841 361.462 134.414 361.89 133.908C362.652 133.007 361.917 131.116 361.676 130.658C361.348 130.029 361.592 129.252 362.221 128.92C362.851 128.589 363.628 128.836 363.959 129.465C364.037 129.616 365.865 133.191 363.854 135.567C362.887 136.709 361.291 137.278 359.029 137.278V137.281Z" fill="#0C0C17"/>
<path d="M385.556 131.917C382.002 131.917 378.328 128.188 377.873 127.71C377.382 127.195 377.4 126.381 377.915 125.89C378.43 125.4 379.244 125.418 379.735 125.93C380.756 126.993 384.117 129.89 386.156 129.255C387.484 128.839 388.071 126.77 388.333 125.107C388.444 124.406 389.107 123.927 389.803 124.035C390.505 124.147 390.986 124.803 390.875 125.505C390.33 128.971 389.002 131.059 386.921 131.709C386.472 131.851 386.014 131.911 385.553 131.911L385.556 131.917Z" fill="#0C0C17"/>
<path d="M247.17 288.678C253.552 272.664 262.343 257.488 266.581 250.537C267.069 249.076 267.87 247.697 269.062 246.562C303.535 213.776 333.309 212.11 334.559 212.053C339.898 211.821 344.386 215.935 344.672 221.275C344.678 221.414 344.651 221.543 344.651 221.682C346.596 221.393 347.765 221.326 347.991 221.317C353.331 221.085 357.818 225.199 358.104 230.539C358.267 233.614 356.942 236.406 354.791 238.309C359.646 238.629 363.577 242.493 363.845 247.471C364.128 252.808 360.014 257.383 354.677 257.717C354.632 257.717 353.707 257.789 352.048 258.091C353.698 259.28 355.011 260.967 355.671 263.057C357.279 268.156 354.433 273.61 349.349 275.266C349.123 275.342 326.318 283.073 305.293 316.738C305.293 316.738 294.412 341.814 274.914 345.934L257.208 400.317C227.943 393.052 206.828 367.567 205.132 337.462L204.301 322.701L247.167 288.684L247.17 288.678Z" fill="white"/>
<path d="M289.482 251.13C289.1 251.13 288.723 250.962 288.47 250.639C288.031 250.079 288.127 249.272 288.687 248.832C289.934 247.854 319.476 224.82 344.431 220.414C345.127 220.284 345.799 220.757 345.922 221.456C346.046 222.154 345.579 222.823 344.877 222.947C320.554 227.241 290.575 250.618 290.274 250.853C290.039 251.04 289.759 251.127 289.479 251.127L289.482 251.13Z" fill="#1D1D1B"/>
<path d="M279.176 239.93C278.793 239.93 278.417 239.761 278.164 239.436C277.724 238.879 277.821 238.068 278.381 237.629C279.628 236.65 309.173 213.616 334.125 209.21C334.239 209.186 334.354 209.186 334.471 209.195C334.824 209.228 343.151 210.092 345.651 216.586C345.907 217.248 345.576 217.995 344.913 218.251C344.253 218.504 343.506 218.176 343.25 217.513C341.492 212.939 335.453 211.927 334.39 211.782C310.109 216.161 280.275 239.421 279.974 239.656C279.739 239.842 279.459 239.93 279.179 239.93H279.176Z" fill="#1D1D1B"/>
<path d="M298.996 267.849C298.613 267.849 298.237 267.68 297.984 267.355C297.544 266.797 297.641 265.987 298.201 265.548C299.448 264.569 328.993 241.535 353.945 237.129C354.647 236.999 355.312 237.472 355.436 238.171C355.559 238.87 355.092 239.538 354.391 239.662C330.077 243.956 300.089 267.334 299.788 267.571C299.553 267.758 299.273 267.846 298.993 267.846L298.996 267.849Z" fill="#1D1D1B"/>
<path d="M306.411 283.106C306.019 283.106 305.637 282.931 305.384 282.594C304.956 282.028 305.068 281.221 305.634 280.793C317.166 272.083 334.17 260.931 349.68 257.268C350.373 257.109 351.066 257.533 351.228 258.226C351.391 258.919 350.963 259.611 350.271 259.774C335.197 263.334 318.521 274.285 307.185 282.847C306.953 283.022 306.679 283.106 306.411 283.106Z" fill="#1D1D1B"/>
</g>
<defs>
<clipPath id="clip0_314_664">
<rect width="648.923" height="836" fill="white"/>
</clipPath>
</defs>
</svg>
