<svg width="188" height="181" viewBox="0 0 188 181" fill="none" xmlns="http://www.w3.org/2000/svg">
<g clip-path="url(#clip0_73_54476)">
<path d="M164.307 60.0299C163.796 57.8968 162.94 55.8431 161.346 54.2868L110.543 4.69008C109.24 3.41738 107.781 2.31308 106.202 1.40331L105.256 0.857453C103.347 -0.242976 101.007 -0.287496 99.0579 0.739377L31.2553 36.4554C27.8437 38.2527 25.4676 41.5414 24.8327 45.345H24.855C24.825 45.5201 24.8008 45.6953 24.7921 45.8753L20.6952 128.931C20.5084 132.457 23.0819 135.526 26.5864 135.956L151.858 151.337C152.689 151.439 153.531 151.396 154.346 151.21C157.802 150.421 160.314 147.435 160.502 143.896L164.546 61.8349C164.579 61.2058 164.447 60.6106 164.307 60.0309V60.0299Z" fill="url(#paint0_linear_73_54476)"/>
<mask id="mask0_73_54476" style="mask-type:luminance" maskUnits="userSpaceOnUse" x="20" y="-1" width="145" height="153">
<path style="mix-blend-mode:multiply" d="M164.307 60.0299C163.967 57.8629 162.94 55.8431 161.346 54.2868L110.543 4.69008C109.24 3.41738 107.781 2.31308 106.202 1.40331L105.256 0.857453C103.347 -0.242976 101.007 -0.287496 99.0579 0.739377L31.2553 36.4554C27.8437 38.2527 25.4676 41.5414 24.8327 45.345H24.855C24.825 45.5201 24.8008 45.6953 24.7921 45.8753L20.6952 128.931C20.5084 132.457 23.0819 135.526 26.5864 135.956L151.858 151.337C152.689 151.439 153.531 151.396 154.346 151.21C157.802 150.421 160.314 147.435 160.502 143.896L164.546 61.8349C164.579 61.2058 164.492 60.598 164.307 60.0309V60.0299Z" fill="url(#paint1_linear_73_54476)"/>
</mask>
<g mask="url(#mask0_73_54476)">
<path d="M164.307 60.0299C163.796 57.8968 162.94 55.8431 161.346 54.2868L110.543 4.69008C109.24 3.41738 107.781 2.31308 106.202 1.40331L105.256 0.857453C103.347 -0.242976 101.007 -0.287496 99.0579 0.739377L31.2553 36.4554C27.8437 38.2527 25.4676 41.5414 24.8327 45.345H24.855C24.825 45.5201 24.8008 45.6953 24.7921 45.8753L20.6952 128.931C20.5084 132.457 23.0819 135.526 26.5864 135.956L151.858 151.337C152.689 151.439 153.531 151.396 154.346 151.21C157.802 150.421 160.314 147.435 160.502 143.896L164.546 61.8349C164.579 61.2058 164.447 60.6106 164.307 60.0309V60.0299Z" fill="url(#paint2_linear_73_54476)"/>
</g>
<mask id="mask1_73_54476" style="mask-type:luminance" maskUnits="userSpaceOnUse" x="20" y="-1" width="145" height="153">
<path style="mix-blend-mode:multiply" d="M164.307 60.0299C163.967 57.8629 162.94 55.8431 161.346 54.2868L110.543 4.69008C109.24 3.41738 107.781 2.31308 106.202 1.40331L105.256 0.857453C103.347 -0.242976 101.007 -0.287496 99.0579 0.739377L31.2553 36.4554C27.8437 38.2527 25.4676 41.5414 24.8327 45.345H24.855C24.825 45.5201 24.8008 45.6953 24.7921 45.8753L20.6952 128.931C20.5084 132.457 23.0819 135.526 26.5864 135.956L151.858 151.337C152.689 151.439 153.531 151.396 154.346 151.21C157.802 150.421 160.314 147.435 160.502 143.896L164.546 61.8349C164.579 61.2058 164.492 60.598 164.307 60.0309V60.0299Z" fill="url(#paint3_linear_73_54476)"/>
</mask>
<g mask="url(#mask1_73_54476)">
<path d="M164.307 60.0299C163.967 57.8629 162.94 55.8431 161.346 54.2868L110.543 4.69008C109.24 3.41738 107.781 2.31308 106.202 1.40331L105.256 0.857453C103.347 -0.242976 101.007 -0.287496 99.0579 0.739377L31.2553 36.4554C27.8437 38.2527 25.4676 41.5414 24.8327 45.345H24.855C24.825 45.5201 24.8008 45.6953 24.7921 45.8753L20.6952 128.931C20.5084 132.457 23.0819 135.526 26.5864 135.956L151.858 151.337C152.689 151.439 153.531 151.396 154.346 151.21C157.802 150.421 160.314 147.435 160.502 143.896L164.546 61.8349C164.579 61.2058 164.492 60.598 164.307 60.0309V60.0299Z" fill="url(#paint4_linear_73_54476)"/>
</g>
<mask id="mask2_73_54476" style="mask-type:luminance" maskUnits="userSpaceOnUse" x="31" y="12" width="100" height="107">
<path d="M117.094 21.7821C117.051 21.5343 117.002 21.2875 116.945 21.0417C115.764 15.9683 111.016 11.5685 105.58 12.0669C105.58 12.0669 42.4532 17.9098 42.4522 17.9098C35.8845 18.5176 30.7114 23.8019 31.8912 30.7374C31.9028 30.8081 45.2309 109.148 45.2483 109.249C46.2142 114.927 51.1656 118.868 56.7616 118.964C56.7616 118.964 119.808 113.129 119.889 113.121C123.633 112.775 127.285 110.62 129.254 107.39C131.514 103.685 130.324 99.5515 129.648 95.5775C128.144 88.7156 127.278 81.6475 126.1 74.7217C124.107 63.008 122.115 51.2952 120.122 39.5815C119.112 33.6487 118.105 27.7159 117.094 21.783V21.7821Z" fill="white"/>
</mask>
<g mask="url(#mask2_73_54476)">
<path d="M117.106 21.7278C117.064 21.4791 117.014 21.2323 116.957 20.9874C115.775 15.9111 111.025 11.5094 105.586 12.0078L42.4241 17.8536C35.8535 18.4614 30.6765 23.7486 31.8573 30.688C31.8689 30.7587 45.2047 109.141 45.2221 109.242C46.189 114.923 51.1433 118.866 56.7413 118.963C56.7413 118.963 119.823 113.124 119.903 113.118C123.65 112.771 127.303 110.614 129.274 107.383C131.536 103.675 130.344 99.5408 129.668 95.5639C128.164 88.6981 127.296 81.6271 126.118 74.6964C124.124 62.9769 122.13 51.2565 120.135 39.5369C119.126 33.6012 118.117 27.6645 117.106 21.7288V21.7278Z" fill="url(#paint5_linear_73_54476)"/>
<mask id="mask3_73_54476" style="mask-type:luminance" maskUnits="userSpaceOnUse" x="31" y="11" width="100" height="108">
<path style="mix-blend-mode:multiply" d="M117.106 21.7278C117.064 21.4791 117.014 21.2323 116.957 20.9874C115.775 15.9111 111.025 11.5094 105.586 12.0078L42.4241 17.8536C35.8535 18.4614 30.6765 23.7486 31.8573 30.688C31.8689 30.7587 45.2047 109.141 45.2221 109.242C46.189 114.923 51.1433 118.866 56.7413 118.963C56.7413 118.963 119.823 113.124 119.903 113.118C123.65 112.771 127.303 110.614 129.274 107.383C131.536 103.675 130.344 99.5408 129.668 95.5639C128.164 88.6981 127.296 81.6271 126.118 74.6964C124.124 62.9769 122.13 51.2565 120.135 39.5369C119.126 33.6012 118.117 27.6645 117.106 21.7288V21.7278Z" fill="url(#paint6_linear_73_54476)"/>
</mask>
<g mask="url(#mask3_73_54476)">
<path d="M117.106 21.7278C117.064 21.4791 117.014 21.2323 116.957 20.9874C115.775 15.9111 111.025 11.5094 105.586 12.0078L42.4241 17.8536C35.8535 18.4614 30.6765 23.7486 31.8573 30.688C31.8689 30.7587 45.2047 109.141 45.2221 109.242C46.189 114.923 51.1433 118.866 56.7413 118.963C56.7413 118.963 119.823 113.124 119.903 113.118C123.65 112.771 127.303 110.614 129.274 107.383C131.536 103.675 130.344 99.5408 129.668 95.5639C128.164 88.6981 127.296 81.6271 126.118 74.6964C124.124 62.9769 122.13 51.2565 120.135 39.5369C119.126 33.6012 118.117 27.6645 117.106 21.7288V21.7278Z" fill="url(#paint7_linear_73_54476)"/>
</g>
<mask id="mask4_73_54476" style="mask-type:luminance" maskUnits="userSpaceOnUse" x="35" y="13" width="82" height="93">
<path style="mix-blend-mode:multiply" d="M100.058 78.2823C118.22 54.9181 122.119 27.5633 108.767 17.1837C95.4146 6.80409 69.8668 17.3302 51.7045 40.6944C33.5421 64.0586 29.6429 91.4134 42.9953 101.793C56.3477 112.173 81.8955 101.646 100.058 78.2823Z" fill="url(#paint8_radial_73_54476)"/>
</mask>
<g mask="url(#mask4_73_54476)">
<path d="M100.058 78.2823C118.22 54.9181 122.119 27.5633 108.767 17.1837C95.4146 6.80409 69.8668 17.3302 51.7045 40.6944C33.5421 64.0586 29.6429 91.4134 42.9953 101.793C56.3477 112.173 81.8955 101.646 100.058 78.2823Z" fill="url(#paint9_radial_73_54476)"/>
</g>
<mask id="mask5_73_54476" style="mask-type:luminance" maskUnits="userSpaceOnUse" x="0" y="32" width="97" height="68">
<path style="mix-blend-mode:multiply" d="M95.7493 96.3331C100.865 88.3464 83.7804 68.2729 57.59 51.4977C31.3997 34.7225 6.02118 27.598 0.905617 35.5847C-4.20995 43.5714 12.8746 63.6449 39.0649 80.4201C65.2553 97.1953 90.6338 104.32 95.7493 96.3331Z" fill="url(#paint10_radial_73_54476)"/>
</mask>
<g mask="url(#mask5_73_54476)">
<path d="M95.7493 96.3331C100.865 88.3464 83.7804 68.2729 57.59 51.4977C31.3997 34.7225 6.02118 27.598 0.905617 35.5847C-4.20995 43.5714 12.8746 63.6449 39.0649 80.4201C65.2553 97.1953 90.6338 104.32 95.7493 96.3331Z" fill="url(#paint11_radial_73_54476)"/>
</g>
</g>
<mask id="mask6_73_54476" style="mask-type:luminance" maskUnits="userSpaceOnUse" x="57" y="5" width="105" height="122">
<path d="M160.754 42.3107C160.825 42.0687 160.888 41.8248 160.943 41.5799C162.094 36.4998 159.741 30.4692 154.633 28.5461C154.633 28.5461 95.2813 6.26268 95.2804 6.26268C89.1056 3.94471 82.1449 6.4427 80.1812 13.1972C80.1609 13.2659 57.9761 89.571 57.9481 89.6707C56.3405 95.2009 59.0766 100.907 64.0696 103.435C64.0696 103.435 123.346 125.691 123.421 125.719C126.942 127.041 131.168 126.694 134.349 124.647C138 122.299 138.731 118.061 139.857 114.19C141.497 107.36 143.802 100.622 145.764 93.875C149.08 82.4661 152.398 71.0563 155.715 59.6475C157.395 53.8685 159.076 48.0906 160.755 42.3107H160.754Z" fill="white"/>
</mask>
<g mask="url(#mask6_73_54476)">
<path d="M160.79 42.2692C160.861 42.0273 160.924 41.7834 160.979 41.5375C162.131 36.4545 159.777 30.421 154.665 28.496L95.2802 6.19996C89.1025 3.88006 82.138 6.37997 80.1723 13.1384C80.152 13.2071 57.9556 89.5547 57.9266 89.6535C56.3181 95.1866 59.0561 100.896 64.0511 103.426C64.0511 103.426 123.36 125.693 123.435 125.722C126.958 127.044 131.187 126.697 134.369 124.65C138.022 122.301 138.753 118.06 139.88 114.187C141.521 107.353 143.827 100.611 145.79 93.8616C149.108 82.446 152.427 71.0304 155.747 59.6148C157.428 53.8329 159.11 48.0511 160.79 42.2692Z" fill="url(#paint12_linear_73_54476)"/>
<mask id="mask7_73_54476" style="mask-type:luminance" maskUnits="userSpaceOnUse" x="57" y="5" width="105" height="122">
<path style="mix-blend-mode:multiply" d="M160.79 42.2692C160.861 42.0273 160.924 41.7834 160.979 41.5375C162.131 36.4545 159.777 30.421 154.665 28.496L95.2802 6.19996C89.1025 3.88006 82.138 6.37997 80.1723 13.1384C80.152 13.2071 57.9556 89.5547 57.9266 89.6535C56.3181 95.1866 59.0561 100.896 64.0511 103.426C64.0511 103.426 123.36 125.693 123.435 125.722C126.958 127.044 131.187 126.697 134.369 124.65C138.022 122.301 138.753 118.06 139.88 114.187C141.521 107.353 143.827 100.611 145.79 93.8616C149.108 82.446 152.427 71.0304 155.747 59.6148C157.428 53.8329 159.11 48.0511 160.79 42.2692Z" fill="url(#paint13_linear_73_54476)"/>
</mask>
<g mask="url(#mask7_73_54476)">
<path d="M160.79 42.2692C160.861 42.0273 160.924 41.7834 160.979 41.5375C162.131 36.4545 159.777 30.421 154.665 28.496L95.2802 6.19996C89.1025 3.88006 82.138 6.37997 80.1723 13.1384C80.152 13.2071 57.9556 89.5547 57.9266 89.6535C56.3181 95.1866 59.0561 100.896 64.0511 103.426C64.0511 103.426 123.36 125.693 123.435 125.722C126.958 127.044 131.187 126.697 134.369 124.65C138.022 122.301 138.753 118.06 139.88 114.187C141.521 107.353 143.827 100.611 145.79 93.8616C149.108 82.446 152.427 71.0304 155.747 59.6148C157.428 53.8329 159.11 48.0511 160.79 42.2692Z" fill="url(#paint14_linear_73_54476)"/>
</g>
<mask id="mask8_73_54476" style="mask-type:luminance" maskUnits="userSpaceOnUse" x="71" y="50" width="105" height="73">
<path style="mix-blend-mode:multiply" d="M132.143 99.7125C160.425 81.2896 179.563 60.538 174.889 53.3626C170.215 46.1871 143.499 55.3049 115.217 73.7278C86.9343 92.1507 67.796 112.902 72.4701 120.078C77.1442 127.253 103.861 118.135 132.143 99.7125Z" fill="url(#paint15_radial_73_54476)"/>
</mask>
<g mask="url(#mask8_73_54476)">
<path d="M132.143 99.7125C160.425 81.2896 179.563 60.538 174.889 53.3626C170.215 46.1871 143.499 55.3049 115.217 73.7278C86.9343 92.1507 67.796 112.902 72.4701 120.078C77.1442 127.253 103.861 118.135 132.143 99.7125Z" fill="url(#paint16_radial_73_54476)"/>
</g>
<mask id="mask9_73_54476" style="mask-type:luminance" maskUnits="userSpaceOnUse" x="8" y="29" width="93" height="75">
<path style="mix-blend-mode:multiply" d="M99.3048 101.286C105.141 93.7785 89.9144 72.1783 65.2956 53.0406C40.6768 33.903 15.9882 24.4749 10.1521 31.9825C4.31603 39.4901 19.5425 61.0903 44.1613 80.228C68.7802 99.3656 93.4687 108.794 99.3048 101.286Z" fill="url(#paint17_radial_73_54476)"/>
</mask>
<g mask="url(#mask9_73_54476)">
<path d="M99.3048 101.286C105.141 93.7785 89.9144 72.1783 65.2956 53.0406C40.6768 33.903 15.9882 24.4749 10.1521 31.9825C4.31603 39.4901 19.5425 61.0903 44.1613 80.228C68.7802 99.3656 93.4687 108.794 99.3048 101.286Z" fill="url(#paint18_radial_73_54476)"/>
</g>
</g>
<path d="M104.158 63.4291C103.056 63.0555 102.147 62.259 101.631 61.2157L94.421 46.6149C93.3476 44.4412 94.239 41.8087 96.4128 40.7353C98.5875 39.662 101.219 40.5544 102.292 42.7281L107.559 53.3937L128.632 42.9865C130.806 41.9132 133.437 42.8046 134.512 44.9783C135.585 47.1521 134.694 49.7846 132.52 50.8579L107.511 63.2085C106.467 63.7234 105.262 63.8037 104.158 63.4301V63.4291Z" fill="url(#paint19_linear_73_54476)"/>
<mask id="mask10_73_54476" style="mask-type:luminance" maskUnits="userSpaceOnUse" x="20" y="41" width="145" height="111">
<path d="M157.297 59.0523L94.0551 96.9536L33.6671 42.3532C32.6489 41.4328 31.2455 41.066 29.907 41.3718L28.0691 41.7919C26.236 42.211 24.9023 43.7953 24.8027 45.6729L20.6739 129.321C20.4987 132.628 22.9125 135.506 26.2002 135.91L151.757 151.327C152.655 151.437 153.563 151.39 154.444 151.189C157.841 150.413 160.312 147.478 160.496 143.998L164.574 61.2831C164.683 59.2284 162.796 57.6402 160.789 58.098L158.199 58.6893C157.881 58.7619 157.576 58.8848 157.296 59.0523H157.297Z" fill="white"/>
</mask>
<g mask="url(#mask10_73_54476)">
<path d="M157.308 59.0372L94.0551 96.9454L33.6574 42.3353C32.6392 41.4139 31.2349 41.0481 29.8964 41.3539L28.0575 41.7739C26.2235 42.193 24.8898 43.7774 24.7911 45.6559L20.6623 129.318C20.4871 132.626 22.8331 135.543 26.1209 135.946L151.768 151.435C152.586 151.565 153.781 151.473 154.75 151.244C158.141 150.439 160.416 147.474 160.6 143.993L164.588 61.2681C164.696 59.2124 162.809 57.6242 160.803 58.082L158.213 58.6733C157.895 58.7459 157.59 58.8688 157.31 59.0362L157.308 59.0372Z" fill="url(#paint20_linear_73_54476)"/>
<mask id="mask11_73_54476" style="mask-type:luminance" maskUnits="userSpaceOnUse" x="20" y="41" width="145" height="111">
<path style="mix-blend-mode:multiply" d="M157.308 59.0372L94.0551 96.9454L33.6574 42.3353C32.6392 41.4139 31.2349 41.0481 29.8964 41.3539L28.0575 41.7739C26.2235 42.193 24.8898 43.7774 24.7911 45.6559L20.6623 129.318C20.4871 132.626 22.9018 135.505 26.1896 135.908L151.768 151.328C152.665 151.438 153.574 151.392 154.456 151.191C157.854 150.414 160.325 147.479 160.509 143.998L164.588 61.269C164.696 59.2134 162.809 57.6251 160.803 58.0829L158.213 58.6743C157.894 58.7469 157.59 58.8698 157.31 59.0372H157.308Z" fill="url(#paint21_linear_73_54476)"/>
</mask>
<g mask="url(#mask11_73_54476)">
<path d="M157.308 59.0372L94.055 96.9454L33.6573 42.3353C32.6391 41.4139 31.2348 41.0481 29.8963 41.3539L28.0574 41.7739C26.2233 42.193 24.8897 43.7774 24.7909 45.6559L20.5538 129.427C20.3786 132.734 22.7933 135.613 26.0811 136.017L151.876 151.436C152.774 151.547 153.983 151.422 154.672 151.299C158.103 150.684 160.433 147.587 160.617 144.106L164.588 61.269C164.696 59.2134 162.809 57.6251 160.803 58.0829L158.213 58.6743C157.894 58.7469 157.59 58.8698 157.31 59.0372H157.308Z" fill="url(#paint22_linear_73_54476)"/>
</g>
<mask id="mask12_73_54476" style="mask-type:luminance" maskUnits="userSpaceOnUse" x="40" y="-1" width="96" height="145">
<path style="mix-blend-mode:multiply" d="M134.887 76.9705C139.472 37.3986 122.227 2.89005 96.3685 -0.106475C70.5099 -3.103 45.8299 26.5472 41.2443 66.1192C36.6587 105.691 53.9039 140.2 79.7625 143.196C105.621 146.193 130.301 116.542 134.887 76.9705Z" fill="url(#paint23_radial_73_54476)"/>
</mask>
<g mask="url(#mask12_73_54476)">
<path d="M186.212 129.585C180.859 175.796 169.099 183.422 138.901 179.924C108.703 176.427 85.965 165.65 91.3181 119.437C96.6712 73.2263 125.489 38.6 155.687 42.0978C185.884 45.5956 191.565 83.3731 186.211 129.584L186.212 129.585Z" fill="url(#paint24_radial_73_54476)"/>
</g>
<mask id="mask13_73_54476" style="mask-type:luminance" maskUnits="userSpaceOnUse" x="-9" y="13" width="72" height="170">
<path style="mix-blend-mode:multiply" d="M61.9852 99.059C63.1787 52.5539 48.2825 14.447 28.7137 13.9448C9.14495 13.4426 -7.68613 50.7353 -8.87954 97.2404C-10.073 143.746 4.82322 181.852 24.392 182.355C43.9608 182.857 60.7918 145.564 61.9852 99.059Z" fill="url(#paint25_radial_73_54476)"/>
</mask>
<g mask="url(#mask13_73_54476)">
<path d="M61.9839 99.054C60.7925 145.559 46.4357 166.8 26.867 166.298C7.29834 165.797 3.34474 142.83 4.53614 96.3247C5.72755 49.8193 9.14013 13.4393 28.7088 13.9407C48.2774 14.442 63.1753 52.5486 61.983 99.053L61.9839 99.054Z" fill="url(#paint26_radial_73_54476)"/>
</g>
<mask id="mask14_73_54476" style="mask-type:luminance" maskUnits="userSpaceOnUse" x="26" y="41" width="69" height="58">
<path style="mix-blend-mode:multiply" d="M27.6752 41.8822L29.9661 41.3586C31.2678 41.0615 32.6325 41.4176 33.6226 42.3129L94.0552 96.9539C90.8903 98.8509 86.8574 98.456 84.1213 95.9813L27.0287 44.3599C26.1625 43.5759 26.5361 42.1416 27.6752 41.8812V41.8822Z" fill="url(#paint27_linear_73_54476)"/>
</mask>
<g mask="url(#mask14_73_54476)">
<path d="M27.6752 41.8822L29.9661 41.3586C31.2678 41.0615 32.6325 41.4176 33.6226 42.3129L94.0552 96.9539C90.8903 98.8509 86.8574 98.456 84.1213 95.9813L27.0287 44.3599C26.1625 43.5759 26.5361 42.1416 27.6752 41.8812V41.8822Z" fill="url(#paint28_linear_73_54476)"/>
</g>
</g>
</g>
<defs>
<linearGradient id="paint0_linear_73_54476" x1="103.32" y1="1.26782" x2="87.3907" y2="140.961" gradientUnits="userSpaceOnUse">
<stop stop-color="#E8C7FC"/>
<stop offset="0.16" stop-color="#E6C5FB"/>
<stop offset="0.22" stop-color="#DFBFFA"/>
<stop offset="0.26" stop-color="#D3B4F8"/>
<stop offset="0.29" stop-color="#C2A5F5"/>
<stop offset="0.32" stop-color="#AC91F1"/>
<stop offset="0.33" stop-color="#A389F0"/>
<stop offset="0.38" stop-color="#A389F0"/>
<stop offset="0.65" stop-color="#A389F0"/>
</linearGradient>
<linearGradient id="paint1_linear_73_54476" x1="59.5267" y1="128.131" x2="154.104" y2="31.9927" gradientUnits="userSpaceOnUse">
<stop offset="0.85"/>
<stop offset="0.86" stop-color="#111111"/>
<stop offset="0.87" stop-color="#3F3F3F"/>
<stop offset="0.89" stop-color="#8A8A8A"/>
<stop offset="0.91" stop-color="#EFEFEF"/>
<stop offset="0.92" stop-color="white"/>
<stop offset="1" stop-color="white"/>
</linearGradient>
<linearGradient id="paint2_linear_73_54476" x1="59.5267" y1="128.131" x2="154.104" y2="31.9927" gradientUnits="userSpaceOnUse">
<stop offset="0.85" stop-color="#E8C7FC"/>
<stop offset="0.87" stop-color="#D6B7F8"/>
<stop offset="0.91" stop-color="#A88EF1"/>
<stop offset="0.92" stop-color="#A389F0"/>
<stop offset="0.94" stop-color="#9980F1"/>
<stop offset="1" stop-color="#7E69F4"/>
</linearGradient>
<linearGradient id="paint3_linear_73_54476" x1="103.435" y1="115.664" x2="50.2742" y2="14.7459" gradientUnits="userSpaceOnUse">
<stop offset="0.87"/>
<stop offset="0.9" stop-color="#808080"/>
<stop offset="0.91" stop-color="#6E6E6E"/>
<stop offset="0.92" stop-color="#404040"/>
<stop offset="0.94"/>
</linearGradient>
<linearGradient id="paint4_linear_73_54476" x1="103.435" y1="115.664" x2="50.2742" y2="14.7459" gradientUnits="userSpaceOnUse">
<stop offset="0.87" stop-color="#E8C7FC"/>
<stop offset="0.9" stop-color="white"/>
<stop offset="0.92" stop-color="#F7EDFE"/>
<stop offset="0.94" stop-color="#E8C7FC"/>
</linearGradient>
<linearGradient id="paint5_linear_73_54476" x1="34.0716" y1="72.8983" x2="129.504" y2="57.8882" gradientUnits="userSpaceOnUse">
<stop offset="0.02" stop-color="#BED8D9"/>
<stop offset="0.05" stop-color="#D6E7E9"/>
<stop offset="0.08" stop-color="#EBF3F6"/>
<stop offset="0.1" stop-color="#F3F8FB"/>
<stop offset="0.82" stop-color="#DFEEF0"/>
<stop offset="0.85" stop-color="#D7E7E9"/>
<stop offset="0.9" stop-color="#C2D4D7"/>
<stop offset="0.96" stop-color="#A6BBBE"/>
</linearGradient>
<linearGradient id="paint6_linear_73_54476" x1="76.4461" y1="10.5384" x2="86.0379" y2="122.751" gradientUnits="userSpaceOnUse">
<stop stop-color="white"/>
<stop offset="0.09" stop-color="white"/>
<stop offset="0.16"/>
<stop offset="0.47"/>
<stop offset="0.87" stop-color="white"/>
</linearGradient>
<linearGradient id="paint7_linear_73_54476" x1="76.4461" y1="10.5384" x2="86.0379" y2="122.751" gradientUnits="userSpaceOnUse">
<stop stop-color="#BED8D9"/>
<stop offset="0.03" stop-color="#D6E7E9"/>
<stop offset="0.06" stop-color="#EBF3F6"/>
<stop offset="0.09" stop-color="#F3F8FB"/>
<stop offset="0.16" stop-color="#F1F7FA"/>
<stop offset="0.47" stop-color="#DFEEF0"/>
<stop offset="0.87" stop-color="#A6BBBE"/>
</linearGradient>
<radialGradient id="paint8_radial_73_54476" cx="0" cy="0" r="1" gradientUnits="userSpaceOnUse" gradientTransform="translate(74.5021 58.3232) rotate(37.86) scale(30.794 53.6696)">
<stop stop-color="#808080"/>
<stop offset="0.04" stop-color="#797979"/>
<stop offset="0.5" stop-color="#383838"/>
<stop offset="0.83" stop-color="#0F0F0F"/>
<stop offset="1"/>
</radialGradient>
<radialGradient id="paint9_radial_73_54476" cx="0" cy="0" r="1" gradientUnits="userSpaceOnUse" gradientTransform="translate(74.5021 58.3232) rotate(37.86) scale(30.794 53.6696)">
<stop stop-color="#729EB1"/>
<stop offset="1" stop-color="#729EB1"/>
</radialGradient>
<radialGradient id="paint10_radial_73_54476" cx="0" cy="0" r="1" gradientUnits="userSpaceOnUse" gradientTransform="translate(48.6417 65.9296) rotate(-57.36) scale(17.1889 56.4777)">
<stop stop-color="#808080"/>
<stop offset="0.04" stop-color="#797979"/>
<stop offset="0.5" stop-color="#383838"/>
<stop offset="0.83" stop-color="#0F0F0F"/>
<stop offset="1"/>
</radialGradient>
<radialGradient id="paint11_radial_73_54476" cx="0" cy="0" r="1" gradientUnits="userSpaceOnUse" gradientTransform="translate(48.6417 65.9296) rotate(-57.36) scale(17.1889 56.4777)">
<stop stop-color="#729EB1"/>
<stop offset="1" stop-color="#729EB1"/>
</radialGradient>
<linearGradient id="paint12_linear_73_54476" x1="63.75" y1="52.0779" x2="156.178" y2="80.2154" gradientUnits="userSpaceOnUse">
<stop offset="0.02" stop-color="#BED8D9"/>
<stop offset="0.05" stop-color="#D6E7E9"/>
<stop offset="0.08" stop-color="#EBF3F6"/>
<stop offset="0.1" stop-color="#F3F8FB"/>
<stop offset="0.82" stop-color="#DFEEF0"/>
<stop offset="0.85" stop-color="#D7E7E9"/>
<stop offset="0.9" stop-color="#C2D4D7"/>
<stop offset="0.96" stop-color="#A6BBBE"/>
</linearGradient>
<linearGradient id="paint13_linear_73_54476" x1="129.094" y1="14.4543" x2="88.7591" y2="119.614" gradientUnits="userSpaceOnUse">
<stop stop-color="white"/>
<stop offset="0.09" stop-color="white"/>
<stop offset="0.16"/>
<stop offset="0.47"/>
<stop offset="0.87" stop-color="white"/>
</linearGradient>
<linearGradient id="paint14_linear_73_54476" x1="129.094" y1="14.4543" x2="88.7591" y2="119.614" gradientUnits="userSpaceOnUse">
<stop stop-color="#BED8D9"/>
<stop offset="0.03" stop-color="#D6E7E9"/>
<stop offset="0.06" stop-color="#EBF3F6"/>
<stop offset="0.09" stop-color="#F3F8FB"/>
<stop offset="0.16" stop-color="#F1F7FA"/>
<stop offset="0.47" stop-color="#DFEEF0"/>
<stop offset="0.87" stop-color="#A6BBBE"/>
</linearGradient>
<radialGradient id="paint15_radial_73_54476" cx="0" cy="0" r="1" gradientUnits="userSpaceOnUse" gradientTransform="translate(121.124 82.2732) rotate(56.92) scale(15.8352 60.7016)">
<stop stop-color="#808080"/>
<stop offset="0.04" stop-color="#797979"/>
<stop offset="0.5" stop-color="#383838"/>
<stop offset="0.83" stop-color="#0F0F0F"/>
<stop offset="1"/>
</radialGradient>
<radialGradient id="paint16_radial_73_54476" cx="0" cy="0" r="1" gradientUnits="userSpaceOnUse" gradientTransform="translate(121.124 82.2732) rotate(56.92) scale(15.8352 60.7016)">
<stop stop-color="#729EB1"/>
<stop offset="1" stop-color="#729EB1"/>
</radialGradient>
<radialGradient id="paint17_radial_73_54476" cx="0" cy="0" r="1" gradientUnits="userSpaceOnUse" gradientTransform="translate(55.0136 66.5274) rotate(-52.14) scale(17.2352 56.63)">
<stop stop-color="#808080"/>
<stop offset="0.04" stop-color="#797979"/>
<stop offset="0.5" stop-color="#383838"/>
<stop offset="0.83" stop-color="#0F0F0F"/>
<stop offset="1"/>
</radialGradient>
<radialGradient id="paint18_radial_73_54476" cx="0" cy="0" r="1" gradientUnits="userSpaceOnUse" gradientTransform="translate(55.0136 66.5274) rotate(-52.14) scale(17.2352 56.63)">
<stop stop-color="#729EB1"/>
<stop offset="1" stop-color="#729EB1"/>
</radialGradient>
<linearGradient id="paint19_linear_73_54476" x1="108.959" y1="35.3203" x2="119.985" y2="56.8285" gradientUnits="userSpaceOnUse">
<stop stop-color="#67BF67"/>
<stop offset="1" stop-color="#48A153"/>
</linearGradient>
<linearGradient id="paint20_linear_73_54476" x1="17.7239" y1="92.8098" x2="175.005" y2="100.382" gradientUnits="userSpaceOnUse">
<stop stop-color="#C9B3F8"/>
<stop offset="0.09" stop-color="#E8C7FC"/>
<stop offset="0.85" stop-color="#E8C7FC"/>
<stop offset="0.87" stop-color="#D6B7F8"/>
<stop offset="0.9" stop-color="#A88EF1"/>
<stop offset="0.91" stop-color="#A389F0"/>
<stop offset="0.93" stop-color="#9980F1"/>
<stop offset="1" stop-color="#7E69F4"/>
</linearGradient>
<linearGradient id="paint21_linear_73_54476" x1="100.865" y1="28.3597" x2="85.2836" y2="154.493" gradientUnits="userSpaceOnUse">
<stop offset="0.85"/>
<stop offset="0.86" stop-color="#111111"/>
<stop offset="0.87" stop-color="#3F3F3F"/>
<stop offset="0.88" stop-color="#8A8A8A"/>
<stop offset="0.9" stop-color="#EFEFEF"/>
<stop offset="0.91" stop-color="white"/>
<stop offset="1" stop-color="white"/>
</linearGradient>
<linearGradient id="paint22_linear_73_54476" x1="100.929" y1="28.3404" x2="85.328" y2="154.634" gradientUnits="userSpaceOnUse">
<stop offset="0.85" stop-color="#E8C7FC"/>
<stop offset="0.87" stop-color="#D6B7F8"/>
<stop offset="0.9" stop-color="#A88EF1"/>
<stop offset="0.91" stop-color="#A389F0"/>
<stop offset="0.93" stop-color="#9980F1"/>
<stop offset="1" stop-color="#7E69F4"/>
</linearGradient>
<radialGradient id="paint23_radial_73_54476" cx="0" cy="0" r="1" gradientUnits="userSpaceOnUse" gradientTransform="translate(88.0745 71.4925) rotate(6.61) scale(47.1345 72.1158)">
<stop stop-color="#666666"/>
<stop offset="0.33" stop-color="#404040"/>
<stop offset="0.78" stop-color="#111111"/>
<stop offset="1"/>
</radialGradient>
<radialGradient id="paint24_radial_73_54476" cx="0" cy="0" r="1" gradientUnits="userSpaceOnUse" gradientTransform="translate(140.411 110.159) rotate(6.61) scale(46.5538 71.2274)">
<stop stop-color="#7E69F4"/>
<stop offset="1" stop-color="#7E69F4"/>
</radialGradient>
<radialGradient id="paint25_radial_73_54476" cx="0" cy="0" r="1" gradientUnits="userSpaceOnUse" gradientTransform="translate(26.8264 98.0961) rotate(1.47) scale(35.228 84.2168)">
<stop stop-color="#666666"/>
<stop offset="0.33" stop-color="#404040"/>
<stop offset="0.77" stop-color="#111111"/>
<stop offset="1"/>
</radialGradient>
<radialGradient id="paint26_radial_73_54476" cx="0" cy="0" r="1" gradientUnits="userSpaceOnUse" gradientTransform="translate(33.6711 90.2102) rotate(1.47) scale(30.2615 72.3439)">
<stop stop-color="white"/>
<stop offset="1" stop-color="white"/>
</radialGradient>
<linearGradient id="paint27_linear_73_54476" x1="62.6421" y1="67.2879" x2="57.5542" y2="72.8413" gradientUnits="userSpaceOnUse">
<stop stop-color="#CCCCCC"/>
<stop offset="0.05" stop-color="#BFBFBF"/>
<stop offset="0.3" stop-color="#7B7B7B"/>
<stop offset="0.54" stop-color="#464646"/>
<stop offset="0.74" stop-color="#202020"/>
<stop offset="0.9" stop-color="#080808"/>
<stop offset="1"/>
</linearGradient>
<linearGradient id="paint28_linear_73_54476" x1="62.6421" y1="67.2879" x2="57.5542" y2="72.8413" gradientUnits="userSpaceOnUse">
<stop stop-color="#7E69F4"/>
<stop offset="1" stop-color="#7E69F4"/>
</linearGradient>
<clipPath id="clip0_73_54476">
<rect width="188" height="180.666" fill="white"/>
</clipPath>
</defs>
</svg>
