<svg width="70" height="74" viewBox="0 0 70 74" fill="none" xmlns="http://www.w3.org/2000/svg">
<g id="Group">
<g id="Group_2">
<g id="Group_3">
<g id="Group_4">
<path id="Vector" d="M0.132047 64.9737C-0.0749527 64.7697 0.00104585 64.4517 0.0930459 64.2117C0.185046 63.9587 0.313063 63.7177 0.367063 63.4527L0.750059 61.8807C0.971059 60.8257 1.20104 59.7717 1.39004 58.7097C1.79304 56.5907 2.14404 54.4627 2.50204 52.3357L4.59106 39.5627C6.01606 31.0527 7.60705 22.5587 9.68905 14.1647C9.93205 13.1117 10.229 12.0717 10.497 11.0237C10.801 9.9787 10.965 8.9447 11.442 7.8367C11.686 7.2987 12.024 6.7507 12.544 6.3267C13.057 5.8927 13.7581 5.6757 14.3701 5.6387C15.6241 5.5827 16.6271 5.8257 17.7161 5.9307C22.0131 6.4757 26.2891 7.1947 30.5351 8.0707C39.0221 9.8457 47.369 12.3117 55.471 15.4207L56.989 16.0067C57.128 16.0627 57.2141 16.0887 57.3971 16.1687C57.5811 16.2487 57.7591 16.3477 57.9221 16.4647C58.2521 16.6967 58.5331 16.9937 58.7461 17.3327C59.1761 18.0067 59.3181 18.8557 59.1381 19.6357L58.7 21.2397L56.963 27.4767C55.808 31.6357 54.582 35.7747 53.364 39.9157C50.914 48.1937 48.322 56.4287 45.704 64.6527L43.721 70.8147L43.472 71.5847C43.404 71.8147 43.278 72.1827 43.08 72.4337C42.688 72.9747 42.0641 73.3037 41.4401 73.3747C41.1331 73.4167 40.7971 73.3907 40.5211 73.3387L39.7241 73.1967L38.131 72.9077C33.884 72.1297 29.651 71.2927 25.42 70.4487C21.185 69.6227 16.9581 68.7597 12.7331 67.8857L6.40005 66.5567L3.24304 65.8477C2.19904 65.5807 1.12205 65.3967 0.132047 64.9737ZM0.132047 64.9737C1.12405 65.3907 2.20205 65.5677 3.24505 65.8297L6.40603 66.5197L12.7461 67.8097C16.9801 68.6327 21.225 69.4007 25.472 70.1557C29.723 70.8887 33.9801 71.5857 38.2411 72.2387L39.8401 72.4787L40.639 72.5967C40.894 72.6357 41.103 72.6417 41.33 72.6067C41.774 72.5427 42.17 72.3027 42.404 71.9597C42.622 71.6577 42.715 71.0637 42.886 70.5597L44.6901 64.3467C47.0881 56.0607 49.377 47.7457 51.674 39.4337L55.0951 26.9597L56.7931 20.7197L57.2 19.1997C57.26 18.9287 57.211 18.6317 57.057 18.3967C56.981 18.2797 56.8841 18.1787 56.7721 18.1017C56.7171 18.0607 56.656 18.0297 56.593 18.0027C56.531 17.9717 56.3611 17.9097 56.2501 17.8647L54.753 17.2767C50.759 15.7147 46.6971 14.3257 42.5951 13.0707C38.4991 11.7937 34.3521 10.6777 30.1681 9.7197C25.9901 8.7347 21.773 7.8987 17.527 7.2377C16.478 7.0977 15.355 6.8367 14.446 6.8637C13.531 6.8717 12.896 7.4167 12.468 8.3167C12.056 9.1817 11.822 10.2887 11.501 11.3037C11.206 12.3387 10.882 13.3647 10.61 14.4067C8.31904 22.7067 6.44803 31.1327 4.85003 39.6087C4.05903 43.8487 3.30306 48.0957 2.57306 52.3477C2.20306 54.4727 1.83904 56.5987 1.42404 58.7157C1.22804 59.7767 0.99305 60.8297 0.76605 61.8837L0.374052 63.4537C0.318052 63.7197 0.190037 63.9607 0.0960366 64.2127C0.00303657 64.4527 -0.0739527 64.7687 0.132047 64.9737Z" fill="#D9D8D8"/>
</g>
<g id="Group_5">
<path id="Vector_2" d="M7.69604 52.4457C10.405 52.7187 13.0641 53.1537 15.7111 53.6307C18.3611 54.0947 20.9881 54.6447 23.6161 55.1907C26.2361 55.7727 28.857 56.3537 31.463 57.0217C34.072 57.6777 36.6741 58.3767 39.2541 59.2457C36.5311 59.1967 33.84 58.9237 31.165 58.5537C28.488 58.1957 25.835 57.6957 23.195 57.1447C20.562 56.5567 17.9391 55.9207 15.3521 55.1437C12.7641 54.3787 10.198 53.5197 7.69604 52.4457Z" fill="#D9D8D8"/>
</g>
<g id="Group_6">
<path id="Vector_3" d="M10.817 40.4827C13.462 40.6977 16.059 41.1037 18.64 41.5787C21.224 42.0407 23.779 42.6157 26.33 43.2137C28.872 43.8477 31.408 44.5057 33.918 45.2777C36.431 46.0367 38.927 46.8657 41.38 47.8887C38.739 47.6767 36.142 47.2717 33.561 46.7967C30.977 46.3347 28.419 45.7587 25.867 45.1577C23.324 44.5207 20.786 43.8627 18.275 43.0897C15.762 42.3287 13.266 41.5017 10.817 40.4827Z" fill="#D9D8D8"/>
</g>
<g id="Group_7">
<path id="Vector_4" d="M13.9121 30.3957C16.7091 30.5697 19.4641 30.9367 22.2051 31.3717C24.9491 31.7947 27.6681 32.3317 30.3821 32.8907C33.0891 33.4867 35.7901 34.1067 38.4671 34.8407C41.1471 35.5627 43.8121 36.3537 46.4351 37.3397C43.6381 37.1677 40.8821 36.8017 38.1411 36.3667C35.3981 35.9437 32.6781 35.4067 29.9641 34.8447C27.2581 34.2467 24.5561 33.6257 21.8801 32.8917C19.2011 32.1697 16.5361 31.3787 13.9121 30.3957Z" fill="#D9D8D8"/>
</g>
<g id="Group_8">
<path id="Vector_5" d="M16.9641 18.9567C19.7421 19.0857 22.4841 19.4557 25.2021 19.9107C27.9241 20.3537 30.6161 20.9277 33.3011 21.5237C35.9771 22.1557 38.6451 22.8127 41.2911 23.5647C43.9401 24.3047 46.5751 25.0957 49.1911 26.0387C46.4121 25.9127 43.6711 25.5427 40.9521 25.0877C38.2301 24.6447 35.5381 24.0697 32.8541 23.4717C30.1781 22.8367 27.5101 22.1807 24.8651 21.4277C22.2161 20.6877 19.5811 19.8967 16.9641 18.9567Z" fill="#D9D8D8"/>
</g>
</g>
<g id="Group_9">
<g id="Group_10">
<path id="Vector_6" d="M20.7471 7.12972L21.7421 3.55772C21.9111 2.96472 22.0891 2.36371 22.3721 1.78471C22.6491 1.21271 23.0751 0.645716 23.7001 0.330716C24.3221 0.0147162 25.0181 -0.0232848 25.6521 0.0097152C26.2951 0.0457152 26.8971 0.129716 27.5151 0.192716C28.7461 0.320716 29.9741 0.474715 31.2031 0.631715C36.1081 1.31071 40.9931 2.19372 45.8181 3.34572C50.6531 4.45872 55.4181 5.86572 60.1311 7.42472C62.4821 8.22272 64.8151 9.07072 67.1271 9.97772L67.5611 10.1457C67.6791 10.1907 67.8941 10.2707 68.1011 10.3877C68.5011 10.6107 68.8511 10.9247 69.1081 11.3017C69.6371 12.0347 69.7841 13.0627 69.5341 13.8867L68.5681 17.4637C65.9341 26.9867 63.1881 36.4797 60.2451 45.9117C58.7851 50.6317 57.2661 55.3327 55.7141 60.0227L54.5231 63.5317L53.9251 65.2857C53.8181 65.5737 53.7511 65.8677 53.5751 66.1997C53.4041 66.5117 53.1531 66.7747 52.8641 66.9707C52.2871 67.3707 51.4961 67.4267 50.8931 67.2047L49.1101 66.7017L45.5531 65.6607L49.1831 66.4087L50.9941 66.7997C51.5661 66.9627 52.1231 66.8637 52.5591 66.5367C52.7691 66.3727 52.9441 66.1657 53.0551 65.9277C53.1601 65.7077 53.2241 65.3917 53.3111 65.0957L53.8021 63.3097L54.7771 59.7367L58.7491 45.4707L66.6421 16.9337L67.6291 13.3667C67.7371 13.0077 67.6761 12.6957 67.4931 12.4167C67.4041 12.2807 67.2821 12.1737 67.1441 12.0947C67.0691 12.0417 66.6641 11.8957 66.4111 11.7927C64.1341 10.8747 61.8241 10.0447 59.5151 9.20871C54.8871 7.56471 50.1851 6.13272 45.4391 4.85272C40.6911 3.58172 35.8881 2.49872 31.0481 1.59272C29.8381 1.36372 28.6271 1.13572 27.4121 0.935716C26.2041 0.760716 24.9541 0.375715 23.9281 0.805715C22.8911 1.25771 22.4351 2.52172 22.0271 3.65172L20.7471 7.12972Z" fill="#D9D8D8"/>
</g>
</g>
</g>
<g id="Group_11">
<path id="Vector_7" d="M0.078125 65.3007C0.385125 61.5477 0.922114 57.8227 1.46011 54.1017C2.00611 50.3807 2.6571 46.6777 3.2901 42.9717C4.0021 39.2797 4.6931 35.5827 5.5051 31.9097C6.3231 28.2387 7.1881 24.5717 8.2991 20.9747C7.9581 22.8257 7.58412 24.6657 7.26712 26.5177L6.25912 32.0607L4.27213 43.1507L2.21512 54.2297L0.078125 65.3007Z" fill="#D9D8D8"/>
</g>
<g id="Group_12">
<path id="Vector_8" d="M40.63 73.0337C37.201 72.7087 33.8021 72.1727 30.4051 71.6377C27.0091 71.0947 23.63 70.4547 20.248 69.8327C16.88 69.1377 13.5071 68.4627 10.1581 67.6757C6.81105 66.8837 3.46804 66.0497 0.19104 64.9917C1.88004 65.3257 3.55805 65.6897 5.24805 66.0007L10.3051 66.9877L20.4231 68.9357L30.531 70.9487L40.63 73.0337Z" fill="#D9D8D8"/>
</g>
</g>
</svg>
