<svg width="26" height="26" viewBox="0 0 26 26" fill="none" xmlns="http://www.w3.org/2000/svg">
<path d="M12.2136 7.07647V15.0745L10.1803 13.0412L9.06854 14.153L12.9999 18.0844L16.9313 14.153L15.8195 13.0412L13.7862 15.0745V7.07647H12.2136ZM15.9548 20.9543L12.9999 22.6778L4.35088 17.633V14.153H2.77832V18.0844C2.77832 18.3635 2.92693 18.6229 3.16831 18.7637L12.6036 24.2676C12.7239 24.3379 12.8607 24.3749 12.9999 24.3749C13.1392 24.3749 13.276 24.3379 13.3962 24.2676L16.7631 22.3035L15.9548 20.9543ZM22.8315 6.39712L19.4749 4.43929L18.6658 5.78776L21.649 7.52779V17.633L18.6713 19.3699L19.4804 20.7184L22.8315 18.7637C23.0729 18.6229 23.2215 18.3635 23.2215 18.0844V7.07647C23.2215 6.79734 23.0729 6.53787 22.8315 6.39712ZM4.35088 7.52779L12.9999 2.48225L15.9493 4.20262L16.7583 2.85416L13.3962 0.89318C13.276 0.822917 13.1392 0.785889 12.9999 0.785889C12.8607 0.785889 12.7239 0.822917 12.6036 0.89318L3.16831 6.39712C3.04966 6.46645 2.95122 6.56565 2.8828 6.68483C2.81438 6.80402 2.77836 6.93904 2.77832 7.07647V11.0079H4.35088V7.52779Z" fill="black"/>
</svg>
