<svg width="69" height="59" viewBox="0 0 69 59" fill="none" xmlns="http://www.w3.org/2000/svg">
<g id="Group">
<g id="Group_2">
<path id="Vector" d="M0 0.78598C3.163 5.14498 6.098 9.67299 8.884 14.283C11.67 18.895 14.315 23.586 16.926 28.287L24.738 42.378C27.379 47.047 30.06 51.687 32.897 56.232L31.44 56.41C32.874 52.591 34.894 49.139 36.953 45.741C39.054 42.365 41.218 39.055 43.236 35.638C42.442 37.458 41.542 39.232 40.618 40.988L37.854 46.253C36.928 48 36.029 49.759 35.195 51.537C34.354 53.31 33.578 55.11 32.984 56.942L32.471 58.525L31.527 57.12C28.516 52.638 25.698 48.031 23.03 43.349C20.335 38.68 17.812 33.923 15.286 29.176L7.772 14.915C5.248 10.174 2.684 5.45398 0 0.78598Z" fill="#D9D8D8"/>
</g>
<g id="Group_3">
<path id="Vector_2" d="M1.13196 1.142C10.224 8.454 19.314 15.711 28.495 22.859L42.311 33.529L56.15 44.188L55.086 44.754C55.055 42.03 54.663 39.284 54.277 36.539C53.878 33.793 53.364 31.052 53.047 28.283L55.037 36.394C55.681 39.109 56.21 41.864 56.422 44.7L56.525 46.078L55.358 45.266C50.572 41.937 45.835 38.537 41.151 35.062L34.174 29.784L27.299 24.371C18.2 17.07 9.38696 9.391 1.13196 1.142Z" fill="#D9D8D8"/>
</g>
<g id="Group_4">
<path id="Vector_3" d="M0.0469971 0C4.724 1.717 9.324 3.59898 13.877 5.60098C18.435 7.59098 22.926 9.74801 27.342 12.057C31.731 14.409 36.095 16.855 40.214 19.644C44.378 22.368 48.504 25.152 52.514 28.098C48.057 25.855 43.716 23.449 39.415 20.984C38.337 20.373 37.262 19.756 36.196 19.123L32.945 17.334C30.781 16.137 28.604 14.964 26.409 13.824C22.044 11.497 17.618 9.276 13.208 7.004C8.794 4.743 4.375 2.468 0.0469971 0Z" fill="#D9D8D8"/>
</g>
<g id="Group_5">
<path id="Vector_4" d="M53.201 28.63C54.025 27.267 55.1331 26.112 56.3361 25.101C57.5411 24.088 58.8471 23.208 60.2061 22.449C61.5621 21.684 62.9741 21.043 64.409 20.473C65.8461 19.904 67.307 19.412 68.856 19.058C67.697 20.148 66.416 21.037 65.119 21.863C63.82 22.689 62.5051 23.459 61.1831 24.193L53.201 28.63Z" fill="#D9D8D8"/>
</g>
<g id="Group_6">
<path id="Vector_5" d="M0.921997 0.00299072C6.744 0.840991 12.532 1.905 18.27 3.186C24.015 4.44 29.713 5.89999 35.379 7.46799C41.036 9.07199 46.662 10.785 52.224 12.688C57.795 14.564 63.298 16.644 68.724 18.917C63.046 17.38 57.394 15.8 51.759 14.178L34.839 9.39301C29.202 7.79201 23.548 6.25598 17.896 4.69598C12.239 3.16298 6.584 1.59799 0.921997 0.00299072Z" fill="#D9D8D8"/>
</g>
</g>
</svg>
