<svg width="160" height="151" viewBox="0 0 160 151" fill="none" xmlns="http://www.w3.org/2000/svg">
<g clip-path="url(#clip0_296_566)">
<rect width="160" height="150" rx="11.7791" fill="#2563EB"/>
<mask id="mask0_296_566" style="mask-type:alpha" maskUnits="userSpaceOnUse" x="0" y="0" width="160" height="151">
<rect width="160" height="150.184" rx="11.7791" fill="#2563EB"/>
</mask>
<g mask="url(#mask0_296_566)">
<ellipse cx="99.9811" cy="74.0022" rx="99.9811" ry="74.0022" transform="matrix(0.983221 -0.182418 0.165275 0.986248 90.3066 -44.4395)" fill="white" fill-opacity="0.2"/>
<ellipse cx="99.9811" cy="74.0022" rx="99.9811" ry="74.0022" transform="matrix(0.983221 -0.182418 0.165275 0.986248 120.159 -37.5684)" fill="white" fill-opacity="0.2"/>
<ellipse cx="99.9811" cy="74.0022" rx="99.9811" ry="74.0022" transform="matrix(0.983221 -0.182418 0.165275 0.986248 141.616 -30.6971)" fill="white" fill-opacity="0.2"/>
</g>
<path d="M20.8983 28.2205C20.0952 28.2205 19.3793 28.0728 18.7505 27.7773C18.1255 27.4819 17.6293 27.0747 17.2619 26.5557C16.8945 26.0368 16.7032 25.4421 16.688 24.7716H19.0744C19.1009 25.2224 19.2903 25.5879 19.6426 25.8682C19.9949 26.1485 20.4134 26.2887 20.8983 26.2887C21.2846 26.2887 21.6255 26.2034 21.921 26.033C22.2202 25.8587 22.4532 25.6182 22.6199 25.3114C22.7903 25.0008 22.8755 24.6447 22.8755 24.2432C22.8755 23.8341 22.7884 23.4743 22.6142 23.1637C22.4437 22.8531 22.207 22.6106 21.9039 22.4364C21.6009 22.2622 21.2543 22.1731 20.8642 22.1694C20.5233 22.1694 20.1918 22.2394 19.8699 22.3796C19.5517 22.5197 19.3036 22.711 19.1255 22.9534L16.938 22.5614L17.4892 16.425H24.6028V18.4364H19.5176L19.2164 21.3512H19.2846C19.4892 21.0633 19.7979 20.8247 20.2108 20.6353C20.6236 20.4459 21.0858 20.3512 21.5971 20.3512C22.2979 20.3512 22.9229 20.5159 23.4721 20.8455C24.0214 21.175 24.4551 21.6277 24.7733 22.2034C25.0914 22.7754 25.2486 23.4345 25.2449 24.1807C25.2486 24.9648 25.0668 25.6618 24.6994 26.2716C24.3358 26.8777 23.8263 27.355 23.171 27.7034C22.5195 28.0481 21.7619 28.2205 20.8983 28.2205ZM31.2033 28.3171C30.226 28.3133 29.3851 28.0728 28.6805 27.5955C27.9798 27.1182 27.44 26.4269 27.0612 25.5216C26.6862 24.6163 26.5006 23.5273 26.5044 22.2546C26.5044 20.9856 26.6919 19.9042 27.0669 19.0103C27.4457 18.1163 27.9855 17.4364 28.6862 16.9705C29.3908 16.5008 30.2298 16.2659 31.2033 16.2659C32.1767 16.2659 33.0139 16.5008 33.7146 16.9705C34.4192 17.4402 34.9608 18.122 35.3396 19.0159C35.7184 19.9061 35.9059 20.9856 35.9021 22.2546C35.9021 23.5311 35.7127 24.622 35.3339 25.5273C34.9589 26.4326 34.4211 27.1239 33.7203 27.6012C33.0195 28.0784 32.1805 28.3171 31.2033 28.3171ZM31.2033 26.2773C31.8699 26.2773 32.4021 25.9421 32.7999 25.2716C33.1976 24.6012 33.3945 23.5955 33.3908 22.2546C33.3908 21.372 33.2999 20.6372 33.118 20.05C32.94 19.4629 32.6862 19.0216 32.3567 18.7262C32.0309 18.4307 31.6464 18.283 31.2033 18.283C30.5404 18.283 30.0101 18.6144 29.6124 19.2773C29.2146 19.9402 29.0139 20.9326 29.0101 22.2546C29.0101 23.1485 29.0991 23.8947 29.2771 24.4932C29.4589 25.0879 29.7146 25.5349 30.0442 25.8341C30.3737 26.1296 30.7601 26.2773 31.2033 26.2773ZM43.7057 25.8796V25.2659C43.7057 24.8 43.8042 24.372 44.0012 23.9819C44.2019 23.5879 44.4917 23.2735 44.8705 23.0387C45.2531 22.8 45.719 22.6807 46.2682 22.6807C46.825 22.6807 47.2928 22.7981 47.6716 23.033C48.0542 23.2678 48.3421 23.5822 48.5352 23.9762C48.7322 24.3663 48.8307 24.7962 48.8307 25.2659V25.8796C48.8307 26.3455 48.7322 26.7754 48.5352 27.1694C48.3383 27.5595 48.0485 27.872 47.6659 28.1069C47.2834 28.3455 46.8174 28.4648 46.2682 28.4648C45.7114 28.4648 45.2436 28.3455 44.8648 28.1069C44.486 27.872 44.1981 27.5595 44.0012 27.1694C43.8042 26.7754 43.7057 26.3455 43.7057 25.8796ZM45.3591 25.2659V25.8796C45.3591 26.1485 45.4235 26.4023 45.5523 26.6409C45.6849 26.8796 45.9235 26.9989 46.2682 26.9989C46.6129 26.9989 46.8477 26.8815 46.9727 26.6466C47.1015 26.4118 47.1659 26.1561 47.1659 25.8796V25.2659C47.1659 24.9894 47.1053 24.7319 46.9841 24.4932C46.8629 24.2546 46.6243 24.1353 46.2682 24.1353C45.9273 24.1353 45.6906 24.2546 45.558 24.4932C45.4254 24.7319 45.3591 24.9894 45.3591 25.2659ZM37.7341 19.2205V18.6069C37.7341 18.1372 37.8345 17.7072 38.0352 17.3171C38.236 16.9231 38.5258 16.6087 38.9046 16.3739C39.2871 16.1391 39.7493 16.0216 40.2909 16.0216C40.8515 16.0216 41.3212 16.1391 41.7 16.3739C42.0788 16.6087 42.3667 16.9231 42.5637 17.3171C42.7606 17.7072 42.8591 18.1372 42.8591 18.6069V19.2205C42.8591 19.6902 42.7587 20.1201 42.558 20.5103C42.361 20.9004 42.0712 21.2129 41.6887 21.4478C41.3099 21.6788 40.844 21.7944 40.2909 21.7944C39.7379 21.7944 39.2701 21.6769 38.8875 21.4421C38.5087 21.2034 38.2209 20.8909 38.0239 20.5046C37.8307 20.1144 37.7341 19.6864 37.7341 19.2205ZM39.3989 18.6069V19.2205C39.3989 19.497 39.4633 19.7527 39.5921 19.9875C39.7246 20.2224 39.9576 20.3398 40.2909 20.3398C40.6394 20.3398 40.8762 20.2224 41.0012 19.9875C41.1299 19.7527 41.1943 19.497 41.1943 19.2205V18.6069C41.1943 18.3303 41.1337 18.0728 41.0125 17.8341C40.8913 17.5955 40.6508 17.4762 40.2909 17.4762C39.9538 17.4762 39.7209 17.5974 39.5921 17.8398C39.4633 18.0822 39.3989 18.3379 39.3989 18.6069ZM38.4841 28.0614L46.4841 16.425H47.9727L39.9727 28.0614H38.4841ZM20.8414 47.0614H16.7164V35.425H20.8755C22.046 35.425 23.0536 35.658 23.8983 36.1239C24.743 36.586 25.3926 37.2508 25.8471 38.1182C26.3055 38.9856 26.5346 40.0235 26.5346 41.2319C26.5346 42.444 26.3055 43.4856 25.8471 44.3569C25.3926 45.2281 24.7392 45.8966 23.8869 46.3625C23.0384 46.8284 22.0233 47.0614 20.8414 47.0614ZM19.1767 44.9534H20.7392C21.4664 44.9534 22.0782 44.8247 22.5744 44.5671C23.0744 44.3057 23.4494 43.9023 23.6994 43.3569C23.9532 42.8076 24.0801 42.0993 24.0801 41.2319C24.0801 40.372 23.9532 39.6694 23.6994 39.1239C23.4494 38.5784 23.0763 38.1769 22.5801 37.9194C22.0839 37.6618 21.4721 37.533 20.7449 37.533H19.1767V44.9534ZM27.9916 47.0614V38.3341H30.4121V47.0614H27.9916ZM29.2075 37.2091C28.8477 37.2091 28.539 37.0898 28.2814 36.8512C28.0276 36.6087 27.9007 36.319 27.9007 35.9819C27.9007 35.6485 28.0276 35.3625 28.2814 35.1239C28.539 34.8815 28.8477 34.7603 29.2075 34.7603C29.5674 34.7603 29.8742 34.8815 30.128 35.1239C30.3856 35.3625 30.5143 35.6485 30.5143 35.9819C30.5143 36.319 30.3856 36.6087 30.128 36.8512C29.8742 37.0898 29.5674 37.2091 29.2075 37.2091ZM39.2924 40.8228L37.0764 40.9591C37.0386 40.7697 36.9571 40.5993 36.8321 40.4478C36.7071 40.2925 36.5424 40.1694 36.3378 40.0784C36.137 39.9837 35.8965 39.9364 35.6162 39.9364C35.2412 39.9364 34.9249 40.0159 34.6674 40.175C34.4098 40.3303 34.281 40.5387 34.281 40.8C34.281 41.0084 34.3643 41.1845 34.531 41.3284C34.6977 41.4724 34.9836 41.5879 35.3889 41.675L36.9685 41.9932C37.817 42.1675 38.4495 42.4478 38.8662 42.8341C39.2829 43.2205 39.4912 43.7281 39.4912 44.3569C39.4912 44.9288 39.3227 45.4307 38.9855 45.8625C38.6522 46.2944 38.1939 46.6315 37.6105 46.8739C37.031 47.1125 36.3624 47.2319 35.6049 47.2319C34.4495 47.2319 33.5291 46.9913 32.8435 46.5103C32.1617 46.0254 31.762 45.3663 31.6446 44.533L34.0253 44.408C34.0973 44.7603 34.2715 45.0292 34.548 45.2148C34.8245 45.3966 35.1787 45.4875 35.6105 45.4875C36.0348 45.4875 36.3757 45.4061 36.6333 45.2432C36.8946 45.0766 37.0272 44.8625 37.031 44.6012C37.0272 44.3815 36.9344 44.2016 36.7526 44.0614C36.5708 43.9175 36.2905 43.8076 35.9117 43.7319L34.4003 43.4307C33.548 43.2603 32.9136 42.9648 32.4969 42.5444C32.084 42.1239 31.8776 41.5879 31.8776 40.9364C31.8776 40.3758 32.0291 39.8928 32.3321 39.4875C32.6389 39.0822 33.0689 38.7697 33.6219 38.55C34.1787 38.3303 34.8302 38.2205 35.5764 38.2205C36.6787 38.2205 37.5461 38.4534 38.1787 38.9194C38.8151 39.3853 39.1863 40.0197 39.2924 40.8228ZM44.6385 47.2319C43.7446 47.2319 42.9757 47.0425 42.3317 46.6637C41.6916 46.2811 41.1992 45.7508 40.8545 45.0728C40.5135 44.3947 40.3431 43.6144 40.3431 42.7319C40.3431 41.8379 40.5154 41.0538 40.8601 40.3796C41.2086 39.7016 41.7029 39.1731 42.3431 38.7944C42.9832 38.4118 43.7446 38.2205 44.6272 38.2205C45.3885 38.2205 46.0552 38.3587 46.6272 38.6353C47.1992 38.9118 47.6518 39.3 47.9851 39.8C48.3185 40.3 48.5022 40.8872 48.5363 41.5614H46.2522C46.1878 41.1258 46.0173 40.7754 45.7408 40.5103C45.4681 40.2413 45.1101 40.1069 44.667 40.1069C44.292 40.1069 43.9643 40.2091 43.684 40.4137C43.4075 40.6144 43.1916 40.908 43.0363 41.2944C42.881 41.6807 42.8033 42.1485 42.8033 42.6978C42.8033 43.2546 42.8791 43.7281 43.0306 44.1182C43.1859 44.5084 43.4037 44.8057 43.684 45.0103C43.9643 45.2148 44.292 45.3171 44.667 45.3171C44.9435 45.3171 45.1916 45.2603 45.4113 45.1466C45.6348 45.033 45.8185 44.8682 45.9624 44.6523C46.1101 44.4326 46.2067 44.1694 46.2522 43.8625H48.5363C48.4984 44.5292 48.3166 45.1163 47.9908 45.6239C47.6688 46.1277 47.2238 46.5216 46.6556 46.8057C46.0874 47.0898 45.4151 47.2319 44.6385 47.2319ZM53.7092 47.2319C52.8266 47.2319 52.0633 47.0444 51.4194 46.6694C50.7792 46.2906 50.2849 45.7641 49.9364 45.0898C49.588 44.4118 49.4137 43.6258 49.4137 42.7319C49.4137 41.8303 49.588 41.0425 49.9364 40.3682C50.2849 39.6902 50.7792 39.1637 51.4194 38.7887C52.0633 38.4099 52.8266 38.2205 53.7092 38.2205C54.5917 38.2205 55.3531 38.4099 55.9933 38.7887C56.6372 39.1637 57.1334 39.6902 57.4819 40.3682C57.8304 41.0425 58.0046 41.8303 58.0046 42.7319C58.0046 43.6258 57.8304 44.4118 57.4819 45.0898C57.1334 45.7641 56.6372 46.2906 55.9933 46.6694C55.3531 47.0444 54.5917 47.2319 53.7092 47.2319ZM53.7205 45.3569C54.122 45.3569 54.4573 45.2432 54.7262 45.0159C54.9952 44.7849 55.1978 44.4705 55.3342 44.0728C55.4743 43.675 55.5444 43.2224 55.5444 42.7148C55.5444 42.2072 55.4743 41.7546 55.3342 41.3569C55.1978 40.9591 54.9952 40.6447 54.7262 40.4137C54.4573 40.1826 54.122 40.0671 53.7205 40.0671C53.3152 40.0671 52.9743 40.1826 52.6978 40.4137C52.4251 40.6447 52.2186 40.9591 52.0785 41.3569C51.9421 41.7546 51.8739 42.2072 51.8739 42.7148C51.8739 43.2224 51.9421 43.675 52.0785 44.0728C52.2186 44.4705 52.4251 44.7849 52.6978 45.0159C52.9743 45.2432 53.3152 45.3569 53.7205 45.3569ZM64.8551 43.3455V38.3341H67.2755V47.0614H64.9517V45.4762H64.8608C64.6638 45.9875 64.3361 46.3985 63.8778 46.7091C63.4233 47.0197 62.8683 47.175 62.213 47.175C61.6297 47.175 61.1164 47.0425 60.6733 46.7773C60.2301 46.5122 59.8835 46.1353 59.6335 45.6466C59.3873 45.158 59.2623 44.5728 59.2585 43.8909V38.3341H61.6789V43.4591C61.6827 43.9743 61.821 44.3815 62.0937 44.6807C62.3664 44.98 62.732 45.1296 63.1903 45.1296C63.482 45.1296 63.7547 45.0633 64.0085 44.9307C64.2623 44.7944 64.4668 44.5936 64.6221 44.3284C64.7812 44.0633 64.8589 43.7356 64.8551 43.3455ZM71.3121 42.0159V47.0614H68.8916V38.3341H71.1984V39.8739H71.3007C71.4939 39.3663 71.8178 38.9648 72.2723 38.6694C72.7268 38.3701 73.278 38.2205 73.9257 38.2205C74.5318 38.2205 75.0602 38.3531 75.5109 38.6182C75.9617 38.8834 76.3121 39.2622 76.5621 39.7546C76.8121 40.2432 76.9371 40.8266 76.9371 41.5046V47.0614H74.5166V41.9364C74.5204 41.4023 74.384 40.9856 74.1075 40.6864C73.831 40.3834 73.4503 40.2319 72.9655 40.2319C72.6397 40.2319 72.3518 40.3019 72.1018 40.4421C71.8556 40.5822 71.6624 40.7868 71.5223 41.0557C71.3859 41.3209 71.3159 41.6409 71.3121 42.0159ZM83.1668 38.3341V40.1523H77.9111V38.3341H83.1668ZM79.1043 36.2432H81.5247V44.3796C81.5247 44.6031 81.5588 44.7773 81.627 44.9023C81.6952 45.0235 81.7899 45.1087 81.9111 45.158C82.0361 45.2072 82.18 45.2319 82.3429 45.2319C82.4566 45.2319 82.5702 45.2224 82.6838 45.2034C82.7975 45.1807 82.8846 45.1637 82.9452 45.1523L83.3259 46.9534C83.2047 46.9913 83.0342 47.0349 82.8145 47.0841C82.5948 47.1372 82.3278 47.1694 82.0134 47.1807C81.43 47.2034 80.9187 47.1258 80.4793 46.9478C80.0437 46.7697 79.7047 46.4932 79.4622 46.1182C79.2198 45.7432 79.1005 45.2697 79.1043 44.6978V36.2432ZM20.6142 65.2319C19.7316 65.2319 18.9683 65.0444 18.3244 64.6694C17.6842 64.2906 17.1899 63.7641 16.8414 63.0898C16.493 62.4118 16.3187 61.6258 16.3187 60.7319C16.3187 59.8303 16.493 59.0425 16.8414 58.3682C17.1899 57.6902 17.6842 57.1637 18.3244 56.7887C18.9683 56.4099 19.7316 56.2205 20.6142 56.2205C21.4967 56.2205 22.2581 56.4099 22.8983 56.7887C23.5422 57.1637 24.0384 57.6902 24.3869 58.3682C24.7354 59.0425 24.9096 59.8303 24.9096 60.7319C24.9096 61.6258 24.7354 62.4118 24.3869 63.0898C24.0384 63.7641 23.5422 64.2906 22.8983 64.6694C22.2581 65.0444 21.4967 65.2319 20.6142 65.2319ZM20.6255 63.3569C21.027 63.3569 21.3623 63.2432 21.6312 63.0159C21.9002 62.7849 22.1028 62.4705 22.2392 62.0728C22.3793 61.675 22.4494 61.2224 22.4494 60.7148C22.4494 60.2072 22.3793 59.7546 22.2392 59.3569C22.1028 58.9591 21.9002 58.6447 21.6312 58.4137C21.3623 58.1826 21.027 58.0671 20.6255 58.0671C20.2202 58.0671 19.8793 58.1826 19.6028 58.4137C19.3301 58.6447 19.1236 58.9591 18.9835 59.3569C18.8471 59.7546 18.7789 60.2072 18.7789 60.7148C18.7789 61.2224 18.8471 61.675 18.9835 62.0728C19.1236 62.4705 19.3301 62.7849 19.6028 63.0159C19.8793 63.2432 20.2202 63.3569 20.6255 63.3569ZM28.5839 60.0159V65.0614H26.1635V56.3341H28.4703V57.8739H28.5726C28.7658 57.3663 29.0896 56.9648 29.5442 56.6694C29.9987 56.3701 30.5499 56.2205 31.1976 56.2205C31.8036 56.2205 32.332 56.3531 32.7828 56.6182C33.2336 56.8834 33.5839 57.2622 33.8339 57.7546C34.0839 58.2432 34.2089 58.8266 34.2089 59.5046V65.0614H31.7885V59.9364C31.7923 59.4023 31.6559 58.9856 31.3794 58.6864C31.1029 58.3834 30.7222 58.2319 30.2374 58.2319C29.9116 58.2319 29.6237 58.3019 29.3737 58.4421C29.1275 58.5822 28.9343 58.7868 28.7942 59.0557C28.6578 59.3209 28.5877 59.6409 28.5839 60.0159ZM43.1229 65.2319C42.229 65.2319 41.46 65.0425 40.8161 64.6637C40.176 64.2811 39.6835 63.7508 39.3388 63.0728C38.9979 62.3947 38.8275 61.6144 38.8275 60.7319C38.8275 59.8379 38.9998 59.0538 39.3445 58.3796C39.693 57.7016 40.1873 57.1731 40.8275 56.7944C41.4676 56.4118 42.229 56.2205 43.1116 56.2205C43.8729 56.2205 44.5396 56.3587 45.1116 56.6353C45.6835 56.9118 46.1362 57.3 46.4695 57.8C46.8028 58.3 46.9866 58.8872 47.0206 59.5614H44.7366C44.6722 59.1258 44.5017 58.7754 44.2252 58.5103C43.9525 58.2413 43.5945 58.1069 43.1513 58.1069C42.7763 58.1069 42.4487 58.2091 42.1684 58.4137C41.8919 58.6144 41.676 58.908 41.5206 59.2944C41.3653 59.6807 41.2877 60.1485 41.2877 60.6978C41.2877 61.2546 41.3635 61.7281 41.515 62.1182C41.6703 62.5084 41.8881 62.8057 42.1684 63.0103C42.4487 63.2148 42.7763 63.3171 43.1513 63.3171C43.4278 63.3171 43.676 63.2603 43.8956 63.1466C44.1191 63.033 44.3028 62.8682 44.4468 62.6523C44.5945 62.4326 44.6911 62.1694 44.7366 61.8625H47.0206C46.9828 62.5292 46.801 63.1163 46.4752 63.6239C46.1532 64.1277 45.7081 64.5216 45.14 64.8057C44.5718 65.0898 43.8994 65.2319 43.1229 65.2319ZM52.1935 65.2319C51.311 65.2319 50.5477 65.0444 49.9038 64.6694C49.2636 64.2906 48.7693 63.7641 48.4208 63.0898C48.0723 62.4118 47.8981 61.6258 47.8981 60.7319C47.8981 59.8303 48.0723 59.0425 48.4208 58.3682C48.7693 57.6902 49.2636 57.1637 49.9038 56.7887C50.5477 56.4099 51.311 56.2205 52.1935 56.2205C53.0761 56.2205 53.8375 56.4099 54.4776 56.7887C55.1216 57.1637 55.6178 57.6902 55.9663 58.3682C56.3148 59.0425 56.489 59.8303 56.489 60.7319C56.489 61.6258 56.3148 62.4118 55.9663 63.0898C55.6178 63.7641 55.1216 64.2906 54.4776 64.6694C53.8375 65.0444 53.0761 65.2319 52.1935 65.2319ZM52.2049 63.3569C52.6064 63.3569 52.9416 63.2432 53.2106 63.0159C53.4795 62.7849 53.6822 62.4705 53.8185 62.0728C53.9587 61.675 54.0288 61.2224 54.0288 60.7148C54.0288 60.2072 53.9587 59.7546 53.8185 59.3569C53.6822 58.9591 53.4795 58.6447 53.2106 58.4137C52.9416 58.1826 52.6064 58.0671 52.2049 58.0671C51.7996 58.0671 51.4587 58.1826 51.1822 58.4137C50.9095 58.6447 50.703 58.9591 50.5629 59.3569C50.4265 59.7546 50.3583 60.2072 50.3583 60.7148C50.3583 61.2224 50.4265 61.675 50.5629 62.0728C50.703 62.4705 50.9095 62.7849 51.1822 63.0159C51.4587 63.2432 51.7996 63.3569 52.2049 63.3569ZM63.3395 61.3455V56.3341H65.7599V65.0614H63.436V63.4762H63.3451C63.1482 63.9875 62.8205 64.3985 62.3622 64.7091C61.9076 65.0197 61.3527 65.175 60.6974 65.175C60.1141 65.175 59.6008 65.0425 59.1576 64.7773C58.7145 64.5122 58.3679 64.1353 58.1179 63.6466C57.8717 63.158 57.7467 62.5728 57.7429 61.8909V56.3341H60.1633V61.4591C60.1671 61.9743 60.3054 62.3815 60.5781 62.6807C60.8508 62.98 61.2163 63.1296 61.6747 63.1296C61.9663 63.1296 62.2391 63.0633 62.4929 62.9307C62.7467 62.7944 62.9512 62.5936 63.1065 62.3284C63.2656 62.0633 63.3432 61.7356 63.3395 61.3455ZM67.376 65.0614V56.3341H69.7226V57.8569H69.8135C69.9726 57.3152 70.2396 56.9061 70.6146 56.6296C70.9896 56.3493 71.4214 56.2091 71.9101 56.2091C72.0313 56.2091 72.162 56.2167 72.3021 56.2319C72.4423 56.247 72.5654 56.2678 72.6714 56.2944V58.4421C72.5578 58.408 72.4006 58.3777 72.1999 58.3512C71.9991 58.3247 71.8154 58.3114 71.6487 58.3114C71.2927 58.3114 70.9745 58.3891 70.6942 58.5444C70.4177 58.6959 70.198 58.908 70.0351 59.1807C69.876 59.4534 69.7964 59.7678 69.7964 60.1239V65.0614H67.376ZM80.8642 58.8228L78.6483 58.9591C78.6104 58.7697 78.529 58.5993 78.404 58.4478C78.279 58.2925 78.1142 58.1694 77.9097 58.0784C77.7089 57.9837 77.4684 57.9364 77.1881 57.9364C76.8131 57.9364 76.4968 58.0159 76.2392 58.175C75.9816 58.3303 75.8529 58.5387 75.8529 58.8C75.8529 59.0084 75.9362 59.1845 76.1029 59.3284C76.2695 59.4724 76.5555 59.5879 76.9608 59.675L78.5404 59.9932C79.3888 60.1675 80.0214 60.4478 80.4381 60.8341C80.8548 61.2205 81.0631 61.7281 81.0631 62.3569C81.0631 62.9288 80.8945 63.4307 80.5574 63.8625C80.2241 64.2944 79.7657 64.6315 79.1824 64.8739C78.6029 65.1125 77.9343 65.2319 77.1767 65.2319C76.0214 65.2319 75.101 64.9913 74.4154 64.5103C73.7335 64.0254 73.3339 63.3663 73.2165 62.533L75.5972 62.408C75.6691 62.7603 75.8434 63.0292 76.1199 63.2148C76.3964 63.3966 76.7506 63.4875 77.1824 63.4875C77.6066 63.4875 77.9476 63.4061 78.2051 63.2432C78.4665 63.0766 78.5991 62.8625 78.6029 62.6012C78.5991 62.3815 78.5063 62.2016 78.3245 62.0614C78.1426 61.9175 77.8623 61.8076 77.4835 61.7319L75.9722 61.4307C75.1199 61.2603 74.4854 60.9648 74.0688 60.5444C73.6559 60.1239 73.4495 59.5879 73.4495 58.9364C73.4495 58.3758 73.601 57.8928 73.904 57.4875C74.2108 57.0822 74.6407 56.7697 75.1938 56.55C75.7506 56.3303 76.4021 56.2205 77.1483 56.2205C78.2506 56.2205 79.118 56.4534 79.7506 56.9194C80.387 57.3853 80.7582 58.0197 80.8642 58.8228ZM86.2445 65.2319C85.3468 65.2319 84.5741 65.05 83.9263 64.6864C83.2824 64.319 82.7862 63.8 82.4377 63.1296C82.0892 62.4553 81.915 61.658 81.915 60.7375C81.915 59.8398 82.0892 59.0519 82.4377 58.3739C82.7862 57.6959 83.2767 57.1675 83.9093 56.7887C84.5456 56.4099 85.2919 56.2205 86.1479 56.2205C86.7237 56.2205 87.2597 56.3133 87.7559 56.4989C88.2559 56.6807 88.6915 56.9553 89.0627 57.3228C89.4377 57.6902 89.7294 58.1523 89.9377 58.7091C90.146 59.2622 90.2502 59.9099 90.2502 60.6523V61.3171H82.8809V59.8171H87.9718C87.9718 59.4686 87.896 59.1599 87.7445 58.8909C87.593 58.622 87.3828 58.4118 87.1138 58.2603C86.8487 58.105 86.54 58.0273 86.1877 58.0273C85.8203 58.0273 85.4945 58.1125 85.2104 58.283C84.9301 58.4497 84.7104 58.675 84.5513 58.9591C84.3922 59.2394 84.3108 59.5519 84.307 59.8966V61.3228C84.307 61.7546 84.3866 62.1277 84.5456 62.4421C84.7085 62.7565 84.9377 62.9989 85.2331 63.1694C85.5286 63.3398 85.879 63.425 86.2843 63.425C86.5532 63.425 86.7994 63.3872 87.0229 63.3114C87.2464 63.2356 87.4377 63.122 87.5968 62.9705C87.7559 62.819 87.8771 62.6334 87.9604 62.4137L90.1991 62.5614C90.0854 63.0993 89.8525 63.569 89.5002 63.9705C89.1517 64.3682 88.701 64.6788 88.1479 64.9023C87.5987 65.122 86.9642 65.2319 86.2445 65.2319ZM98.7711 58.8228L96.5552 58.9591C96.5173 58.7697 96.4359 58.5993 96.3109 58.4478C96.1859 58.2925 96.0211 58.1694 95.8166 58.0784C95.6158 57.9837 95.3753 57.9364 95.095 57.9364C94.72 57.9364 94.4037 58.0159 94.1461 58.175C93.8885 58.3303 93.7597 58.5387 93.7597 58.8C93.7597 59.0084 93.8431 59.1845 94.0097 59.3284C94.1764 59.4724 94.4624 59.5879 94.8677 59.675L96.4472 59.9932C97.2957 60.1675 97.9283 60.4478 98.345 60.8341C98.7616 61.2205 98.97 61.7281 98.97 62.3569C98.97 62.9288 98.8014 63.4307 98.4643 63.8625C98.131 64.2944 97.6726 64.6315 97.0893 64.8739C96.5097 65.1125 95.8412 65.2319 95.0836 65.2319C93.9283 65.2319 93.0078 64.9913 92.3222 64.5103C91.6404 64.0254 91.2408 63.3663 91.1234 62.533L93.5041 62.408C93.576 62.7603 93.7503 63.0292 94.0268 63.2148C94.3033 63.3966 94.6575 63.4875 95.0893 63.4875C95.5135 63.4875 95.8544 63.4061 96.112 63.2432C96.3734 63.0766 96.506 62.8625 96.5097 62.6012C96.506 62.3815 96.4131 62.2016 96.2313 62.0614C96.0495 61.9175 95.7692 61.8076 95.3904 61.7319L93.8791 61.4307C93.0268 61.2603 92.3923 60.9648 91.9756 60.5444C91.5628 60.1239 91.3563 59.5879 91.3563 58.9364C91.3563 58.3758 91.5078 57.8928 91.8109 57.4875C92.1177 57.0822 92.5476 56.7697 93.1006 56.55C93.6575 56.3303 94.309 56.2205 95.0552 56.2205C96.1575 56.2205 97.0249 56.4534 97.6575 56.9194C98.2938 57.3853 98.665 58.0197 98.7711 58.8228Z" fill="white"/>
<path d="M20.4583 78.9565V88.9509H18.9455V80.4693H18.8869L16.4957 82.031V80.5865L18.9894 78.9565H20.4583ZM22.887 88.9509V87.8578L26.2689 84.3539C26.63 83.9732 26.9277 83.6398 27.162 83.3535C27.3995 83.0639 27.5768 82.789 27.6939 82.5287C27.811 82.2685 27.8696 81.9919 27.8696 81.6991C27.8696 81.3673 27.7915 81.081 27.6353 80.8402C27.4792 80.5962 27.2661 80.4091 26.996 80.279C26.726 80.1456 26.4218 80.0789 26.0835 80.0789C25.7256 80.0789 25.4133 80.1521 25.1465 80.2985C24.8797 80.4449 24.6747 80.6515 24.5316 80.9183C24.3884 81.1851 24.3169 81.4974 24.3169 81.8553H22.8772C22.8772 81.2469 23.0171 80.715 23.2969 80.2595C23.5767 79.804 23.9606 79.451 24.4486 79.2005C24.9366 78.9467 25.4913 78.8199 26.1127 78.8199C26.7407 78.8199 27.2937 78.9451 27.772 79.1956C28.2535 79.4429 28.6292 79.7812 28.8993 80.2107C29.1693 80.6369 29.3043 81.1184 29.3043 81.6552C29.3043 82.0261 29.2344 82.3888 29.0945 82.7435C28.9578 83.0981 28.7187 83.4934 28.3771 83.9293C28.0355 84.362 27.5605 84.8874 26.9521 85.5056L24.9659 87.5845V87.6577H29.4654V88.9509H22.887ZM38.8381 83.3193V84.5881H34.407V83.3193H38.8381ZM47.6423 78.9565V88.9509H46.1295V80.4693H46.0709L43.6797 82.031V80.5865L46.1734 78.9565H47.6423ZM53.5603 89.0876C53.1146 89.0811 52.6754 88.9997 52.2427 88.8436C51.8132 88.6874 51.4228 88.4271 51.0715 88.0628C50.7201 87.6984 50.4387 87.2087 50.2272 86.5938C50.019 85.979 49.9149 85.2112 49.9149 84.2904C49.9149 83.4185 50.0011 82.6442 50.1735 81.9675C50.3492 81.2908 50.6014 80.7198 50.93 80.2546C51.2585 79.7861 51.6555 79.4299 52.1207 79.1859C52.5859 78.9419 53.1081 78.8199 53.6872 78.8199C54.2826 78.8199 54.8113 78.937 55.2732 79.1712C55.7352 79.4055 56.1094 79.7292 56.3957 80.1424C56.6852 80.5555 56.869 81.0257 56.9471 81.5527H55.4587C55.3578 81.1363 55.1577 80.7963 54.8584 80.5328C54.5591 80.2692 54.1687 80.1375 53.6872 80.1375C52.9552 80.1375 52.3842 80.4563 51.9743 81.094C51.5676 81.7316 51.3627 82.6182 51.3594 83.7536H51.4326C51.605 83.4706 51.8165 83.2298 52.067 83.0314C52.3208 82.8297 52.6038 82.6751 52.9162 82.5678C53.2317 82.4572 53.5636 82.4018 53.9117 82.4018C54.4908 82.4018 55.0146 82.5434 55.4831 82.8264C55.9548 83.1062 56.3306 83.4934 56.6104 83.9879C56.8902 84.4824 57.0301 85.0485 57.0301 85.6861C57.0301 86.3238 56.8853 86.9013 56.5957 87.4186C56.3094 87.9359 55.906 88.3458 55.3855 88.6484C54.8649 88.9477 54.2565 89.0941 53.5603 89.0876ZM53.5554 87.8187C53.9393 87.8187 54.2826 87.7244 54.5851 87.5357C54.8877 87.347 55.1268 87.0932 55.3025 86.7744C55.4782 86.4556 55.566 86.0993 55.566 85.7057C55.566 85.3218 55.4798 84.972 55.3074 84.6564C55.1382 84.3409 54.904 84.0904 54.6047 83.9049C54.3086 83.7195 53.9702 83.6267 53.5896 83.6267C53.3001 83.6267 53.0316 83.6821 52.7844 83.7927C52.5404 83.9033 52.3257 84.0562 52.1402 84.2514C51.9548 84.4466 51.8084 84.6711 51.701 84.9249C51.5969 85.1754 51.5448 85.4405 51.5448 85.7203C51.5448 86.0944 51.6311 86.4409 51.8035 86.7598C51.9792 87.0786 52.2183 87.3356 52.5209 87.5308C52.8267 87.7228 53.1715 87.8187 53.5554 87.8187ZM65.916 78.9565H67.4191V86.0424C67.4191 86.6833 67.2922 87.2315 67.0384 87.687C66.7879 88.1425 66.4349 88.4906 65.9795 88.7313C65.524 88.9688 64.9904 89.0876 64.3788 89.0876C63.816 89.0876 63.3101 88.9851 62.8611 88.7801C62.4154 88.5752 62.0624 88.2775 61.8021 87.8871C61.5451 87.4934 61.4166 87.0152 61.4166 86.4523H62.9148C62.9148 86.7289 62.9782 86.968 63.1051 87.1697C63.2352 87.3714 63.4125 87.5292 63.637 87.6431C63.8648 87.7537 64.125 87.809 64.4178 87.809C64.7367 87.809 65.0067 87.7423 65.2279 87.6089C65.4524 87.4723 65.6232 87.2722 65.7403 87.0087C65.8575 86.7451 65.916 86.423 65.916 86.0424V78.9565ZM73.9703 85.8423V81.4551H75.4343V88.9509H73.9996V87.6528H73.9215C73.749 88.053 73.4725 88.3865 73.0919 88.6532C72.7145 88.9168 72.2443 89.0485 71.6815 89.0485C71.2 89.0485 70.7738 88.9428 70.4029 88.7313C70.0353 88.5166 69.7457 88.1994 69.5343 87.7797C69.3261 87.36 69.2219 86.8411 69.2219 86.223V81.4551H70.6811V86.0473C70.6811 86.5581 70.8226 86.9647 71.1057 87.2673C71.3887 87.5699 71.7563 87.7211 72.2086 87.7211C72.4818 87.7211 72.7535 87.6528 73.0235 87.5162C73.2968 87.3795 73.5229 87.1729 73.7019 86.8964C73.8841 86.6199 73.9735 86.2685 73.9703 85.8423ZM78.5792 84.5003V88.9509H77.12V81.4551H78.5206V82.6751H78.6133C78.7858 82.2782 79.0558 81.9594 79.4234 81.7186C79.7943 81.4779 80.2612 81.3575 80.824 81.3575C81.3348 81.3575 81.7821 81.4649 82.166 81.6796C82.5499 81.8911 82.8476 82.2066 83.0591 82.6263C83.2706 83.046 83.3763 83.5649 83.3763 84.1831V88.9509H81.9172V84.3588C81.9172 83.8154 81.7756 83.3909 81.4926 83.0851C81.2095 82.776 80.8208 82.6215 80.3262 82.6215C79.9879 82.6215 79.687 82.6947 79.4234 82.8411C79.1632 82.9875 78.9566 83.2022 78.8037 83.4852C78.654 83.765 78.5792 84.1034 78.5792 84.5003ZM88.289 89.1022C87.5505 89.1022 86.9144 88.9444 86.3809 88.6288C85.8506 88.31 85.4406 87.8627 85.1511 87.2868C84.8648 86.7077 84.7216 86.0294 84.7216 85.2518C84.7216 84.484 84.8648 83.8073 85.1511 83.2217C85.4406 82.6361 85.8441 82.179 86.3614 81.8504C86.8819 81.5218 87.4903 81.3575 88.1865 81.3575C88.6094 81.3575 89.0194 81.4275 89.4163 81.5674C89.8132 81.7072 90.1694 81.9269 90.485 82.2262C90.8006 82.5255 91.0495 82.9143 91.2317 83.3925C91.4139 83.8675 91.505 84.445 91.505 85.1249V85.6422H85.5464V84.5491H90.0751C90.0751 84.1652 89.997 83.8252 89.8409 83.5291C89.6847 83.2298 89.4651 82.994 89.182 82.8215C88.9023 82.6491 88.5737 82.5629 88.1963 82.5629C87.7863 82.5629 87.4285 82.6637 87.1226 82.8655C86.8201 83.0639 86.5858 83.3242 86.4199 83.6463C86.2572 83.9651 86.1759 84.3116 86.1759 84.6857V85.5397C86.1759 86.0408 86.2637 86.467 86.4394 86.8183C86.6184 87.1697 86.8673 87.4381 87.1861 87.6235C87.5049 87.8057 87.8774 87.8968 88.3036 87.8968C88.5802 87.8968 88.8323 87.8578 89.06 87.7797C89.2878 87.6984 89.4846 87.578 89.6505 87.4186C89.8165 87.2592 89.9433 87.0623 90.0312 86.8281L91.4122 87.077C91.3016 87.4836 91.1032 87.8399 90.8169 88.1457C90.5338 88.4483 90.1776 88.6841 89.7481 88.8533C89.3219 89.0192 88.8356 89.1022 88.289 89.1022Z" fill="white"/>
<rect x="15.7051" y="101.104" width="128.589" height="33.7055" rx="9.81595" fill="#5182EF"/>
<path d="M59.3618 116.12C59.2675 115.824 59.1406 115.559 58.9812 115.325C58.825 115.087 58.6379 114.885 58.42 114.719C58.202 114.55 57.9531 114.422 57.6733 114.334C57.3968 114.246 57.0926 114.202 56.7607 114.202C56.1979 114.202 55.6904 114.347 55.2381 114.636C54.7859 114.926 54.4281 115.351 54.1645 115.91C53.9043 116.467 53.7741 117.148 53.7741 117.955C53.7741 118.765 53.9059 119.45 54.1694 120.009C54.4329 120.569 54.7941 120.994 55.2528 121.283C55.7115 121.573 56.2337 121.717 56.8193 121.717C57.3626 121.717 57.836 121.607 58.2394 121.386C58.6461 121.164 58.96 120.852 59.1813 120.449C59.4057 120.042 59.518 119.564 59.518 119.014L59.9084 119.087H57.0487V117.843H60.9771V118.98C60.9771 119.819 60.7982 120.548 60.4403 121.166C60.0857 121.781 59.5944 122.256 58.9665 122.591C58.3419 122.926 57.6261 123.094 56.8193 123.094C55.9149 123.094 55.121 122.885 54.4378 122.469C53.7579 122.053 53.2276 121.462 52.8469 120.698C52.4663 119.93 52.2759 119.019 52.2759 117.965C52.2759 117.168 52.3865 116.452 52.6078 115.817C52.829 115.183 53.1397 114.645 53.5399 114.202C53.9433 113.756 54.4167 113.416 54.96 113.182C55.5066 112.945 56.1036 112.826 56.751 112.826C57.291 112.826 57.7937 112.906 58.2589 113.065C58.7274 113.225 59.1438 113.451 59.5082 113.743C59.8759 114.036 60.1801 114.384 60.4208 114.788C60.6616 115.188 60.8242 115.632 60.9088 116.12H59.3618ZM65.73 123.108C64.9915 123.108 64.3554 122.951 63.8219 122.635C63.2916 122.316 62.8817 121.869 62.5921 121.293C62.3058 120.714 62.1627 120.035 62.1627 119.258C62.1627 118.49 62.3058 117.813 62.5921 117.228C62.8817 116.642 63.2851 116.185 63.8024 115.857C64.3229 115.528 64.9313 115.364 65.6275 115.364C66.0505 115.364 66.4604 115.434 66.8573 115.573C67.2542 115.713 67.6105 115.933 67.926 116.232C68.2416 116.532 68.4905 116.92 68.6727 117.399C68.8549 117.874 68.946 118.451 68.946 119.131V119.648H62.9874V118.555H67.5161C67.5161 118.171 67.438 117.831 67.2819 117.535C67.1257 117.236 66.9061 117 66.6231 116.828C66.3433 116.655 66.0147 116.569 65.6373 116.569C65.2273 116.569 64.8695 116.67 64.5637 116.872C64.2611 117.07 64.0268 117.33 63.8609 117.652C63.6983 117.971 63.6169 118.318 63.6169 118.692V119.546C63.6169 120.047 63.7048 120.473 63.8804 120.824C64.0594 121.176 64.3083 121.444 64.6271 121.63C64.9459 121.812 65.3184 121.903 65.7446 121.903C66.0212 121.903 66.2733 121.864 66.5011 121.786C66.7288 121.704 66.9256 121.584 67.0915 121.425C67.2575 121.265 67.3843 121.068 67.4722 120.834L68.8533 121.083C68.7426 121.49 68.5442 121.846 68.2579 122.152C67.9748 122.454 67.6186 122.69 67.1891 122.859C66.763 123.025 66.2766 123.108 65.73 123.108ZM73.7891 115.461V116.632H69.6947V115.461H73.7891ZM70.7927 113.665H72.2519V120.756C72.2519 121.039 72.2942 121.252 72.3788 121.395C72.4634 121.535 72.5724 121.631 72.7057 121.683C72.8424 121.732 72.9904 121.757 73.1498 121.757C73.267 121.757 73.3694 121.748 73.4573 121.732C73.5451 121.716 73.6134 121.703 73.6622 121.693L73.9258 122.898C73.8412 122.931 73.7208 122.964 73.5646 122.996C73.4085 123.032 73.2133 123.051 72.979 123.055C72.5951 123.061 72.2373 122.993 71.9054 122.85C71.5736 122.707 71.3052 122.485 71.1002 122.186C70.8952 121.887 70.7927 121.511 70.7927 121.059V113.665ZM81.6478 123.108C80.9451 123.108 80.3318 122.947 79.808 122.625C79.2842 122.303 78.8776 121.853 78.588 121.273C78.2985 120.694 78.1537 120.018 78.1537 119.243C78.1537 118.466 78.2985 117.786 78.588 117.203C78.8776 116.621 79.2842 116.169 79.808 115.847C80.3318 115.525 80.9451 115.364 81.6478 115.364C82.3506 115.364 82.9638 115.525 83.4876 115.847C84.0114 116.169 84.4181 116.621 84.7076 117.203C84.9972 117.786 85.142 118.466 85.142 119.243C85.142 120.018 84.9972 120.694 84.7076 121.273C84.4181 121.853 84.0114 122.303 83.4876 122.625C82.9638 122.947 82.3506 123.108 81.6478 123.108ZM81.6527 121.883C82.1082 121.883 82.4856 121.763 82.7849 121.522C83.0842 121.282 83.3054 120.961 83.4486 120.561C83.595 120.161 83.6682 119.72 83.6682 119.238C83.6682 118.76 83.595 118.321 83.4486 117.921C83.3054 117.517 83.0842 117.194 82.7849 116.95C82.4856 116.706 82.1082 116.584 81.6527 116.584C81.194 116.584 80.8133 116.706 80.5108 116.95C80.2115 117.194 79.9886 117.517 79.8422 117.921C79.699 118.321 79.6275 118.76 79.6275 119.238C79.6275 119.72 79.699 120.161 79.8422 120.561C79.9886 120.961 80.2115 121.282 80.5108 121.522C80.8133 121.763 81.194 121.883 81.6527 121.883ZM90.0632 115.461V116.632H85.8273V115.461H90.0632ZM86.9887 122.957V114.593C86.9887 114.124 87.0912 113.735 87.2962 113.426C87.5012 113.114 87.7728 112.881 88.1112 112.728C88.4495 112.572 88.8171 112.494 89.2141 112.494C89.5069 112.494 89.7574 112.519 89.9656 112.567C90.1738 112.613 90.3283 112.655 90.4292 112.694L90.0876 113.875C90.0193 113.856 89.9314 113.833 89.8241 113.807C89.7167 113.778 89.5866 113.763 89.4337 113.763C89.079 113.763 88.8253 113.851 88.6724 114.026C88.5227 114.202 88.4479 114.456 88.4479 114.788V122.957H86.9887ZM94.8612 115.461V116.632H90.6253V115.461H94.8612ZM91.7867 122.957V114.593C91.7867 114.124 91.8892 113.735 92.0942 113.426C92.2992 113.114 92.5708 112.881 92.9092 112.728C93.2475 112.572 93.6152 112.494 94.0121 112.494C94.3049 112.494 94.5554 112.519 94.7636 112.567C94.9718 112.613 95.1264 112.655 95.2272 112.694L94.8856 113.875C94.8173 113.856 94.7294 113.833 94.6221 113.807C94.5147 113.778 94.3846 113.763 94.2317 113.763C93.8771 113.763 93.6233 113.851 93.4704 114.026C93.3207 114.202 93.2459 114.456 93.2459 114.788V122.957H91.7867ZM99.0272 123.108C98.2887 123.108 97.6527 122.951 97.1191 122.635C96.5888 122.316 96.1789 121.869 95.8893 121.293C95.603 120.714 95.4599 120.035 95.4599 119.258C95.4599 118.49 95.603 117.813 95.8893 117.228C96.1789 116.642 96.5823 116.185 97.0996 115.857C97.6201 115.528 98.2285 115.364 98.9248 115.364C99.3477 115.364 99.7576 115.434 100.155 115.573C100.551 115.713 100.908 115.933 101.223 116.232C101.539 116.532 101.788 116.92 101.97 117.399C102.152 117.874 102.243 118.451 102.243 119.131V119.648H96.2846V118.555H100.813C100.813 118.171 100.735 117.831 100.579 117.535C100.423 117.236 100.203 117 99.9203 116.828C99.6405 116.655 99.3119 116.569 98.9345 116.569C98.5246 116.569 98.1667 116.67 97.8609 116.872C97.5583 117.07 97.3241 117.33 97.1582 117.652C96.9955 117.971 96.9142 118.318 96.9142 118.692V119.546C96.9142 120.047 97.002 120.473 97.1777 120.824C97.3566 121.176 97.6055 121.444 97.9243 121.63C98.2432 121.812 98.6157 121.903 99.0419 121.903C99.3184 121.903 99.5706 121.864 99.7983 121.786C100.026 121.704 100.223 121.584 100.389 121.425C100.555 121.265 100.682 121.068 100.769 120.834L102.15 121.083C102.04 121.49 101.841 121.846 101.555 122.152C101.272 122.454 100.916 122.69 100.486 122.859C100.06 123.025 99.5738 123.108 99.0272 123.108ZM103.587 122.957V115.461H104.998V116.652H105.076C105.212 116.249 105.453 115.931 105.798 115.7C106.146 115.466 106.54 115.349 106.979 115.349C107.07 115.349 107.177 115.352 107.301 115.359C107.428 115.365 107.527 115.373 107.599 115.383V116.779C107.54 116.763 107.436 116.745 107.286 116.725C107.137 116.702 106.987 116.691 106.837 116.691C106.493 116.691 106.185 116.764 105.915 116.911C105.648 117.054 105.437 117.254 105.281 117.511C105.125 117.765 105.046 118.054 105.046 118.38V122.957H103.587Z" fill="white"/>
</g>
<defs>
<clipPath id="clip0_296_566">
<rect width="160" height="150.184" rx="11.7791" fill="white"/>
</clipPath>
</defs>
</svg>
