<svg width="85" height="66" viewBox="0 0 85 66" fill="none" xmlns="http://www.w3.org/2000/svg">
<g id="Group">
<g id="Group_2">
<path id="Vector" d="M4.87476 65.2647L44.6178 46.0128C51.2587 42.8456 57.8969 39.6601 64.6111 36.6239C71.3083 33.5549 78.0907 30.6497 84.9725 27.9777C78.5255 31.5705 72.0523 35.0861 65.5071 38.4629C58.9788 41.8724 52.3864 45.1601 45.7534 48.3731C39.0995 51.5416 32.4062 54.6407 25.6003 57.4909C18.8075 60.3712 11.8981 62.9922 4.87476 65.2647Z" fill="#D9D8D8"/>
</g>
<g id="Group_3">
<path id="Vector_2" d="M4.71097 65.0996C1.87256 59.952 0.603327 54.0459 0.126547 48.1766C-0.272953 42.2797 0.258839 36.2846 1.93019 30.5383C5.2873 19.0196 13.7606 9.09106 24.6951 3.94341C26.0626 3.31076 27.4681 2.72916 28.905 2.2956L33.2366 1.05911C36.1863 0.497195 39.161 -0.0306381 42.1814 0.0021078C48.1949 -0.0581447 54.2044 1.17441 59.6717 3.56486C65.1612 5.91864 70.132 9.31373 74.4571 13.331C78.7337 17.3836 82.5179 22.0388 85 27.3567C83.5291 24.8235 81.7398 22.5208 79.8641 20.3085C77.9085 18.1617 75.8547 16.1118 73.6057 14.2924C69.1746 10.5908 64.2103 7.54545 58.8937 5.45495C48.2879 1.19929 36.092 1.49791 25.8019 6.31549C15.5499 11.0872 7.44459 20.336 3.87398 31.1408C2.11487 36.5688 1.31063 42.3543 1.40101 48.1228C1.44947 53.8914 2.41483 59.7123 4.71097 65.0996Z" fill="#D9D8D8"/>
</g>
<g id="Group_4">
<path id="Vector_3" d="M17.6011 49.688C21.3276 47.2806 25.1641 45.1049 29.0399 43.0131C32.9091 40.9056 36.8426 38.9369 40.7904 36.9957C44.7579 35.0978 48.7411 33.2299 52.7885 31.5009C56.8294 29.7562 60.9095 28.0954 65.101 26.6703C61.3758 29.0817 57.5393 31.2573 53.6635 33.3491C49.7942 35.4554 45.8595 37.424 41.9116 39.3626C37.9428 41.2566 33.9596 43.1244 29.9122 44.8547C25.8714 46.5981 21.7912 48.2603 17.6011 49.688Z" fill="#D9D8D8"/>
</g>
<g id="Group_5">
<path id="Vector_4" d="M16.3777 50.0025C14.3894 44.1082 15.1451 37.3953 17.6967 31.6189C18.958 28.7019 20.746 26.0037 22.9242 23.6394C25.1117 21.2948 27.8152 19.3405 30.7623 18.0307C33.6924 16.7339 36.8229 15.8825 40.0058 15.5525C43.1887 15.2499 46.4175 15.411 49.5152 16.1288C55.6924 17.495 61.512 20.9137 65.1023 25.984C60.6855 21.659 54.9877 19.0786 49.1314 18.1368C43.2647 17.2003 37.1766 17.9809 31.8338 20.4198C26.4791 22.712 22.2759 27.2493 19.5357 32.4965C16.8256 37.7686 15.4726 43.8855 16.3777 50.0025Z" fill="#D9D8D8"/>
</g>
<g id="Group_6">
<path id="Vector_5" d="M24.6728 6.04309C25.3985 6.15967 25.8923 6.42555 26.335 6.72419C26.7633 7.03331 27.1052 7.39745 27.3724 7.80874C27.6409 8.22003 27.8321 8.68241 27.9382 9.19848C28.0299 9.72373 28.0679 10.2843 27.8728 10.9955C27.1458 10.8803 26.648 10.617 26.2079 10.3158C25.7796 10.0066 25.4378 9.64249 25.1732 9.22858C24.9073 8.81467 24.716 8.35363 24.6113 7.83624C24.5196 7.31231 24.4803 6.75302 24.6728 6.04309Z" fill="#D9D8D8"/>
</g>
<g id="Group_7">
<path id="Vector_6" d="M38.2938 1.28711C38.933 1.69709 39.3024 2.15945 39.6115 2.63492C39.9036 3.11432 40.0948 3.6134 40.2009 4.12947C40.307 4.64555 40.3228 5.17994 40.2389 5.73531C40.1394 6.2933 39.9743 6.86441 39.5408 7.4892C38.899 7.08054 38.527 6.61682 38.2192 6.14135C37.9271 5.66195 37.7358 5.16291 37.6337 4.64552C37.5315 4.12814 37.5158 3.59375 37.5996 3.03969C37.7005 2.4817 37.8629 1.9119 38.2938 1.28711Z" fill="#D9D8D8"/>
</g>
<g id="Group_8">
<path id="Vector_7" d="M58.4352 4.06909C58.8465 4.70698 58.9919 5.28201 59.0757 5.84262C59.1425 6.3993 59.1098 6.93372 58.9919 7.44717C58.874 7.96063 58.6671 8.45442 58.3606 8.92334C58.0383 9.38964 57.6519 9.84154 56.9983 10.2293C56.5831 9.59137 56.4377 9.01506 56.3552 8.45445C56.2884 7.89777 56.3211 7.36336 56.443 6.85121C56.5648 6.33776 56.7717 5.84524 57.0782 5.37501C57.3991 4.91133 57.7842 4.45942 58.4352 4.06909Z" fill="#D9D8D8"/>
</g>
<g id="Group_9">
<path id="Vector_8" d="M73.941 13.5525C73.937 14.3384 73.738 14.9343 73.493 15.4858C73.2363 16.0254 72.9062 16.4944 72.512 16.9004C72.119 17.3078 71.6606 17.6509 71.1275 17.9234C70.5839 18.184 69.9931 18.4002 69.2059 18.4238C69.2072 17.6352 69.405 17.0393 69.6513 16.4878C69.908 15.9482 70.2381 15.4793 70.6349 15.0758C71.0305 14.6711 71.489 14.3279 72.0221 14.0555C72.5657 13.7948 73.1551 13.5787 73.941 13.5525Z" fill="#D9D8D8"/>
</g>
<g id="Group_10">
<path id="Vector_9" d="M11.6021 15.6678C12.3578 15.753 12.8896 15.9573 13.3848 16.1813C13.8655 16.4158 14.2768 16.6934 14.6448 17.0209C15.0129 17.347 15.3325 17.7256 15.6193 18.1775C15.8983 18.6425 16.1577 19.1507 16.324 19.8947C15.584 20.0859 14.9631 19.9982 14.3894 19.8292C13.8236 19.6471 13.3206 19.3524 12.8975 18.9713C12.4731 18.5901 12.126 18.1225 11.8824 17.5802C11.6532 17.0288 11.496 16.4236 11.6021 15.6678Z" fill="#D9D8D8"/>
</g>
<g id="Group_11">
<path id="Vector_10" d="M3.44043 29.2075C4.07046 28.9089 4.5813 28.8552 5.06331 28.8591C5.53879 28.8774 5.9684 28.9888 6.36004 29.1787C6.75168 29.3686 7.10273 29.6398 7.40923 30.0026C7.70918 30.3798 7.97901 30.8173 8.12833 31.501C7.49699 31.8023 6.98614 31.8573 6.50412 31.8534C6.02865 31.835 5.59903 31.7237 5.2087 31.5312C4.81837 31.3386 4.46733 31.0675 4.16082 30.7034C3.86218 30.3235 3.59106 29.8886 3.44043 29.2075Z" fill="#D9D8D8"/>
</g>
<g id="Group_12">
<path id="Vector_11" d="M1.31323 45.3369C1.75203 44.6702 2.25501 44.2694 2.77371 43.9301C3.29502 43.6066 3.84122 43.3839 4.40707 43.2464C4.97291 43.1076 5.56104 43.0591 6.17273 43.1089C6.78836 43.1744 7.41838 43.3041 8.1139 43.7009C7.67511 44.3703 7.17344 44.7737 6.65475 45.1116C6.13343 45.4351 5.58723 45.6578 5.02007 45.7927C4.45291 45.9276 3.86612 45.9774 3.25442 45.9263C2.63749 45.8595 2.00745 45.7312 1.31323 45.3369Z" fill="#D9D8D8"/>
</g>
</g>
</svg>
