<svg width="27" height="26" viewBox="0 0 27 26" fill="none" xmlns="http://www.w3.org/2000/svg">
<path d="M22.4109 8.38699C20.9516 5.05422 17.3546 3.14514 13.4767 3.14514C8.5714 3.14514 4.53936 6.86895 4.06445 11.6369" stroke="black" stroke-width="1.57256" stroke-linecap="round" stroke-linejoin="round"/>
<path d="M18.2061 8.80635H22.3682C22.5183 8.80635 22.6623 8.7467 22.7685 8.64054C22.8746 8.53437 22.9343 8.39037 22.9343 8.24023V4.08868M4.58887 16.774C6.0482 20.1067 9.64516 22.0158 13.5231 22.0158C18.4284 22.0158 22.4604 18.292 22.9353 13.524" stroke="black" stroke-width="1.57256" stroke-linecap="round" stroke-linejoin="round"/>
<path d="M8.79365 16.3546H4.63162C4.55719 16.3545 4.48346 16.369 4.41465 16.3974C4.34585 16.4258 4.28332 16.4675 4.23064 16.5201C4.17796 16.5726 4.13616 16.6351 4.10765 16.7038C4.07913 16.7726 4.06445 16.8463 4.06445 16.9207V21.0723" stroke="black" stroke-width="1.57256" stroke-linecap="round" stroke-linejoin="round"/>
</svg>
