<svg width="27" height="28" viewBox="0 0 27 28" fill="none" xmlns="http://www.w3.org/2000/svg">
<g id="mdi:slack" opacity="0.5">
<path id="Vector" d="M7.12252 17.3265C7.12252 17.9111 6.8903 18.4717 6.47696 18.8851C6.06361 19.2984 5.503 19.5306 4.91844 19.5306C4.33388 19.5306 3.77326 19.2984 3.35992 18.8851C2.94657 18.4717 2.71436 17.9111 2.71436 17.3265C2.71436 16.742 2.94657 16.1814 3.35992 15.768C3.77326 15.3547 4.33388 15.1225 4.91844 15.1225H7.12252V17.3265ZM8.22456 17.3265C8.22456 16.742 8.45677 16.1814 8.87012 15.768C9.28347 15.3547 9.84408 15.1225 10.4286 15.1225C11.0132 15.1225 11.5738 15.3547 11.9872 15.768C12.4005 16.1814 12.6327 16.742 12.6327 17.3265V22.8367C12.6327 23.4213 12.4005 23.9819 11.9872 24.3953C11.5738 24.8086 11.0132 25.0408 10.4286 25.0408C9.84408 25.0408 9.28347 24.8086 8.87012 24.3953C8.45677 23.9819 8.22456 23.4213 8.22456 22.8367V17.3265ZM10.4286 8.51021C9.84408 8.51021 9.28347 8.278 8.87012 7.86465C8.45677 7.45131 8.22456 6.89069 8.22456 6.30613C8.22456 5.72157 8.45677 5.16096 8.87012 4.74761C9.28347 4.33427 9.84408 4.10205 10.4286 4.10205C11.0132 4.10205 11.5738 4.33427 11.9872 4.74761C12.4005 5.16096 12.6327 5.72157 12.6327 6.30613V8.51021H10.4286ZM10.4286 9.61226C11.0132 9.61226 11.5738 9.84447 11.9872 10.2578C12.4005 10.6712 12.6327 11.2318 12.6327 11.8163C12.6327 12.4009 12.4005 12.9615 11.9872 13.3749C11.5738 13.7882 11.0132 14.0204 10.4286 14.0204H4.91844C4.33388 14.0204 3.77326 13.7882 3.35992 13.3749C2.94657 12.9615 2.71436 12.4009 2.71436 11.8163C2.71436 11.2318 2.94657 10.6712 3.35992 10.2578C3.77326 9.84447 4.33388 9.61226 4.91844 9.61226H10.4286ZM19.245 11.8163C19.245 11.2318 19.4772 10.6712 19.8905 10.2578C20.3039 9.84447 20.8645 9.61226 21.4491 9.61226C22.0336 9.61226 22.5942 9.84447 23.0076 10.2578C23.4209 10.6712 23.6531 11.2318 23.6531 11.8163C23.6531 12.4009 23.4209 12.9615 23.0076 13.3749C22.5942 13.7882 22.0336 14.0204 21.4491 14.0204H19.245V11.8163ZM18.1429 11.8163C18.1429 12.4009 17.9107 12.9615 17.4974 13.3749C17.084 13.7882 16.5234 14.0204 15.9388 14.0204C15.3543 14.0204 14.7937 13.7882 14.3803 13.3749C13.967 12.9615 13.7348 12.4009 13.7348 11.8163V6.30613C13.7348 5.72157 13.967 5.16096 14.3803 4.74761C14.7937 4.33427 15.3543 4.10205 15.9388 4.10205C16.5234 4.10205 17.084 4.33427 17.4974 4.74761C17.9107 5.16096 18.1429 5.72157 18.1429 6.30613V11.8163ZM15.9388 20.6327C16.5234 20.6327 17.084 20.8649 17.4974 21.2782C17.9107 21.6916 18.1429 22.2522 18.1429 22.8367C18.1429 23.4213 17.9107 23.9819 17.4974 24.3953C17.084 24.8086 16.5234 25.0408 15.9388 25.0408C15.3543 25.0408 14.7937 24.8086 14.3803 24.3953C13.967 23.9819 13.7348 23.4213 13.7348 22.8367V20.6327H15.9388ZM15.9388 19.5306C15.3543 19.5306 14.7937 19.2984 14.3803 18.8851C13.967 18.4717 13.7348 17.9111 13.7348 17.3265C13.7348 16.742 13.967 16.1814 14.3803 15.768C14.7937 15.3547 15.3543 15.1225 15.9388 15.1225H21.4491C22.0336 15.1225 22.5942 15.3547 23.0076 15.768C23.4209 16.1814 23.6531 16.742 23.6531 17.3265C23.6531 17.9111 23.4209 18.4717 23.0076 18.8851C22.5942 19.2984 22.0336 19.5306 21.4491 19.5306H15.9388Z" fill="black"/>
</g>
</svg>
