<svg width="17" height="17" viewBox="0 0 17 17" fill="none" xmlns="http://www.w3.org/2000/svg">
<g id="octicon:play-16" clip-path="url(#clip0_5_15)">
<path id="Vector" d="M8.5 0.5C10.6217 0.5 12.6566 1.34285 14.1569 2.84315C15.6571 4.34344 16.5 6.37827 16.5 8.5C16.5 10.6217 15.6571 12.6566 14.1569 14.1569C12.6566 15.6571 10.6217 16.5 8.5 16.5C6.37827 16.5 4.34344 15.6571 2.84315 14.1569C1.34285 12.6566 0.5 10.6217 0.5 8.5C0.5 6.37827 1.34285 4.34344 2.84315 2.84315C4.34344 1.34285 6.37827 0.5 8.5 0.5ZM2 8.5C2 10.2239 2.68482 11.8772 3.90381 13.0962C5.12279 14.3152 6.77609 15 8.5 15C10.2239 15 11.8772 14.3152 13.0962 13.0962C14.3152 11.8772 15 10.2239 15 8.5C15 6.77609 14.3152 5.12279 13.0962 3.90381C11.8772 2.68482 10.2239 2 8.5 2C6.77609 2 5.12279 2.68482 3.90381 3.90381C2.68482 5.12279 2 6.77609 2 8.5ZM6.879 5.727L11.143 8.286C11.1798 8.30825 11.2103 8.33965 11.2315 8.37714C11.2526 8.41463 11.2638 8.45695 11.2638 8.5C11.2638 8.54305 11.2526 8.58537 11.2315 8.62286C11.2103 8.66035 11.1798 8.69174 11.143 8.714L6.879 11.273C6.84108 11.2958 6.79778 11.3082 6.75352 11.3088C6.70926 11.3095 6.66563 11.2983 6.62708 11.2765C6.58854 11.2548 6.55646 11.2232 6.53413 11.185C6.5118 11.1467 6.50003 11.1033 6.5 11.059V5.942C6.49985 5.89765 6.5115 5.85406 6.53375 5.8157C6.55601 5.77733 6.58807 5.74558 6.62664 5.7237C6.66522 5.70181 6.70892 5.69059 6.75327 5.69117C6.79762 5.69175 6.84101 5.70411 6.879 5.727Z" fill="#F762A2"/>
</g>
<defs>
<clipPath id="clip0_5_15">
<rect width="16" height="16" fill="white" transform="translate(0.5 0.5)"/>
</clipPath>
</defs>
</svg>
